<?xml version="1.0" encoding="utf-8" standalone="no"?>
<!DOCTYPE svg PUBLIC "-//W3C//DTD SVG 1.1//EN"
  "http://www.w3.org/Graphics/SVG/1.1/DTD/svg11.dtd">
<!-- Created with matplotlib (http://matplotlib.org/) -->
<svg height="345.6pt" version="1.1" viewBox="0 0 460.8 345.6" width="460.8pt" xmlns="http://www.w3.org/2000/svg" xmlns:xlink="http://www.w3.org/1999/xlink">
 <defs>
  <style type="text/css">
*{stroke-linecap:butt;stroke-linejoin:round;}
  </style>
 </defs>
 <g id="figure_1">
  <g id="patch_1">
   <path d="M 0 345.6 
L 460.8 345.6 
L 460.8 0 
L 0 0 
z
" style="fill:#ffffff;"/>
  </g>
  <g id="axes_1">
   <g id="patch_2">
    <path d="M 57.6 307.584 
L 414.72 307.584 
L 414.72 41.472 
L 57.6 41.472 
z
" style="fill:#ffffff;"/>
   </g>
   <g id="matplotlib.axis_1">
    <g id="xtick_1">
     <g id="line2d_1">
      <path clip-path="url(#pcea7ed458f)" d="M 73.832727 307.584 
L 73.832727 41.472 
" style="fill:none;stroke:#b0b0b0;stroke-linecap:square;stroke-width:0.8;"/>
     </g>
     <g id="line2d_2">
      <defs>
       <path d="M 0 0 
L 0 3.5 
" id="mf6b7842f0c" style="stroke:#000000;stroke-width:0.8;"/>
      </defs>
      <g>
       <use style="stroke:#000000;stroke-width:0.8;" x="73.832727" xlink:href="#mf6b7842f0c" y="307.584"/>
      </g>
     </g>
     <g id="text_1">
      <!-- 0 -->
      <defs>
       <path d="M 31.78125 66.40625 
Q 24.171875 66.40625 20.328125 58.90625 
Q 16.5 51.421875 16.5 36.375 
Q 16.5 21.390625 20.328125 13.890625 
Q 24.171875 6.390625 31.78125 6.390625 
Q 39.453125 6.390625 43.28125 13.890625 
Q 47.125 21.390625 47.125 36.375 
Q 47.125 51.421875 43.28125 58.90625 
Q 39.453125 66.40625 31.78125 66.40625 
z
M 31.78125 74.21875 
Q 44.046875 74.21875 50.515625 64.515625 
Q 56.984375 54.828125 56.984375 36.375 
Q 56.984375 17.96875 50.515625 8.265625 
Q 44.046875 -1.421875 31.78125 -1.421875 
Q 19.53125 -1.421875 13.0625 8.265625 
Q 6.59375 17.96875 6.59375 36.375 
Q 6.59375 54.828125 13.0625 64.515625 
Q 19.53125 74.21875 31.78125 74.21875 
z
" id="DejaVuSans-30"/>
      </defs>
      <g transform="translate(70.651477 322.182437)scale(0.1 -0.1)">
       <use xlink:href="#DejaVuSans-30"/>
      </g>
     </g>
    </g>
    <g id="xtick_2">
     <g id="line2d_3">
      <path clip-path="url(#pcea7ed458f)" d="M 128.122785 307.584 
L 128.122785 41.472 
" style="fill:none;stroke:#b0b0b0;stroke-linecap:square;stroke-width:0.8;"/>
     </g>
     <g id="line2d_4">
      <g>
       <use style="stroke:#000000;stroke-width:0.8;" x="128.122785" xlink:href="#mf6b7842f0c" y="307.584"/>
      </g>
     </g>
     <g id="text_2">
      <!-- 50 -->
      <defs>
       <path d="M 10.796875 72.90625 
L 49.515625 72.90625 
L 49.515625 64.59375 
L 19.828125 64.59375 
L 19.828125 46.734375 
Q 21.96875 47.46875 24.109375 47.828125 
Q 26.265625 48.1875 28.421875 48.1875 
Q 40.625 48.1875 47.75 41.5 
Q 54.890625 34.8125 54.890625 23.390625 
Q 54.890625 11.625 47.5625 5.09375 
Q 40.234375 -1.421875 26.90625 -1.421875 
Q 22.3125 -1.421875 17.546875 -0.640625 
Q 12.796875 0.140625 7.71875 1.703125 
L 7.71875 11.625 
Q 12.109375 9.234375 16.796875 8.0625 
Q 21.484375 6.890625 26.703125 6.890625 
Q 35.15625 6.890625 40.078125 11.328125 
Q 45.015625 15.765625 45.015625 23.390625 
Q 45.015625 31 40.078125 35.4375 
Q 35.15625 39.890625 26.703125 39.890625 
Q 22.75 39.890625 18.8125 39.015625 
Q 14.890625 38.140625 10.796875 36.28125 
z
" id="DejaVuSans-35"/>
      </defs>
      <g transform="translate(121.760285 322.182437)scale(0.1 -0.1)">
       <use xlink:href="#DejaVuSans-35"/>
       <use x="63.623047" xlink:href="#DejaVuSans-30"/>
      </g>
     </g>
    </g>
    <g id="xtick_3">
     <g id="line2d_5">
      <path clip-path="url(#pcea7ed458f)" d="M 182.412843 307.584 
L 182.412843 41.472 
" style="fill:none;stroke:#b0b0b0;stroke-linecap:square;stroke-width:0.8;"/>
     </g>
     <g id="line2d_6">
      <g>
       <use style="stroke:#000000;stroke-width:0.8;" x="182.412843" xlink:href="#mf6b7842f0c" y="307.584"/>
      </g>
     </g>
     <g id="text_3">
      <!-- 100 -->
      <defs>
       <path d="M 12.40625 8.296875 
L 28.515625 8.296875 
L 28.515625 63.921875 
L 10.984375 60.40625 
L 10.984375 69.390625 
L 28.421875 72.90625 
L 38.28125 72.90625 
L 38.28125 8.296875 
L 54.390625 8.296875 
L 54.390625 0 
L 12.40625 0 
z
" id="DejaVuSans-31"/>
      </defs>
      <g transform="translate(172.869093 322.182437)scale(0.1 -0.1)">
       <use xlink:href="#DejaVuSans-31"/>
       <use x="63.623047" xlink:href="#DejaVuSans-30"/>
       <use x="127.246094" xlink:href="#DejaVuSans-30"/>
      </g>
     </g>
    </g>
    <g id="xtick_4">
     <g id="line2d_7">
      <path clip-path="url(#pcea7ed458f)" d="M 236.702901 307.584 
L 236.702901 41.472 
" style="fill:none;stroke:#b0b0b0;stroke-linecap:square;stroke-width:0.8;"/>
     </g>
     <g id="line2d_8">
      <g>
       <use style="stroke:#000000;stroke-width:0.8;" x="236.702901" xlink:href="#mf6b7842f0c" y="307.584"/>
      </g>
     </g>
     <g id="text_4">
      <!-- 150 -->
      <g transform="translate(227.159151 322.182437)scale(0.1 -0.1)">
       <use xlink:href="#DejaVuSans-31"/>
       <use x="63.623047" xlink:href="#DejaVuSans-35"/>
       <use x="127.246094" xlink:href="#DejaVuSans-30"/>
      </g>
     </g>
    </g>
    <g id="xtick_5">
     <g id="line2d_9">
      <path clip-path="url(#pcea7ed458f)" d="M 290.992958 307.584 
L 290.992958 41.472 
" style="fill:none;stroke:#b0b0b0;stroke-linecap:square;stroke-width:0.8;"/>
     </g>
     <g id="line2d_10">
      <g>
       <use style="stroke:#000000;stroke-width:0.8;" x="290.992958" xlink:href="#mf6b7842f0c" y="307.584"/>
      </g>
     </g>
     <g id="text_5">
      <!-- 200 -->
      <defs>
       <path d="M 19.1875 8.296875 
L 53.609375 8.296875 
L 53.609375 0 
L 7.328125 0 
L 7.328125 8.296875 
Q 12.9375 14.109375 22.625 23.890625 
Q 32.328125 33.6875 34.8125 36.53125 
Q 39.546875 41.84375 41.421875 45.53125 
Q 43.3125 49.21875 43.3125 52.78125 
Q 43.3125 58.59375 39.234375 62.25 
Q 35.15625 65.921875 28.609375 65.921875 
Q 23.96875 65.921875 18.8125 64.3125 
Q 13.671875 62.703125 7.8125 59.421875 
L 7.8125 69.390625 
Q 13.765625 71.78125 18.9375 73 
Q 24.125 74.21875 28.421875 74.21875 
Q 39.75 74.21875 46.484375 68.546875 
Q 53.21875 62.890625 53.21875 53.421875 
Q 53.21875 48.921875 51.53125 44.890625 
Q 49.859375 40.875 45.40625 35.40625 
Q 44.1875 33.984375 37.640625 27.21875 
Q 31.109375 20.453125 19.1875 8.296875 
z
" id="DejaVuSans-32"/>
      </defs>
      <g transform="translate(281.449208 322.182437)scale(0.1 -0.1)">
       <use xlink:href="#DejaVuSans-32"/>
       <use x="63.623047" xlink:href="#DejaVuSans-30"/>
       <use x="127.246094" xlink:href="#DejaVuSans-30"/>
      </g>
     </g>
    </g>
    <g id="xtick_6">
     <g id="line2d_11">
      <path clip-path="url(#pcea7ed458f)" d="M 345.283016 307.584 
L 345.283016 41.472 
" style="fill:none;stroke:#b0b0b0;stroke-linecap:square;stroke-width:0.8;"/>
     </g>
     <g id="line2d_12">
      <g>
       <use style="stroke:#000000;stroke-width:0.8;" x="345.283016" xlink:href="#mf6b7842f0c" y="307.584"/>
      </g>
     </g>
     <g id="text_6">
      <!-- 250 -->
      <g transform="translate(335.739266 322.182437)scale(0.1 -0.1)">
       <use xlink:href="#DejaVuSans-32"/>
       <use x="63.623047" xlink:href="#DejaVuSans-35"/>
       <use x="127.246094" xlink:href="#DejaVuSans-30"/>
      </g>
     </g>
    </g>
    <g id="xtick_7">
     <g id="line2d_13">
      <path clip-path="url(#pcea7ed458f)" d="M 399.573074 307.584 
L 399.573074 41.472 
" style="fill:none;stroke:#b0b0b0;stroke-linecap:square;stroke-width:0.8;"/>
     </g>
     <g id="line2d_14">
      <g>
       <use style="stroke:#000000;stroke-width:0.8;" x="399.573074" xlink:href="#mf6b7842f0c" y="307.584"/>
      </g>
     </g>
     <g id="text_7">
      <!-- 300 -->
      <defs>
       <path d="M 40.578125 39.3125 
Q 47.65625 37.796875 51.625 33 
Q 55.609375 28.21875 55.609375 21.1875 
Q 55.609375 10.40625 48.1875 4.484375 
Q 40.765625 -1.421875 27.09375 -1.421875 
Q 22.515625 -1.421875 17.65625 -0.515625 
Q 12.796875 0.390625 7.625 2.203125 
L 7.625 11.71875 
Q 11.71875 9.328125 16.59375 8.109375 
Q 21.484375 6.890625 26.8125 6.890625 
Q 36.078125 6.890625 40.9375 10.546875 
Q 45.796875 14.203125 45.796875 21.1875 
Q 45.796875 27.640625 41.28125 31.265625 
Q 36.765625 34.90625 28.71875 34.90625 
L 20.21875 34.90625 
L 20.21875 43.015625 
L 29.109375 43.015625 
Q 36.375 43.015625 40.234375 45.921875 
Q 44.09375 48.828125 44.09375 54.296875 
Q 44.09375 59.90625 40.109375 62.90625 
Q 36.140625 65.921875 28.71875 65.921875 
Q 24.65625 65.921875 20.015625 65.03125 
Q 15.375 64.15625 9.8125 62.3125 
L 9.8125 71.09375 
Q 15.4375 72.65625 20.34375 73.4375 
Q 25.25 74.21875 29.59375 74.21875 
Q 40.828125 74.21875 47.359375 69.109375 
Q 53.90625 64.015625 53.90625 55.328125 
Q 53.90625 49.265625 50.4375 45.09375 
Q 46.96875 40.921875 40.578125 39.3125 
z
" id="DejaVuSans-33"/>
      </defs>
      <g transform="translate(390.029324 322.182437)scale(0.1 -0.1)">
       <use xlink:href="#DejaVuSans-33"/>
       <use x="63.623047" xlink:href="#DejaVuSans-30"/>
       <use x="127.246094" xlink:href="#DejaVuSans-30"/>
      </g>
     </g>
    </g>
    <g id="text_8">
     <!-- Generación -->
     <defs>
      <path d="M 59.515625 10.40625 
L 59.515625 29.984375 
L 43.40625 29.984375 
L 43.40625 38.09375 
L 69.28125 38.09375 
L 69.28125 6.78125 
Q 63.578125 2.734375 56.6875 0.65625 
Q 49.8125 -1.421875 42 -1.421875 
Q 24.90625 -1.421875 15.25 8.5625 
Q 5.609375 18.5625 5.609375 36.375 
Q 5.609375 54.25 15.25 64.234375 
Q 24.90625 74.21875 42 74.21875 
Q 49.125 74.21875 55.546875 72.453125 
Q 61.96875 70.703125 67.390625 67.28125 
L 67.390625 56.78125 
Q 61.921875 61.421875 55.765625 63.765625 
Q 49.609375 66.109375 42.828125 66.109375 
Q 29.4375 66.109375 22.71875 58.640625 
Q 16.015625 51.171875 16.015625 36.375 
Q 16.015625 21.625 22.71875 14.15625 
Q 29.4375 6.6875 42.828125 6.6875 
Q 48.046875 6.6875 52.140625 7.59375 
Q 56.25 8.5 59.515625 10.40625 
z
" id="DejaVuSans-47"/>
      <path d="M 56.203125 29.59375 
L 56.203125 25.203125 
L 14.890625 25.203125 
Q 15.484375 15.921875 20.484375 11.0625 
Q 25.484375 6.203125 34.421875 6.203125 
Q 39.59375 6.203125 44.453125 7.46875 
Q 49.3125 8.734375 54.109375 11.28125 
L 54.109375 2.78125 
Q 49.265625 0.734375 44.1875 -0.34375 
Q 39.109375 -1.421875 33.890625 -1.421875 
Q 20.796875 -1.421875 13.15625 6.1875 
Q 5.515625 13.8125 5.515625 26.8125 
Q 5.515625 40.234375 12.765625 48.109375 
Q 20.015625 56 32.328125 56 
Q 43.359375 56 49.78125 48.890625 
Q 56.203125 41.796875 56.203125 29.59375 
z
M 47.21875 32.234375 
Q 47.125 39.59375 43.09375 43.984375 
Q 39.0625 48.390625 32.421875 48.390625 
Q 24.90625 48.390625 20.390625 44.140625 
Q 15.875 39.890625 15.1875 32.171875 
z
" id="DejaVuSans-65"/>
      <path d="M 54.890625 33.015625 
L 54.890625 0 
L 45.90625 0 
L 45.90625 32.71875 
Q 45.90625 40.484375 42.875 44.328125 
Q 39.84375 48.1875 33.796875 48.1875 
Q 26.515625 48.1875 22.3125 43.546875 
Q 18.109375 38.921875 18.109375 30.90625 
L 18.109375 0 
L 9.078125 0 
L 9.078125 54.6875 
L 18.109375 54.6875 
L 18.109375 46.1875 
Q 21.34375 51.125 25.703125 53.5625 
Q 30.078125 56 35.796875 56 
Q 45.21875 56 50.046875 50.171875 
Q 54.890625 44.34375 54.890625 33.015625 
z
" id="DejaVuSans-6e"/>
      <path d="M 41.109375 46.296875 
Q 39.59375 47.171875 37.8125 47.578125 
Q 36.03125 48 33.890625 48 
Q 26.265625 48 22.1875 43.046875 
Q 18.109375 38.09375 18.109375 28.8125 
L 18.109375 0 
L 9.078125 0 
L 9.078125 54.6875 
L 18.109375 54.6875 
L 18.109375 46.1875 
Q 20.953125 51.171875 25.484375 53.578125 
Q 30.03125 56 36.53125 56 
Q 37.453125 56 38.578125 55.875 
Q 39.703125 55.765625 41.0625 55.515625 
z
" id="DejaVuSans-72"/>
      <path d="M 34.28125 27.484375 
Q 23.390625 27.484375 19.1875 25 
Q 14.984375 22.515625 14.984375 16.5 
Q 14.984375 11.71875 18.140625 8.90625 
Q 21.296875 6.109375 26.703125 6.109375 
Q 34.1875 6.109375 38.703125 11.40625 
Q 43.21875 16.703125 43.21875 25.484375 
L 43.21875 27.484375 
z
M 52.203125 31.203125 
L 52.203125 0 
L 43.21875 0 
L 43.21875 8.296875 
Q 40.140625 3.328125 35.546875 0.953125 
Q 30.953125 -1.421875 24.3125 -1.421875 
Q 15.921875 -1.421875 10.953125 3.296875 
Q 6 8.015625 6 15.921875 
Q 6 25.140625 12.171875 29.828125 
Q 18.359375 34.515625 30.609375 34.515625 
L 43.21875 34.515625 
L 43.21875 35.40625 
Q 43.21875 41.609375 39.140625 45 
Q 35.0625 48.390625 27.6875 48.390625 
Q 23 48.390625 18.546875 47.265625 
Q 14.109375 46.140625 10.015625 43.890625 
L 10.015625 52.203125 
Q 14.9375 54.109375 19.578125 55.046875 
Q 24.21875 56 28.609375 56 
Q 40.484375 56 46.34375 49.84375 
Q 52.203125 43.703125 52.203125 31.203125 
z
" id="DejaVuSans-61"/>
      <path d="M 48.78125 52.59375 
L 48.78125 44.1875 
Q 44.96875 46.296875 41.140625 47.34375 
Q 37.3125 48.390625 33.40625 48.390625 
Q 24.65625 48.390625 19.8125 42.84375 
Q 14.984375 37.3125 14.984375 27.296875 
Q 14.984375 17.28125 19.8125 11.734375 
Q 24.65625 6.203125 33.40625 6.203125 
Q 37.3125 6.203125 41.140625 7.25 
Q 44.96875 8.296875 48.78125 10.40625 
L 48.78125 2.09375 
Q 45.015625 0.34375 40.984375 -0.53125 
Q 36.96875 -1.421875 32.421875 -1.421875 
Q 20.0625 -1.421875 12.78125 6.34375 
Q 5.515625 14.109375 5.515625 27.296875 
Q 5.515625 40.671875 12.859375 48.328125 
Q 20.21875 56 33.015625 56 
Q 37.15625 56 41.109375 55.140625 
Q 45.0625 54.296875 48.78125 52.59375 
z
" id="DejaVuSans-63"/>
      <path d="M 9.421875 54.6875 
L 18.40625 54.6875 
L 18.40625 0 
L 9.421875 0 
z
M 9.421875 75.984375 
L 18.40625 75.984375 
L 18.40625 64.59375 
L 9.421875 64.59375 
z
" id="DejaVuSans-69"/>
      <path d="M 30.609375 48.390625 
Q 23.390625 48.390625 19.1875 42.75 
Q 14.984375 37.109375 14.984375 27.296875 
Q 14.984375 17.484375 19.15625 11.84375 
Q 23.34375 6.203125 30.609375 6.203125 
Q 37.796875 6.203125 41.984375 11.859375 
Q 46.1875 17.53125 46.1875 27.296875 
Q 46.1875 37.015625 41.984375 42.703125 
Q 37.796875 48.390625 30.609375 48.390625 
z
M 30.609375 56 
Q 42.328125 56 49.015625 48.375 
Q 55.71875 40.765625 55.71875 27.296875 
Q 55.71875 13.875 49.015625 6.21875 
Q 42.328125 -1.421875 30.609375 -1.421875 
Q 18.84375 -1.421875 12.171875 6.21875 
Q 5.515625 13.875 5.515625 27.296875 
Q 5.515625 40.765625 12.171875 48.375 
Q 18.84375 56 30.609375 56 
z
M 37.40625 79.984375 
L 47.125 79.984375 
L 31.203125 61.625 
L 23.734375 61.625 
z
" id="DejaVuSans-f3"/>
     </defs>
     <g transform="translate(207.477969 335.860562)scale(0.1 -0.1)">
      <use xlink:href="#DejaVuSans-47"/>
      <use x="77.490234" xlink:href="#DejaVuSans-65"/>
      <use x="139.013672" xlink:href="#DejaVuSans-6e"/>
      <use x="202.392578" xlink:href="#DejaVuSans-65"/>
      <use x="263.916016" xlink:href="#DejaVuSans-72"/>
      <use x="305.029297" xlink:href="#DejaVuSans-61"/>
      <use x="366.308594" xlink:href="#DejaVuSans-63"/>
      <use x="421.289062" xlink:href="#DejaVuSans-69"/>
      <use x="449.072266" xlink:href="#DejaVuSans-f3"/>
      <use x="510.253906" xlink:href="#DejaVuSans-6e"/>
     </g>
    </g>
   </g>
   <g id="matplotlib.axis_2">
    <g id="ytick_1">
     <g id="line2d_15">
      <path clip-path="url(#pcea7ed458f)" d="M 57.6 262.006979 
L 414.72 262.006979 
" style="fill:none;stroke:#b0b0b0;stroke-linecap:square;stroke-width:0.8;"/>
     </g>
     <g id="line2d_16">
      <defs>
       <path d="M 0 0 
L -3.5 0 
" id="m3ca8c19abb" style="stroke:#000000;stroke-width:0.8;"/>
      </defs>
      <g>
       <use style="stroke:#000000;stroke-width:0.8;" x="57.6" xlink:href="#m3ca8c19abb" y="262.006979"/>
      </g>
     </g>
     <g id="text_9">
      <!-- 0.2 -->
      <defs>
       <path d="M 10.6875 12.40625 
L 21 12.40625 
L 21 0 
L 10.6875 0 
z
" id="DejaVuSans-2e"/>
      </defs>
      <g transform="translate(34.696875 265.806197)scale(0.1 -0.1)">
       <use xlink:href="#DejaVuSans-30"/>
       <use x="63.623047" xlink:href="#DejaVuSans-2e"/>
       <use x="95.410156" xlink:href="#DejaVuSans-32"/>
      </g>
     </g>
    </g>
    <g id="ytick_2">
     <g id="line2d_17">
      <path clip-path="url(#pcea7ed458f)" d="M 57.6 203.37077 
L 414.72 203.37077 
" style="fill:none;stroke:#b0b0b0;stroke-linecap:square;stroke-width:0.8;"/>
     </g>
     <g id="line2d_18">
      <g>
       <use style="stroke:#000000;stroke-width:0.8;" x="57.6" xlink:href="#m3ca8c19abb" y="203.37077"/>
      </g>
     </g>
     <g id="text_10">
      <!-- 0.4 -->
      <defs>
       <path d="M 37.796875 64.3125 
L 12.890625 25.390625 
L 37.796875 25.390625 
z
M 35.203125 72.90625 
L 47.609375 72.90625 
L 47.609375 25.390625 
L 58.015625 25.390625 
L 58.015625 17.1875 
L 47.609375 17.1875 
L 47.609375 0 
L 37.796875 0 
L 37.796875 17.1875 
L 4.890625 17.1875 
L 4.890625 26.703125 
z
" id="DejaVuSans-34"/>
      </defs>
      <g transform="translate(34.696875 207.169988)scale(0.1 -0.1)">
       <use xlink:href="#DejaVuSans-30"/>
       <use x="63.623047" xlink:href="#DejaVuSans-2e"/>
       <use x="95.410156" xlink:href="#DejaVuSans-34"/>
      </g>
     </g>
    </g>
    <g id="ytick_3">
     <g id="line2d_19">
      <path clip-path="url(#pcea7ed458f)" d="M 57.6 144.734561 
L 414.72 144.734561 
" style="fill:none;stroke:#b0b0b0;stroke-linecap:square;stroke-width:0.8;"/>
     </g>
     <g id="line2d_20">
      <g>
       <use style="stroke:#000000;stroke-width:0.8;" x="57.6" xlink:href="#m3ca8c19abb" y="144.734561"/>
      </g>
     </g>
     <g id="text_11">
      <!-- 0.6 -->
      <defs>
       <path d="M 33.015625 40.375 
Q 26.375 40.375 22.484375 35.828125 
Q 18.609375 31.296875 18.609375 23.390625 
Q 18.609375 15.53125 22.484375 10.953125 
Q 26.375 6.390625 33.015625 6.390625 
Q 39.65625 6.390625 43.53125 10.953125 
Q 47.40625 15.53125 47.40625 23.390625 
Q 47.40625 31.296875 43.53125 35.828125 
Q 39.65625 40.375 33.015625 40.375 
z
M 52.59375 71.296875 
L 52.59375 62.3125 
Q 48.875 64.0625 45.09375 64.984375 
Q 41.3125 65.921875 37.59375 65.921875 
Q 27.828125 65.921875 22.671875 59.328125 
Q 17.53125 52.734375 16.796875 39.40625 
Q 19.671875 43.65625 24.015625 45.921875 
Q 28.375 48.1875 33.59375 48.1875 
Q 44.578125 48.1875 50.953125 41.515625 
Q 57.328125 34.859375 57.328125 23.390625 
Q 57.328125 12.15625 50.6875 5.359375 
Q 44.046875 -1.421875 33.015625 -1.421875 
Q 20.359375 -1.421875 13.671875 8.265625 
Q 6.984375 17.96875 6.984375 36.375 
Q 6.984375 53.65625 15.1875 63.9375 
Q 23.390625 74.21875 37.203125 74.21875 
Q 40.921875 74.21875 44.703125 73.484375 
Q 48.484375 72.75 52.59375 71.296875 
z
" id="DejaVuSans-36"/>
      </defs>
      <g transform="translate(34.696875 148.533779)scale(0.1 -0.1)">
       <use xlink:href="#DejaVuSans-30"/>
       <use x="63.623047" xlink:href="#DejaVuSans-2e"/>
       <use x="95.410156" xlink:href="#DejaVuSans-36"/>
      </g>
     </g>
    </g>
    <g id="ytick_4">
     <g id="line2d_21">
      <path clip-path="url(#pcea7ed458f)" d="M 57.6 86.098351 
L 414.72 86.098351 
" style="fill:none;stroke:#b0b0b0;stroke-linecap:square;stroke-width:0.8;"/>
     </g>
     <g id="line2d_22">
      <g>
       <use style="stroke:#000000;stroke-width:0.8;" x="57.6" xlink:href="#m3ca8c19abb" y="86.098351"/>
      </g>
     </g>
     <g id="text_12">
      <!-- 0.8 -->
      <defs>
       <path d="M 31.78125 34.625 
Q 24.75 34.625 20.71875 30.859375 
Q 16.703125 27.09375 16.703125 20.515625 
Q 16.703125 13.921875 20.71875 10.15625 
Q 24.75 6.390625 31.78125 6.390625 
Q 38.8125 6.390625 42.859375 10.171875 
Q 46.921875 13.96875 46.921875 20.515625 
Q 46.921875 27.09375 42.890625 30.859375 
Q 38.875 34.625 31.78125 34.625 
z
M 21.921875 38.8125 
Q 15.578125 40.375 12.03125 44.71875 
Q 8.5 49.078125 8.5 55.328125 
Q 8.5 64.0625 14.71875 69.140625 
Q 20.953125 74.21875 31.78125 74.21875 
Q 42.671875 74.21875 48.875 69.140625 
Q 55.078125 64.0625 55.078125 55.328125 
Q 55.078125 49.078125 51.53125 44.71875 
Q 48 40.375 41.703125 38.8125 
Q 48.828125 37.15625 52.796875 32.3125 
Q 56.78125 27.484375 56.78125 20.515625 
Q 56.78125 9.90625 50.3125 4.234375 
Q 43.84375 -1.421875 31.78125 -1.421875 
Q 19.734375 -1.421875 13.25 4.234375 
Q 6.78125 9.90625 6.78125 20.515625 
Q 6.78125 27.484375 10.78125 32.3125 
Q 14.796875 37.15625 21.921875 38.8125 
z
M 18.3125 54.390625 
Q 18.3125 48.734375 21.84375 45.5625 
Q 25.390625 42.390625 31.78125 42.390625 
Q 38.140625 42.390625 41.71875 45.5625 
Q 45.3125 48.734375 45.3125 54.390625 
Q 45.3125 60.0625 41.71875 63.234375 
Q 38.140625 66.40625 31.78125 66.40625 
Q 25.390625 66.40625 21.84375 63.234375 
Q 18.3125 60.0625 18.3125 54.390625 
z
" id="DejaVuSans-38"/>
      </defs>
      <g transform="translate(34.696875 89.89757)scale(0.1 -0.1)">
       <use xlink:href="#DejaVuSans-30"/>
       <use x="63.623047" xlink:href="#DejaVuSans-2e"/>
       <use x="95.410156" xlink:href="#DejaVuSans-38"/>
      </g>
     </g>
    </g>
    <g id="text_13">
     <!-- Valor de Fitness -->
     <defs>
      <path d="M 28.609375 0 
L 0.78125 72.90625 
L 11.078125 72.90625 
L 34.1875 11.53125 
L 57.328125 72.90625 
L 67.578125 72.90625 
L 39.796875 0 
z
" id="DejaVuSans-56"/>
      <path d="M 9.421875 75.984375 
L 18.40625 75.984375 
L 18.40625 0 
L 9.421875 0 
z
" id="DejaVuSans-6c"/>
      <path d="M 30.609375 48.390625 
Q 23.390625 48.390625 19.1875 42.75 
Q 14.984375 37.109375 14.984375 27.296875 
Q 14.984375 17.484375 19.15625 11.84375 
Q 23.34375 6.203125 30.609375 6.203125 
Q 37.796875 6.203125 41.984375 11.859375 
Q 46.1875 17.53125 46.1875 27.296875 
Q 46.1875 37.015625 41.984375 42.703125 
Q 37.796875 48.390625 30.609375 48.390625 
z
M 30.609375 56 
Q 42.328125 56 49.015625 48.375 
Q 55.71875 40.765625 55.71875 27.296875 
Q 55.71875 13.875 49.015625 6.21875 
Q 42.328125 -1.421875 30.609375 -1.421875 
Q 18.84375 -1.421875 12.171875 6.21875 
Q 5.515625 13.875 5.515625 27.296875 
Q 5.515625 40.765625 12.171875 48.375 
Q 18.84375 56 30.609375 56 
z
" id="DejaVuSans-6f"/>
      <path id="DejaVuSans-20"/>
      <path d="M 45.40625 46.390625 
L 45.40625 75.984375 
L 54.390625 75.984375 
L 54.390625 0 
L 45.40625 0 
L 45.40625 8.203125 
Q 42.578125 3.328125 38.25 0.953125 
Q 33.9375 -1.421875 27.875 -1.421875 
Q 17.96875 -1.421875 11.734375 6.484375 
Q 5.515625 14.40625 5.515625 27.296875 
Q 5.515625 40.1875 11.734375 48.09375 
Q 17.96875 56 27.875 56 
Q 33.9375 56 38.25 53.625 
Q 42.578125 51.265625 45.40625 46.390625 
z
M 14.796875 27.296875 
Q 14.796875 17.390625 18.875 11.75 
Q 22.953125 6.109375 30.078125 6.109375 
Q 37.203125 6.109375 41.296875 11.75 
Q 45.40625 17.390625 45.40625 27.296875 
Q 45.40625 37.203125 41.296875 42.84375 
Q 37.203125 48.484375 30.078125 48.484375 
Q 22.953125 48.484375 18.875 42.84375 
Q 14.796875 37.203125 14.796875 27.296875 
z
" id="DejaVuSans-64"/>
      <path d="M 9.8125 72.90625 
L 51.703125 72.90625 
L 51.703125 64.59375 
L 19.671875 64.59375 
L 19.671875 43.109375 
L 48.578125 43.109375 
L 48.578125 34.8125 
L 19.671875 34.8125 
L 19.671875 0 
L 9.8125 0 
z
" id="DejaVuSans-46"/>
      <path d="M 18.3125 70.21875 
L 18.3125 54.6875 
L 36.8125 54.6875 
L 36.8125 47.703125 
L 18.3125 47.703125 
L 18.3125 18.015625 
Q 18.3125 11.328125 20.140625 9.421875 
Q 21.96875 7.515625 27.59375 7.515625 
L 36.8125 7.515625 
L 36.8125 0 
L 27.59375 0 
Q 17.1875 0 13.234375 3.875 
Q 9.28125 7.765625 9.28125 18.015625 
L 9.28125 47.703125 
L 2.6875 47.703125 
L 2.6875 54.6875 
L 9.28125 54.6875 
L 9.28125 70.21875 
z
" id="DejaVuSans-74"/>
      <path d="M 44.28125 53.078125 
L 44.28125 44.578125 
Q 40.484375 46.53125 36.375 47.5 
Q 32.28125 48.484375 27.875 48.484375 
Q 21.1875 48.484375 17.84375 46.4375 
Q 14.5 44.390625 14.5 40.28125 
Q 14.5 37.15625 16.890625 35.375 
Q 19.28125 33.59375 26.515625 31.984375 
L 29.59375 31.296875 
Q 39.15625 29.25 43.1875 25.515625 
Q 47.21875 21.78125 47.21875 15.09375 
Q 47.21875 7.46875 41.1875 3.015625 
Q 35.15625 -1.421875 24.609375 -1.421875 
Q 20.21875 -1.421875 15.453125 -0.5625 
Q 10.6875 0.296875 5.421875 2 
L 5.421875 11.28125 
Q 10.40625 8.6875 15.234375 7.390625 
Q 20.0625 6.109375 24.8125 6.109375 
Q 31.15625 6.109375 34.5625 8.28125 
Q 37.984375 10.453125 37.984375 14.40625 
Q 37.984375 18.0625 35.515625 20.015625 
Q 33.0625 21.96875 24.703125 23.78125 
L 21.578125 24.515625 
Q 13.234375 26.265625 9.515625 29.90625 
Q 5.8125 33.546875 5.8125 39.890625 
Q 5.8125 47.609375 11.28125 51.796875 
Q 16.75 56 26.8125 56 
Q 31.78125 56 36.171875 55.265625 
Q 40.578125 54.546875 44.28125 53.078125 
z
" id="DejaVuSans-73"/>
     </defs>
     <g transform="translate(28.617187 214.613937)rotate(-90)scale(0.1 -0.1)">
      <use xlink:href="#DejaVuSans-56"/>
      <use x="68.298828" xlink:href="#DejaVuSans-61"/>
      <use x="129.578125" xlink:href="#DejaVuSans-6c"/>
      <use x="157.361328" xlink:href="#DejaVuSans-6f"/>
      <use x="218.542969" xlink:href="#DejaVuSans-72"/>
      <use x="259.65625" xlink:href="#DejaVuSans-20"/>
      <use x="291.443359" xlink:href="#DejaVuSans-64"/>
      <use x="354.919922" xlink:href="#DejaVuSans-65"/>
      <use x="416.443359" xlink:href="#DejaVuSans-20"/>
      <use x="448.230469" xlink:href="#DejaVuSans-46"/>
      <use x="505.640625" xlink:href="#DejaVuSans-69"/>
      <use x="533.423828" xlink:href="#DejaVuSans-74"/>
      <use x="572.632812" xlink:href="#DejaVuSans-6e"/>
      <use x="636.011719" xlink:href="#DejaVuSans-65"/>
      <use x="697.535156" xlink:href="#DejaVuSans-73"/>
      <use x="749.634766" xlink:href="#DejaVuSans-73"/>
     </g>
    </g>
   </g>
   <g id="line2d_23">
    <path clip-path="url(#pcea7ed458f)" d="M 73.832727 225.263215 
L 74.918528 225.108281 
L 95.54875 225.108281 
L 96.634552 228.667641 
L 97.720353 197.548827 
L 98.806154 184.752684 
L 99.891955 192.957885 
L 100.977756 189.463182 
L 102.063557 182.53329 
L 103.149358 178.512636 
L 104.23516 176.164198 
L 106.406762 169.868999 
L 107.492563 161.876731 
L 108.578364 172.436562 
L 109.664165 166.440261 
L 110.749967 171.534964 
L 111.835768 162.484919 
L 112.921569 161.128792 
L 114.00737 161.405415 
L 115.093171 157.297779 
L 116.178972 171.177173 
L 117.264773 156.933786 
L 118.350575 173.026268 
L 119.436376 153.843606 
L 120.522177 163.98318 
L 121.607978 155.194313 
L 122.693779 158.903152 
L 123.77958 159.125261 
L 124.865382 153.144336 
L 125.951183 162.727197 
L 128.122785 157.256447 
L 129.208586 170.517853 
L 130.294387 168.959367 
L 131.380189 156.843156 
L 132.46599 160.037769 
L 133.551791 159.365985 
L 134.637592 163.700216 
L 135.723393 152.623164 
L 136.809194 166.059391 
L 137.894995 169.486233 
L 138.980797 147.457713 
L 140.066598 161.861694 
L 141.152399 162.107323 
L 142.2382 159.885451 
L 143.324001 167.514117 
L 144.409802 152.948233 
L 145.495604 172.147256 
L 146.581405 153.550319 
L 147.667206 156.570744 
L 148.753007 152.310867 
L 149.838808 154.574379 
L 150.924609 158.807814 
L 152.01041 155.667988 
L 153.096212 147.369519 
L 154.182013 149.197383 
L 155.267814 164.81196 
L 156.353615 157.351203 
L 157.439416 154.439256 
L 158.525217 157.962271 
L 159.611019 158.685955 
L 160.69682 137.638366 
L 161.782621 167.447879 
L 162.868422 158.492573 
L 163.954223 155.86645 
L 165.040024 156.391383 
L 167.211627 152.549442 
L 168.297428 166.122365 
L 169.383229 158.437346 
L 170.46903 164.407107 
L 171.554831 165.360119 
L 172.640632 168.496755 
L 173.726434 156.785665 
L 174.812235 158.357383 
L 175.898036 170.507271 
L 176.983837 169.004016 
L 178.069638 154.868278 
L 179.155439 157.022206 
L 180.24124 156.388962 
L 181.327042 163.481294 
L 182.412843 162.985503 
L 183.498644 152.476265 
L 184.584445 156.393773 
L 185.670246 159.436166 
L 186.756047 152.263024 
L 187.841849 151.451 
L 188.92765 162.574472 
L 190.013451 165.183797 
L 191.099252 151.19514 
L 192.185053 157.217419 
L 193.270854 154.689007 
L 194.356656 155.930819 
L 195.442457 163.444562 
L 196.528258 156.246481 
L 197.614059 161.122607 
L 198.69986 168.263619 
L 199.785661 156.4379 
L 200.871462 165.825333 
L 201.957264 160.17107 
L 203.043065 163.99299 
L 204.128866 155.177796 
L 205.214667 147.496442 
L 206.300468 169.578327 
L 207.386269 157.645486 
L 208.472071 158.075299 
L 209.557872 156.3946 
L 210.643673 158.458724 
L 211.729474 157.469546 
L 212.815275 166.368645 
L 213.901076 156.400569 
L 214.986877 158.218467 
L 216.072679 155.293578 
L 217.15848 155.324913 
L 218.244281 154.286542 
L 219.330082 155.544644 
L 220.415883 150.346363 
L 221.501684 153.547112 
L 222.587486 146.906112 
L 223.673287 153.667081 
L 224.759088 148.242286 
L 225.844889 163.038179 
L 226.93069 153.971054 
L 228.016491 160.424543 
L 229.102292 158.50845 
L 230.188094 158.741273 
L 231.273895 151.363274 
L 232.359696 153.521372 
L 233.445497 147.433055 
L 234.531298 147.606262 
L 235.617099 149.889573 
L 236.702901 154.262362 
L 237.788702 146.6754 
L 238.874503 153.426611 
L 239.960304 143.142954 
L 241.046105 154.972929 
L 242.131906 147.48703 
L 243.217708 148.336504 
L 244.303509 151.911558 
L 245.38931 146.248659 
L 246.475111 161.566372 
L 247.560912 153.782086 
L 248.646713 168.392588 
L 249.732514 155.651461 
L 250.818316 144.371054 
L 251.904117 144.625392 
L 252.989918 158.922015 
L 254.075719 153.484174 
L 255.16152 147.421005 
L 256.247321 152.585609 
L 257.333123 154.712922 
L 258.418924 150.442942 
L 259.504725 154.24333 
L 260.590526 153.548131 
L 261.676327 151.391106 
L 262.762128 165.429409 
L 263.847929 155.233359 
L 264.933731 162.184431 
L 266.019532 172.169036 
L 267.105333 165.087185 
L 268.191134 162.523979 
L 269.276935 154.914489 
L 270.362736 151.487072 
L 271.448538 161.276952 
L 272.534339 167.247471 
L 273.62014 158.253503 
L 274.705941 158.178804 
L 275.791742 165.240625 
L 276.877543 157.999414 
L 277.963344 168.235739 
L 279.049146 158.872781 
L 280.134947 158.458662 
L 281.220748 157.822131 
L 282.306549 152.428017 
L 284.478151 152.007464 
L 285.563953 154.610942 
L 286.649754 179.024429 
L 287.735555 159.892953 
L 288.821356 145.30513 
L 289.907157 160.367465 
L 290.992958 157.449842 
L 293.164561 153.624777 
L 294.250362 156.701781 
L 295.336163 164.110351 
L 296.421964 156.391552 
L 297.507765 168.073154 
L 298.593566 160.665743 
L 299.679368 156.836078 
L 300.765169 149.123374 
L 301.85097 161.271188 
L 302.936771 154.184211 
L 304.022572 155.346128 
L 305.108373 166.233398 
L 306.194175 163.731156 
L 307.279976 169.879365 
L 308.365777 152.612752 
L 309.451578 160.923156 
L 310.537379 162.114728 
L 311.62318 156.131425 
L 312.708981 159.310691 
L 313.794783 152.539357 
L 314.880584 159.773592 
L 315.966385 143.275707 
L 317.052186 154.295096 
L 318.137987 153.067456 
L 319.223788 150.357517 
L 320.30959 160.997175 
L 321.395391 156.783865 
L 322.481192 157.466885 
L 323.566993 156.084906 
L 324.652794 156.067557 
L 325.738595 158.62349 
L 326.824396 160.202603 
L 327.910198 155.312678 
L 328.995999 159.484705 
L 330.0818 161.186991 
L 331.167601 158.497638 
L 332.253402 156.421741 
L 333.339203 158.233491 
L 334.425005 171.144899 
L 335.510806 152.71707 
L 336.596607 169.39122 
L 337.682408 160.65344 
L 338.768209 164.450022 
L 339.85401 156.662196 
L 340.939811 151.272198 
L 342.025613 158.888956 
L 343.111414 148.076658 
L 344.197215 150.11898 
L 345.283016 149.373297 
L 346.368817 158.62242 
L 347.454618 170.547221 
L 348.54042 163.720713 
L 349.626221 166.025661 
L 350.712022 161.187377 
L 351.797823 167.925257 
L 352.883624 168.482226 
L 353.969425 145.887246 
L 355.055227 154.05261 
L 356.141028 166.974734 
L 357.226829 166.087735 
L 358.31263 161.007759 
L 359.398431 171.701784 
L 360.484232 174.279853 
L 361.570033 168.075892 
L 362.655835 172.532251 
L 363.741636 171.012188 
L 364.827437 163.160825 
L 365.913238 163.558243 
L 366.999039 163.420353 
L 368.08484 149.200883 
L 369.170642 152.702701 
L 370.256443 153.781132 
L 371.342244 164.163907 
L 372.428045 161.155212 
L 373.513846 157.242285 
L 374.599647 156.012108 
L 375.685448 168.849628 
L 377.857051 149.794929 
L 378.942852 147.192332 
L 380.028653 156.831564 
L 381.114454 152.122987 
L 382.200255 157.333599 
L 383.286057 156.805485 
L 384.371858 162.182229 
L 385.457659 158.862207 
L 386.54346 154.118595 
L 387.629261 166.999858 
L 388.715062 165.211807 
L 389.800863 156.789727 
L 390.886665 165.005646 
L 391.972466 151.060269 
L 393.058267 164.108118 
L 394.144068 150.63001 
L 395.229869 160.876692 
L 396.31567 168.782999 
L 397.401472 156.168419 
L 398.487273 162.488977 
L 398.487273 162.488977 
" style="fill:none;stroke:#0000ff;stroke-linecap:square;stroke-width:1.5;"/>
   </g>
   <g id="line2d_24">
    <path clip-path="url(#pcea7ed458f)" d="M 73.832727 291.869811 
L 74.918528 291.988565 
L 95.54875 291.988565 
L 96.634552 295.488 
L 97.720353 255.36329 
L 98.806154 238.935021 
L 99.891955 256.891299 
L 100.977756 259.721965 
L 102.063557 255.635535 
L 103.149358 245.798347 
L 105.320961 242.44661 
L 106.406762 234.669394 
L 107.492563 221.547281 
L 108.578364 240.507346 
L 109.664165 230.994754 
L 110.749967 243.692559 
L 111.835768 229.337382 
L 112.921569 230.137299 
L 114.00737 229.429375 
L 115.093171 221.566595 
L 116.178972 243.829321 
L 117.264773 222.869509 
L 118.350575 253.221627 
L 119.436376 221.267364 
L 120.522177 229.886078 
L 121.607978 221.061946 
L 122.693779 230.973025 
L 123.77958 230.112985 
L 124.865382 226.253612 
L 125.951183 233.812699 
L 127.036984 225.907074 
L 128.122785 225.562131 
L 129.208586 248.049008 
L 130.294387 240.848589 
L 131.380189 223.400432 
L 132.46599 227.302922 
L 133.551791 228.343432 
L 134.637592 232.025376 
L 135.723393 222.244495 
L 136.809194 246.437983 
L 137.894995 243.660497 
L 138.980797 210.202342 
L 140.066598 237.286625 
L 141.152399 232.639463 
L 142.2382 226.79234 
L 143.324001 235.088052 
L 144.409802 219.420902 
L 145.495604 245.781604 
L 146.581405 221.469481 
L 147.667206 223.438108 
L 148.753007 221.937191 
L 149.838808 222.686196 
L 150.924609 225.934907 
L 152.01041 224.844502 
L 154.182013 216.261703 
L 155.267814 236.605698 
L 156.353615 233.46653 
L 157.439416 228.517846 
L 158.525217 226.825745 
L 159.611019 229.002031 
L 160.69682 203.551313 
L 161.782621 240.951462 
L 162.868422 230.434075 
L 163.954223 227.820095 
L 165.040024 228.403399 
L 166.125825 221.13711 
L 167.211627 215.68361 
L 168.297428 243.449543 
L 169.383229 229.086306 
L 170.46903 238.797408 
L 172.640632 246.838513 
L 173.726434 228.094194 
L 174.812235 231.357821 
L 175.898036 245.907534 
L 176.983837 243.016589 
L 178.069638 225.174226 
L 179.155439 233.779444 
L 180.24124 226.308486 
L 181.327042 236.747348 
L 182.412843 237.172113 
L 183.498644 221.812109 
L 184.584445 229.370688 
L 185.670246 232.520445 
L 186.756047 220.82671 
L 187.841849 222.586583 
L 188.92765 243.392021 
L 190.013451 241.930315 
L 191.099252 226.610704 
L 192.185053 233.037017 
L 193.270854 228.089339 
L 194.356656 230.323553 
L 195.442457 242.900992 
L 196.528258 228.810342 
L 197.614059 237.681093 
L 198.69986 245.311056 
L 199.785661 232.26501 
L 200.871462 242.210233 
L 201.957264 233.969656 
L 203.043065 241.15258 
L 205.214667 213.77326 
L 206.300468 246.619721 
L 207.386269 229.452324 
L 208.472071 228.251022 
L 209.557872 225.839893 
L 210.643673 230.895773 
L 211.729474 228.025621 
L 212.815275 242.431781 
L 213.901076 224.151549 
L 214.986877 229.771373 
L 216.072679 223.584687 
L 217.15848 220.886266 
L 218.244281 225.986573 
L 219.330082 224.636148 
L 220.415883 219.916522 
L 221.501684 223.292637 
L 222.587486 217.155898 
L 223.673287 223.214825 
L 224.759088 216.745015 
L 225.844889 237.646617 
L 226.93069 221.800452 
L 228.016491 236.220335 
L 229.102292 232.961196 
L 230.188094 227.360847 
L 231.273895 216.879952 
L 232.359696 219.973644 
L 233.445497 215.388572 
L 234.531298 215.933973 
L 235.617099 219.755975 
L 236.702901 225.709814 
L 237.788702 213.682076 
L 238.874503 225.648663 
L 239.960304 210.121993 
L 241.046105 226.624228 
L 242.131906 208.345153 
L 243.217708 220.23794 
L 244.303509 220.471365 
L 245.38931 213.103733 
L 246.475111 237.308064 
L 247.560912 226.567725 
L 248.646713 246.447489 
L 250.818316 209.28646 
L 251.904117 214.84301 
L 252.989918 228.171429 
L 254.075719 225.225163 
L 255.16152 219.582361 
L 256.247321 219.963718 
L 257.333123 226.688235 
L 258.418924 220.437036 
L 259.504725 228.46679 
L 260.590526 232.924942 
L 261.676327 225.112247 
L 262.762128 245.205555 
L 263.847929 235.792064 
L 266.019532 249.873391 
L 267.105333 246.557657 
L 268.191134 242.622112 
L 269.276935 232.117329 
L 270.362736 224.50437 
L 271.448538 234.593251 
L 272.534339 254.517652 
L 273.62014 239.860006 
L 274.705941 244.753823 
L 275.791742 245.667834 
L 276.877543 234.60957 
L 277.963344 243.789676 
L 279.049146 234.719747 
L 280.134947 239.62169 
L 281.220748 239.768501 
L 282.306549 226.111123 
L 283.39235 223.0637 
L 284.478151 228.115311 
L 285.563953 223.43862 
L 286.649754 260.209904 
L 287.735555 233.894511 
L 288.821356 211.195407 
L 289.907157 244.470397 
L 290.992958 237.815442 
L 292.07876 233.787339 
L 293.164561 224.153897 
L 294.250362 229.805752 
L 295.336163 233.731138 
L 296.421964 225.421828 
L 297.507765 248.376623 
L 298.593566 240.00038 
L 299.679368 234.288931 
L 300.765169 221.283209 
L 301.85097 236.308674 
L 302.936771 223.706595 
L 304.022572 227.665301 
L 305.108373 242.896276 
L 306.194175 243.509398 
L 307.279976 243.335394 
L 308.365777 227.592462 
L 309.451578 237.074503 
L 310.537379 239.759172 
L 311.62318 232.703775 
L 312.708981 230.735984 
L 313.794783 225.887323 
L 314.880584 236.671171 
L 315.966385 210.991161 
L 317.052186 226.050321 
L 318.137987 221.434723 
L 319.223788 221.188849 
L 320.30959 240.634666 
L 321.395391 230.507758 
L 322.481192 232.407704 
L 323.566993 224.845348 
L 324.652794 228.439677 
L 326.824396 233.934183 
L 327.910198 228.841807 
L 328.995999 233.422932 
L 330.0818 240.417446 
L 331.167601 232.975622 
L 332.253402 230.563687 
L 333.339203 231.602401 
L 334.425005 243.235912 
L 335.510806 224.287994 
L 336.596607 254.476109 
L 337.682408 243.719921 
L 338.768209 239.999873 
L 339.85401 233.384743 
L 340.939811 221.291159 
L 342.025613 240.41655 
L 343.111414 220.889487 
L 344.197215 219.716681 
L 345.283016 225.278016 
L 346.368817 237.280813 
L 347.454618 251.423381 
L 348.54042 241.32963 
L 349.626221 246.578234 
L 350.712022 238.032851 
L 351.797823 244.551829 
L 352.883624 245.285047 
L 353.969425 211.526137 
L 355.055227 225.887415 
L 356.141028 250.331162 
L 358.31263 238.52502 
L 359.398431 254.789837 
L 360.484232 258.13642 
L 361.570033 251.438964 
L 362.655835 255.179874 
L 363.741636 254.622543 
L 364.827437 242.846994 
L 365.913238 241.672497 
L 366.999039 238.710857 
L 368.08484 222.426476 
L 369.170642 225.401028 
L 370.256443 225.036506 
L 371.342244 245.176985 
L 372.428045 241.972501 
L 373.513846 233.424426 
L 374.599647 230.863483 
L 375.685448 250.116595 
L 376.77125 231.222929 
L 377.857051 218.297954 
L 378.942852 222.185845 
L 380.028653 229.727587 
L 381.114454 228.288788 
L 382.200255 239.089011 
L 383.286057 235.514298 
L 384.371858 240.68651 
L 385.457659 236.155901 
L 386.54346 227.29878 
L 387.629261 245.403384 
L 389.800863 236.70191 
L 390.886665 245.871481 
L 391.972466 227.446577 
L 393.058267 244.596222 
L 394.144068 222.919381 
L 396.31567 248.591099 
L 397.401472 229.592272 
L 398.487273 240.755558 
L 398.487273 240.755558 
" style="fill:none;stroke:#008000;stroke-dasharray:9.6,2.4,1.5,2.4;stroke-dashoffset:0;stroke-width:1.5;"/>
   </g>
   <g id="line2d_25">
    <path clip-path="url(#pcea7ed458f)" d="M 73.832727 158.656619 
L 74.918528 158.227996 
L 95.54875 158.227996 
L 96.634552 161.847281 
L 97.720353 139.734365 
L 98.806154 130.570348 
L 99.891955 129.024471 
L 102.063557 109.431045 
L 103.149358 111.226925 
L 104.23516 108.24776 
L 105.320961 103.413098 
L 106.406762 105.068604 
L 107.492563 102.206182 
L 108.578364 104.365777 
L 110.749967 99.37737 
L 112.921569 92.120285 
L 114.00737 93.381454 
L 115.093171 93.028963 
L 116.178972 98.525025 
L 117.264773 90.998063 
L 118.350575 92.830909 
L 119.436376 86.419848 
L 120.522177 98.080283 
L 121.607978 89.326681 
L 122.693779 86.83328 
L 123.77958 88.137537 
L 124.865382 80.035061 
L 125.951183 91.641696 
L 127.036984 94.060079 
L 128.122785 88.950764 
L 130.294387 97.070145 
L 131.380189 90.285881 
L 132.46599 92.772616 
L 133.551791 90.388538 
L 134.637592 95.375056 
L 135.723393 83.001833 
L 136.809194 85.680798 
L 137.894995 95.311968 
L 138.980797 84.713084 
L 140.066598 86.436764 
L 141.152399 91.575182 
L 142.2382 92.978561 
L 143.324001 99.940182 
L 144.409802 86.475563 
L 145.495604 98.512909 
L 146.581405 85.631157 
L 147.667206 89.70338 
L 148.753007 82.684542 
L 149.838808 86.462562 
L 150.924609 91.680721 
L 152.01041 86.491475 
L 153.096212 74.147932 
L 154.182013 82.133062 
L 155.267814 93.018222 
L 156.353615 81.235875 
L 157.439416 80.360666 
L 158.525217 89.098796 
L 159.611019 88.369879 
L 160.69682 71.725419 
L 161.782621 93.944297 
L 162.868422 86.551071 
L 163.954223 83.912806 
L 165.040024 84.379367 
L 166.125825 87.995008 
L 167.211627 89.415274 
L 168.297428 88.795187 
L 169.383229 87.788385 
L 170.46903 90.016805 
L 171.554831 87.981015 
L 172.640632 90.154998 
L 173.726434 85.477135 
L 174.812235 85.356946 
L 175.898036 95.107008 
L 176.983837 94.991444 
L 178.069638 84.562331 
L 179.155439 80.264969 
L 180.24124 86.469438 
L 181.327042 90.215241 
L 182.412843 88.798893 
L 183.498644 83.140421 
L 184.584445 83.416858 
L 185.670246 86.351887 
L 186.756047 83.699338 
L 187.841849 80.315418 
L 188.92765 81.756923 
L 190.013451 88.43728 
L 191.099252 75.779576 
L 192.185053 81.397822 
L 193.270854 81.288674 
L 194.356656 81.538086 
L 195.442457 83.988133 
L 196.528258 83.682619 
L 197.614059 84.564122 
L 198.69986 91.216182 
L 199.785661 80.610791 
L 200.871462 89.440434 
L 201.957264 86.372484 
L 203.043065 86.8334 
L 204.128866 83.159256 
L 205.214667 81.219625 
L 206.300468 92.536933 
L 207.386269 85.838648 
L 208.472071 87.899576 
L 210.643673 86.021675 
L 211.729474 86.913471 
L 212.815275 90.305509 
L 213.901076 88.649589 
L 214.986877 86.66556 
L 216.072679 87.002469 
L 217.15848 89.76356 
L 218.244281 82.586511 
L 219.330082 86.453139 
L 220.415883 80.776203 
L 221.501684 83.801586 
L 222.587486 76.656325 
L 223.673287 84.119337 
L 224.759088 79.739558 
L 225.844889 88.429741 
L 226.93069 86.141656 
L 228.016491 84.62875 
L 229.102292 84.055703 
L 230.188094 90.121698 
L 231.273895 85.846595 
L 232.359696 87.0691 
L 233.445497 79.477538 
L 234.531298 79.27855 
L 235.617099 80.023171 
L 236.702901 82.81491 
L 237.788702 79.668723 
L 238.874503 81.20456 
L 239.960304 76.163915 
L 241.046105 83.321631 
L 242.131906 86.628907 
L 243.217708 76.435069 
L 244.303509 83.351751 
L 245.38931 79.393585 
L 246.475111 85.824681 
L 247.560912 80.996446 
L 248.646713 90.337688 
L 249.732514 82.734412 
L 250.818316 79.455648 
L 251.904117 74.407774 
L 252.989918 89.672602 
L 254.075719 81.743185 
L 255.16152 75.25965 
L 256.247321 85.207499 
L 258.418924 80.448848 
L 259.504725 80.019871 
L 260.590526 74.171321 
L 261.676327 77.669965 
L 262.762128 85.653263 
L 263.847929 74.674655 
L 264.933731 81.361086 
L 266.019532 94.464682 
L 267.105333 83.616712 
L 268.191134 82.425846 
L 269.276935 77.71165 
L 270.362736 78.469774 
L 271.448538 87.960653 
L 272.534339 79.977289 
L 273.62014 76.647 
L 274.705941 71.603785 
L 275.791742 84.813416 
L 276.877543 81.389259 
L 277.963344 92.681802 
L 279.049146 83.025814 
L 280.134947 77.295633 
L 281.220748 75.875762 
L 282.306549 78.744911 
L 283.39235 81.285054 
L 284.478151 75.899616 
L 285.563953 85.783265 
L 286.649754 97.838954 
L 287.735555 85.891395 
L 288.821356 79.414852 
L 289.907157 76.264532 
L 290.992958 77.084242 
L 292.07876 77.3737 
L 293.164561 83.095656 
L 294.250362 83.59781 
L 295.336163 94.489564 
L 296.421964 87.361276 
L 297.507765 87.769685 
L 298.593566 81.331106 
L 299.679368 79.383224 
L 300.765169 76.96354 
L 301.85097 86.233701 
L 304.022572 83.026955 
L 305.108373 89.570521 
L 306.194175 83.952913 
L 307.279976 96.423336 
L 308.365777 77.633043 
L 309.451578 84.771809 
L 310.537379 84.470285 
L 311.62318 79.559076 
L 312.708981 87.885399 
L 313.794783 79.191391 
L 314.880584 82.876013 
L 315.966385 75.560252 
L 317.052186 82.539871 
L 318.137987 84.70019 
L 319.223788 79.526185 
L 321.395391 83.059971 
L 322.481192 82.526066 
L 323.566993 87.324465 
L 324.652794 83.695437 
L 325.738595 86.021932 
L 326.824396 86.471023 
L 327.910198 81.783548 
L 328.995999 85.546479 
L 330.0818 81.956535 
L 331.167601 84.019654 
L 332.253402 82.279796 
L 333.339203 84.864581 
L 334.425005 99.053885 
L 335.510806 81.146146 
L 336.596607 84.306332 
L 337.682408 77.586959 
L 338.768209 88.90017 
L 339.85401 79.939648 
L 340.939811 81.253236 
L 342.025613 77.361361 
L 343.111414 75.263829 
L 344.197215 80.521278 
L 345.283016 73.468578 
L 346.368817 79.964027 
L 347.454618 89.67106 
L 348.54042 86.111796 
L 349.626221 85.473088 
L 350.712022 84.341903 
L 351.797823 91.298684 
L 352.883624 91.679404 
L 353.969425 80.248356 
L 355.055227 82.217806 
L 356.141028 83.618305 
L 357.226829 87.635235 
L 358.31263 83.490499 
L 359.398431 88.61373 
L 360.484232 90.423285 
L 361.570033 84.712821 
L 362.655835 89.884628 
L 363.741636 87.401834 
L 364.827437 83.474657 
L 365.913238 85.44399 
L 366.999039 88.129848 
L 368.08484 75.97529 
L 369.170642 80.004373 
L 370.256443 82.525758 
L 371.342244 83.150829 
L 372.428045 80.337924 
L 373.513846 81.060145 
L 374.599647 81.160734 
L 375.685448 87.582661 
L 376.77125 87.818375 
L 377.857051 81.291905 
L 378.942852 72.19882 
L 380.028653 83.93554 
L 381.114454 75.957186 
L 382.200255 75.578188 
L 383.286057 78.096673 
L 384.371858 83.677948 
L 385.457659 81.568513 
L 386.54346 80.938411 
L 387.629261 88.596331 
L 388.715062 89.461361 
L 389.800863 76.877543 
L 390.886665 84.139811 
L 391.972466 74.673962 
L 393.058267 83.620014 
L 394.144068 78.34064 
L 395.229869 85.503162 
L 396.31567 88.974899 
L 397.401472 82.744566 
L 398.487273 84.222397 
L 398.487273 84.222397 
" style="fill:none;stroke:#008000;stroke-dasharray:9.6,2.4,1.5,2.4;stroke-dashoffset:0;stroke-width:1.5;"/>
   </g>
   <g id="line2d_26">
    <path clip-path="url(#pcea7ed458f)" d="M 73.832727 148.725954 
L 95.54875 148.725954 
L 96.634552 144.827247 
L 97.720353 132.808664 
L 98.806154 63.175083 
L 99.891955 63.175083 
L 100.977756 61.265951 
L 102.063557 59.968401 
L 107.492563 59.946089 
L 108.578364 59.471688 
L 162.868422 59.389973 
L 163.954223 57.945831 
L 232.359696 57.945831 
L 233.445497 57.825231 
L 274.705941 57.825231 
L 275.791742 56.848226 
L 321.395391 56.848226 
L 322.481192 56.681068 
L 390.886665 56.681068 
L 391.972466 53.675983 
L 398.487273 53.568 
L 398.487273 53.568 
" style="fill:none;stroke:#ff0000;stroke-linecap:square;stroke-width:1.5;"/>
   </g>
   <g id="patch_3">
    <path d="M 57.6 307.584 
L 57.6 41.472 
" style="fill:none;stroke:#000000;stroke-linecap:square;stroke-linejoin:miter;stroke-width:0.8;"/>
   </g>
   <g id="patch_4">
    <path d="M 414.72 307.584 
L 414.72 41.472 
" style="fill:none;stroke:#000000;stroke-linecap:square;stroke-linejoin:miter;stroke-width:0.8;"/>
   </g>
   <g id="patch_5">
    <path d="M 57.6 307.584 
L 414.72 307.584 
" style="fill:none;stroke:#000000;stroke-linecap:square;stroke-linejoin:miter;stroke-width:0.8;"/>
   </g>
   <g id="patch_6">
    <path d="M 57.6 41.472 
L 414.72 41.472 
" style="fill:none;stroke:#000000;stroke-linecap:square;stroke-linejoin:miter;stroke-width:0.8;"/>
   </g>
   <g id="text_14">
    <!-- Fitness medio y mejores de la población -->
    <defs>
     <path d="M 52 44.1875 
Q 55.375 50.25 60.0625 53.125 
Q 64.75 56 71.09375 56 
Q 79.640625 56 84.28125 50.015625 
Q 88.921875 44.046875 88.921875 33.015625 
L 88.921875 0 
L 79.890625 0 
L 79.890625 32.71875 
Q 79.890625 40.578125 77.09375 44.375 
Q 74.3125 48.1875 68.609375 48.1875 
Q 61.625 48.1875 57.5625 43.546875 
Q 53.515625 38.921875 53.515625 30.90625 
L 53.515625 0 
L 44.484375 0 
L 44.484375 32.71875 
Q 44.484375 40.625 41.703125 44.40625 
Q 38.921875 48.1875 33.109375 48.1875 
Q 26.21875 48.1875 22.15625 43.53125 
Q 18.109375 38.875 18.109375 30.90625 
L 18.109375 0 
L 9.078125 0 
L 9.078125 54.6875 
L 18.109375 54.6875 
L 18.109375 46.1875 
Q 21.1875 51.21875 25.484375 53.609375 
Q 29.78125 56 35.6875 56 
Q 41.65625 56 45.828125 52.96875 
Q 50 49.953125 52 44.1875 
z
" id="DejaVuSans-6d"/>
     <path d="M 32.171875 -5.078125 
Q 28.375 -14.84375 24.75 -17.8125 
Q 21.140625 -20.796875 15.09375 -20.796875 
L 7.90625 -20.796875 
L 7.90625 -13.28125 
L 13.1875 -13.28125 
Q 16.890625 -13.28125 18.9375 -11.515625 
Q 21 -9.765625 23.484375 -3.21875 
L 25.09375 0.875 
L 2.984375 54.6875 
L 12.5 54.6875 
L 29.59375 11.921875 
L 46.6875 54.6875 
L 56.203125 54.6875 
z
" id="DejaVuSans-79"/>
     <path d="M 9.421875 54.6875 
L 18.40625 54.6875 
L 18.40625 -0.984375 
Q 18.40625 -11.421875 14.421875 -16.109375 
Q 10.453125 -20.796875 1.609375 -20.796875 
L -1.8125 -20.796875 
L -1.8125 -13.1875 
L 0.59375 -13.1875 
Q 5.71875 -13.1875 7.5625 -10.8125 
Q 9.421875 -8.453125 9.421875 -0.984375 
z
M 9.421875 75.984375 
L 18.40625 75.984375 
L 18.40625 64.59375 
L 9.421875 64.59375 
z
" id="DejaVuSans-6a"/>
     <path d="M 18.109375 8.203125 
L 18.109375 -20.796875 
L 9.078125 -20.796875 
L 9.078125 54.6875 
L 18.109375 54.6875 
L 18.109375 46.390625 
Q 20.953125 51.265625 25.265625 53.625 
Q 29.59375 56 35.59375 56 
Q 45.5625 56 51.78125 48.09375 
Q 58.015625 40.1875 58.015625 27.296875 
Q 58.015625 14.40625 51.78125 6.484375 
Q 45.5625 -1.421875 35.59375 -1.421875 
Q 29.59375 -1.421875 25.265625 0.953125 
Q 20.953125 3.328125 18.109375 8.203125 
z
M 48.6875 27.296875 
Q 48.6875 37.203125 44.609375 42.84375 
Q 40.53125 48.484375 33.40625 48.484375 
Q 26.265625 48.484375 22.1875 42.84375 
Q 18.109375 37.203125 18.109375 27.296875 
Q 18.109375 17.390625 22.1875 11.75 
Q 26.265625 6.109375 33.40625 6.109375 
Q 40.53125 6.109375 44.609375 11.75 
Q 48.6875 17.390625 48.6875 27.296875 
z
" id="DejaVuSans-70"/>
     <path d="M 48.6875 27.296875 
Q 48.6875 37.203125 44.609375 42.84375 
Q 40.53125 48.484375 33.40625 48.484375 
Q 26.265625 48.484375 22.1875 42.84375 
Q 18.109375 37.203125 18.109375 27.296875 
Q 18.109375 17.390625 22.1875 11.75 
Q 26.265625 6.109375 33.40625 6.109375 
Q 40.53125 6.109375 44.609375 11.75 
Q 48.6875 17.390625 48.6875 27.296875 
z
M 18.109375 46.390625 
Q 20.953125 51.265625 25.265625 53.625 
Q 29.59375 56 35.59375 56 
Q 45.5625 56 51.78125 48.09375 
Q 58.015625 40.1875 58.015625 27.296875 
Q 58.015625 14.40625 51.78125 6.484375 
Q 45.5625 -1.421875 35.59375 -1.421875 
Q 29.59375 -1.421875 25.265625 0.953125 
Q 20.953125 3.328125 18.109375 8.203125 
L 18.109375 0 
L 9.078125 0 
L 9.078125 75.984375 
L 18.109375 75.984375 
z
" id="DejaVuSans-62"/>
    </defs>
    <g transform="translate(115.200937 35.472)scale(0.12 -0.12)">
     <use xlink:href="#DejaVuSans-46"/>
     <use x="57.410156" xlink:href="#DejaVuSans-69"/>
     <use x="85.193359" xlink:href="#DejaVuSans-74"/>
     <use x="124.402344" xlink:href="#DejaVuSans-6e"/>
     <use x="187.78125" xlink:href="#DejaVuSans-65"/>
     <use x="249.304688" xlink:href="#DejaVuSans-73"/>
     <use x="301.404297" xlink:href="#DejaVuSans-73"/>
     <use x="353.503906" xlink:href="#DejaVuSans-20"/>
     <use x="385.291016" xlink:href="#DejaVuSans-6d"/>
     <use x="482.703125" xlink:href="#DejaVuSans-65"/>
     <use x="544.226562" xlink:href="#DejaVuSans-64"/>
     <use x="607.703125" xlink:href="#DejaVuSans-69"/>
     <use x="635.486328" xlink:href="#DejaVuSans-6f"/>
     <use x="696.667969" xlink:href="#DejaVuSans-20"/>
     <use x="728.455078" xlink:href="#DejaVuSans-79"/>
     <use x="787.634766" xlink:href="#DejaVuSans-20"/>
     <use x="819.421875" xlink:href="#DejaVuSans-6d"/>
     <use x="916.833984" xlink:href="#DejaVuSans-65"/>
     <use x="978.357422" xlink:href="#DejaVuSans-6a"/>
     <use x="1006.140625" xlink:href="#DejaVuSans-6f"/>
     <use x="1067.322266" xlink:href="#DejaVuSans-72"/>
     <use x="1108.404297" xlink:href="#DejaVuSans-65"/>
     <use x="1169.927734" xlink:href="#DejaVuSans-73"/>
     <use x="1222.027344" xlink:href="#DejaVuSans-20"/>
     <use x="1253.814453" xlink:href="#DejaVuSans-64"/>
     <use x="1317.291016" xlink:href="#DejaVuSans-65"/>
     <use x="1378.814453" xlink:href="#DejaVuSans-20"/>
     <use x="1410.601562" xlink:href="#DejaVuSans-6c"/>
     <use x="1438.384766" xlink:href="#DejaVuSans-61"/>
     <use x="1499.664062" xlink:href="#DejaVuSans-20"/>
     <use x="1531.451172" xlink:href="#DejaVuSans-70"/>
     <use x="1594.927734" xlink:href="#DejaVuSans-6f"/>
     <use x="1656.109375" xlink:href="#DejaVuSans-62"/>
     <use x="1719.585938" xlink:href="#DejaVuSans-6c"/>
     <use x="1747.369141" xlink:href="#DejaVuSans-61"/>
     <use x="1808.648438" xlink:href="#DejaVuSans-63"/>
     <use x="1863.628906" xlink:href="#DejaVuSans-69"/>
     <use x="1891.412109" xlink:href="#DejaVuSans-f3"/>
     <use x="1952.59375" xlink:href="#DejaVuSans-6e"/>
    </g>
   </g>
   <g id="legend_1">
    <g id="patch_7">
     <path d="M 187.556094 302.584 
L 284.763906 302.584 
Q 286.763906 302.584 286.763906 300.584 
L 286.763906 242.8715 
Q 286.763906 240.8715 284.763906 240.8715 
L 187.556094 240.8715 
Q 185.556094 240.8715 185.556094 242.8715 
L 185.556094 300.584 
Q 185.556094 302.584 187.556094 302.584 
z
" style="fill:#ffffff;opacity:0.8;stroke:#cccccc;stroke-linejoin:miter;"/>
    </g>
    <g id="line2d_27">
     <path d="M 189.556094 248.969937 
L 209.556094 248.969937 
" style="fill:none;stroke:#0000ff;stroke-linecap:square;stroke-width:1.5;"/>
    </g>
    <g id="line2d_28"/>
    <g id="text_15">
     <!-- media -->
     <g transform="translate(217.556094 252.469937)scale(0.1 -0.1)">
      <use xlink:href="#DejaVuSans-6d"/>
      <use x="97.412109" xlink:href="#DejaVuSans-65"/>
      <use x="158.935547" xlink:href="#DejaVuSans-64"/>
      <use x="222.412109" xlink:href="#DejaVuSans-69"/>
      <use x="250.195312" xlink:href="#DejaVuSans-61"/>
     </g>
    </g>
    <g id="line2d_29">
     <path d="M 189.556094 263.648062 
L 209.556094 263.648062 
" style="fill:none;stroke:#008000;stroke-dasharray:9.6,2.4,1.5,2.4;stroke-dashoffset:0;stroke-width:1.5;"/>
    </g>
    <g id="line2d_30"/>
    <g id="text_16">
     <!-- -1 sd -->
     <defs>
      <path d="M 4.890625 31.390625 
L 31.203125 31.390625 
L 31.203125 23.390625 
L 4.890625 23.390625 
z
" id="DejaVuSans-2d"/>
     </defs>
     <g transform="translate(217.556094 267.148062)scale(0.1 -0.1)">
      <use xlink:href="#DejaVuSans-2d"/>
      <use x="36.083984" xlink:href="#DejaVuSans-31"/>
      <use x="99.707031" xlink:href="#DejaVuSans-20"/>
      <use x="131.494141" xlink:href="#DejaVuSans-73"/>
      <use x="183.59375" xlink:href="#DejaVuSans-64"/>
     </g>
    </g>
    <g id="line2d_31">
     <path d="M 189.556094 278.326187 
L 209.556094 278.326187 
" style="fill:none;stroke:#008000;stroke-dasharray:9.6,2.4,1.5,2.4;stroke-dashoffset:0;stroke-width:1.5;"/>
    </g>
    <g id="line2d_32"/>
    <g id="text_17">
     <!-- +1 sd -->
     <defs>
      <path d="M 46 62.703125 
L 46 35.5 
L 73.1875 35.5 
L 73.1875 27.203125 
L 46 27.203125 
L 46 0 
L 37.796875 0 
L 37.796875 27.203125 
L 10.59375 27.203125 
L 10.59375 35.5 
L 37.796875 35.5 
L 37.796875 62.703125 
z
" id="DejaVuSans-2b"/>
     </defs>
     <g transform="translate(217.556094 281.826187)scale(0.1 -0.1)">
      <use xlink:href="#DejaVuSans-2b"/>
      <use x="83.789062" xlink:href="#DejaVuSans-31"/>
      <use x="147.412109" xlink:href="#DejaVuSans-20"/>
      <use x="179.199219" xlink:href="#DejaVuSans-73"/>
      <use x="231.298828" xlink:href="#DejaVuSans-64"/>
     </g>
    </g>
    <g id="line2d_33">
     <path d="M 189.556094 293.004312 
L 209.556094 293.004312 
" style="fill:none;stroke:#ff0000;stroke-linecap:square;stroke-width:1.5;"/>
    </g>
    <g id="line2d_34"/>
    <g id="text_18">
     <!-- mejor fitness -->
     <defs>
      <path d="M 37.109375 75.984375 
L 37.109375 68.5 
L 28.515625 68.5 
Q 23.6875 68.5 21.796875 66.546875 
Q 19.921875 64.59375 19.921875 59.515625 
L 19.921875 54.6875 
L 34.71875 54.6875 
L 34.71875 47.703125 
L 19.921875 47.703125 
L 19.921875 0 
L 10.890625 0 
L 10.890625 47.703125 
L 2.296875 47.703125 
L 2.296875 54.6875 
L 10.890625 54.6875 
L 10.890625 58.5 
Q 10.890625 67.625 15.140625 71.796875 
Q 19.390625 75.984375 28.609375 75.984375 
z
" id="DejaVuSans-66"/>
     </defs>
     <g transform="translate(217.556094 296.504312)scale(0.1 -0.1)">
      <use xlink:href="#DejaVuSans-6d"/>
      <use x="97.412109" xlink:href="#DejaVuSans-65"/>
      <use x="158.935547" xlink:href="#DejaVuSans-6a"/>
      <use x="186.71875" xlink:href="#DejaVuSans-6f"/>
      <use x="247.900391" xlink:href="#DejaVuSans-72"/>
      <use x="289.013672" xlink:href="#DejaVuSans-20"/>
      <use x="320.800781" xlink:href="#DejaVuSans-66"/>
      <use x="356.005859" xlink:href="#DejaVuSans-69"/>
      <use x="383.789062" xlink:href="#DejaVuSans-74"/>
      <use x="422.998047" xlink:href="#DejaVuSans-6e"/>
      <use x="486.376953" xlink:href="#DejaVuSans-65"/>
      <use x="547.900391" xlink:href="#DejaVuSans-73"/>
      <use x="600" xlink:href="#DejaVuSans-73"/>
     </g>
    </g>
   </g>
  </g>
 </g>
 <defs>
  <clipPath id="pcea7ed458f">
   <rect height="266.112" width="357.12" x="57.6" y="41.472"/>
  </clipPath>
 </defs>
</svg>
