<?xml version="1.0" encoding="UTF-8" standalone="no"?>
<!DOCTYPE svg PUBLIC "-//W3C//DTD SVG 1.1//EN"
 "http://www.w3.org/Graphics/SVG/1.1/DTD/svg11.dtd">
<!-- Generated by graphviz version 2.38.0 (20140413.2041)
 -->
<!-- Title: %3 Pages: 1 -->
<svg width="342pt" height="277pt"
 viewBox="0.00 0.00 342.50 276.84" xmlns="http://www.w3.org/2000/svg" xmlns:xlink="http://www.w3.org/1999/xlink">
<g id="graph0" class="graph" transform="scale(1 1) rotate(0) translate(4 272.836)">
<title>%3</title>
<polygon fill="white" stroke="none" points="-4,4 -4,-272.836 338.497,-272.836 338.497,4 -4,4"/>
<!-- Vin -->
<g id="node1" class="node"><title>Vin</title>
<polygon fill="lightgray" stroke="black" points="132.249,-268.836 103.249,-268.836 103.249,-250.836 132.249,-250.836 132.249,-268.836"/>
<text text-anchor="middle" x="117.749" y="-257.636" font-family="Times New Roman,serif" font-size="9.00">Vin</text>
</g>
<!-- 89 -->
<g id="node9" class="node"><title>89</title>
<ellipse fill="white" stroke="black" cx="210.749" cy="-190.087" rx="18.2703" ry="18.2703"/>
<text text-anchor="middle" x="210.749" y="-187.887" font-family="Times New Roman,serif" font-size="9.00">89</text>
</g>
<!-- Vin&#45;&gt;89 -->
<g id="edge9" class="edge"><title>Vin&#45;&gt;89</title>
<path fill="none" stroke="red" stroke-width="0.104819" d="M128.782,-250.798C143.237,-240.268 168.949,-221.537 187.731,-207.855"/>
<polygon fill="red" stroke="red" stroke-width="0.104819" points="190.039,-210.504 196.061,-201.787 185.917,-204.846 190.039,-210.504"/>
</g>
<!-- 3196 -->
<g id="node11" class="node"><title>3196</title>
<ellipse fill="white" stroke="black" cx="24.7487" cy="-190.087" rx="25" ry="25"/>
<text text-anchor="middle" x="24.7487" y="-187.887" font-family="Times New Roman,serif" font-size="9.00">3196</text>
</g>
<!-- Vin&#45;&gt;3196 -->
<g id="edge6" class="edge"><title>Vin&#45;&gt;3196</title>
<path fill="none" stroke="red" stroke-width="0.172625" d="M106.715,-250.798C93.5664,-241.219 71.1024,-224.855 53.0133,-211.677"/>
<polygon fill="red" stroke="red" stroke-width="0.172625" points="54.6881,-208.567 44.5446,-205.508 50.5664,-214.225 54.6881,-208.567"/>
</g>
<!-- Iout -->
<g id="node2" class="node"><title>Iout</title>
<polygon fill="lightgray" stroke="black" points="167.749,-112.882 135.749,-112.882 135.749,-94.8823 167.749,-94.8823 167.749,-112.882"/>
<text text-anchor="middle" x="151.749" y="-101.682" font-family="Times New Roman,serif" font-size="9.00">Iout</text>
</g>
<!-- 566 -->
<g id="node8" class="node"><title>566</title>
<ellipse fill="white" stroke="black" cx="210.749" cy="-21.2132" rx="21.4286" ry="21.4286"/>
<text text-anchor="middle" x="210.749" y="-19.0132" font-family="Times New Roman,serif" font-size="9.00">566</text>
</g>
<!-- Iout&#45;&gt;566 -->
<g id="edge4" class="edge"><title>Iout&#45;&gt;566</title>
<path fill="none" stroke="green" stroke-width="0.114522" d="M157.622,-94.8525C165.713,-83.7891 180.649,-63.368 192.628,-46.9893"/>
<polygon fill="green" stroke="green" stroke-width="0.114522" points="195.492,-49.0014 198.571,-38.8637 189.842,-44.869 195.492,-49.0014"/>
</g>
<!-- Duty -->
<g id="node3" class="node"><title>Duty</title>
<ellipse fill="lightblue" stroke="black" cx="92.7487" cy="-103.882" rx="25.4118" ry="25.4118"/>
<text text-anchor="middle" x="92.7487" y="-101.682" font-family="Times New Roman,serif" font-size="9.00">Duty</text>
</g>
<!-- 2138 -->
<g id="node4" class="node"><title>2138</title>
<ellipse fill="white" stroke="black" cx="24.7487" cy="-103.882" rx="25" ry="25"/>
<text text-anchor="middle" x="24.7487" y="-101.682" font-family="Times New Roman,serif" font-size="9.00">2138</text>
</g>
<!-- 4745 -->
<g id="node5" class="node"><title>4745</title>
<ellipse fill="white" stroke="black" cx="309.749" cy="-190.087" rx="25" ry="25"/>
<text text-anchor="middle" x="309.749" y="-187.887" font-family="Times New Roman,serif" font-size="9.00">4745</text>
</g>
<!-- 90 -->
<g id="node10" class="node"><title>90</title>
<ellipse fill="white" stroke="black" cx="309.749" cy="-103.882" rx="18.2703" ry="18.2703"/>
<text text-anchor="middle" x="309.749" y="-101.682" font-family="Times New Roman,serif" font-size="9.00">90</text>
</g>
<!-- 4745&#45;&gt;90 -->
<g id="edge1" class="edge"><title>4745&#45;&gt;90</title>
<path fill="none" stroke="green" stroke-width="0.205168" stroke-dasharray="1,5" d="M309.749,-165.182C309.749,-155.078 309.749,-143.242 309.749,-132.745"/>
<polygon fill="green" stroke="green" stroke-width="0.205168" points="313.249,-132.419 309.749,-122.419 306.249,-132.419 313.249,-132.419"/>
</g>
<!-- 8074 -->
<g id="node6" class="node"><title>8074</title>
<ellipse fill="white" stroke="black" cx="210.749" cy="-103.882" rx="25" ry="25"/>
<text text-anchor="middle" x="210.749" y="-101.682" font-family="Times New Roman,serif" font-size="9.00">8074</text>
</g>
<!-- 8074&#45;&gt;566 -->
<g id="edge10" class="edge"><title>8074&#45;&gt;566</title>
<path fill="none" stroke="green" stroke-width="0.696728" d="M210.749,-79.1152C210.749,-70.8549 210.749,-61.4726 210.749,-52.7427"/>
<polygon fill="green" stroke="green" stroke-width="0.696728" points="214.249,-52.5368 210.749,-42.5369 207.249,-52.5369 214.249,-52.5368"/>
</g>
<!-- 1398 -->
<g id="node7" class="node"><title>1398</title>
<ellipse fill="white" stroke="black" cx="91.7487" cy="-190.087" rx="25" ry="25"/>
<text text-anchor="middle" x="91.7487" y="-187.887" font-family="Times New Roman,serif" font-size="9.00">1398</text>
</g>
<!-- 1398&#45;&gt;Duty -->
<g id="edge12" class="edge"><title>1398&#45;&gt;Duty</title>
<path fill="none" stroke="red" stroke-width="0.37145" stroke-dasharray="1,5" d="M92.0326,-165.182C92.127,-157.232 92.2342,-148.209 92.3363,-139.61"/>
<polygon fill="red" stroke="red" stroke-width="0.37145" points="95.8381,-139.473 92.4572,-129.432 88.8386,-139.39 95.8381,-139.473"/>
</g>
<!-- 1398&#45;&gt;2138 -->
<g id="edge3" class="edge"><title>1398&#45;&gt;2138</title>
<path fill="none" stroke="green" stroke-width="0.438148" d="M76.5454,-169.98C67.6364,-158.783 56.2369,-144.456 46.4014,-132.095"/>
<polygon fill="green" stroke="green" stroke-width="0.438148" points="48.8571,-129.56 39.8919,-123.914 43.3795,-133.918 48.8571,-129.56"/>
</g>
<!-- 89&#45;&gt;Duty -->
<g id="edge7" class="edge"><title>89&#45;&gt;Duty</title>
<path fill="none" stroke="green" stroke-width="0.792209" d="M196.164,-178.748C179.397,-166.854 151.057,-146.725 126.749,-129.338 125.108,-128.164 123.423,-126.957 121.723,-125.739"/>
<polygon fill="green" stroke="green" stroke-width="0.792209" points="123.397,-122.632 113.232,-119.643 119.314,-128.318 123.397,-122.632"/>
</g>
<!-- 89&#45;&gt;8074 -->
<g id="edge2" class="edge"><title>89&#45;&gt;8074</title>
<path fill="none" stroke="green" stroke-width="0.100246" d="M210.749,-171.64C210.749,-162.124 210.749,-150.014 210.749,-138.729"/>
<polygon fill="green" stroke="green" stroke-width="0.100246" points="214.249,-138.694 210.749,-128.694 207.249,-138.694 214.249,-138.694"/>
</g>
<!-- 89&#45;&gt;566 -->
<g id="edge11" class="edge"><title>89&#45;&gt;566</title>
<path fill="none" stroke="green" stroke-width="0.557452" stroke-dasharray="1,5" d="M221.718,-174.803C229.86,-163.248 240.291,-146.183 244.749,-129.338 250.537,-107.464 250.827,-100.222 244.749,-78.4264 241.637,-67.2702 235.645,-56.1198 229.546,-46.7259"/>
<polygon fill="green" stroke="green" stroke-width="0.557452" points="232.31,-44.5679 223.757,-38.3147 226.543,-48.5366 232.31,-44.5679"/>
</g>
<!-- 89&#45;&gt;90 -->
<g id="edge5" class="edge"><title>89&#45;&gt;90</title>
<path fill="none" stroke="green" stroke-width="0.156797" d="M224.514,-177.379C241.064,-163.302 269.026,-139.519 288.387,-123.051"/>
<polygon fill="green" stroke="green" stroke-width="0.156797" points="290.75,-125.636 296.1,-116.491 286.215,-120.304 290.75,-125.636"/>
</g>
<!-- 3196&#45;&gt;2138 -->
<g id="edge8" class="edge"><title>3196&#45;&gt;2138</title>
<path fill="none" stroke="red" stroke-width="0.292361" d="M24.7487,-165.182C24.7487,-157.005 24.7487,-147.693 24.7487,-138.874"/>
<polygon fill="red" stroke="red" stroke-width="0.292361" points="28.2488,-138.846 24.7487,-128.846 21.2488,-138.846 28.2488,-138.846"/>
</g>
</g>
</svg>
