<?xml version="1.0" encoding="UTF-8" standalone="no"?>
<!DOCTYPE svg PUBLIC "-//W3C//DTD SVG 1.1//EN"
 "http://www.w3.org/Graphics/SVG/1.1/DTD/svg11.dtd">
<!-- Generated by graphviz version 2.38.0 (20140413.2041)
 -->
<!-- Title: %3 Pages: 1 -->
<svg width="202pt" height="170pt"
 viewBox="0.00 0.00 201.59 170.12" xmlns="http://www.w3.org/2000/svg" xmlns:xlink="http://www.w3.org/1999/xlink">
<g id="graph0" class="graph" transform="scale(1 1) rotate(0) translate(4 166.125)">
<title>%3</title>
<polygon fill="white" stroke="none" points="-4,4 -4,-166.125 197.592,-166.125 197.592,4 -4,4"/>
<!-- x -->
<g id="node1" class="node"><title>x</title>
<polygon fill="lightgray" stroke="black" points="71.7407,-162.125 51.7407,-162.125 51.7407,-144.125 71.7407,-144.125 71.7407,-162.125"/>
<text text-anchor="middle" x="61.7407" y="-150.925" font-family="Times New Roman,serif" font-size="9.00">x</text>
</g>
<!-- z -->
<g id="node3" class="node"><title>z</title>
<ellipse fill="lightblue" stroke="black" cx="96.7407" cy="-14.8492" rx="14.7" ry="14.7"/>
<text text-anchor="middle" x="96.7407" y="-12.6492" font-family="Times New Roman,serif" font-size="9.00">z</text>
</g>
<!-- x&#45;&gt;z -->
<g id="edge2" class="edge"><title>x&#45;&gt;z</title>
<path fill="none" stroke="green" stroke-width="0.134549" d="M51.7157,-147.603C38.5637,-141.045 16.0637,-127.522 6.74073,-108.125 -1.42755,-91.1298 -2.83217,-81.944 6.74073,-65.6985 20.8457,-41.7619 51.0367,-28.5098 72.5585,-21.7952"/>
<polygon fill="green" stroke="green" stroke-width="0.134549" points="73.6655,-25.1191 82.3189,-19.006 71.7421,-18.3885 73.6655,-25.1191"/>
</g>
<!-- 373 -->
<g id="node4" class="node"><title>373</title>
<ellipse fill="white" stroke="black" cx="36.7407" cy="-86.9117" rx="21.4286" ry="21.4286"/>
<text text-anchor="middle" x="36.7407" y="-84.7117" font-family="Times New Roman,serif" font-size="9.00">373</text>
</g>
<!-- x&#45;&gt;373 -->
<g id="edge4" class="edge"><title>x&#45;&gt;373</title>
<path fill="none" stroke="red" stroke-width="0.396851" d="M58.5745,-143.992C55.8463,-136.985 51.7399,-126.438 47.822,-116.374"/>
<polygon fill="red" stroke="red" stroke-width="0.396851" points="51.064,-115.054 44.1744,-107.005 44.5409,-117.594 51.064,-115.054"/>
</g>
<!-- 374 -->
<g id="node5" class="node"><title>374</title>
<ellipse fill="white" stroke="black" cx="96.7407" cy="-86.9117" rx="21.4286" ry="21.4286"/>
<text text-anchor="middle" x="96.7407" y="-84.7117" font-family="Times New Roman,serif" font-size="9.00">374</text>
</g>
<!-- x&#45;&gt;374 -->
<g id="edge8" class="edge"><title>x&#45;&gt;374</title>
<path fill="none" stroke="red" stroke-width="0.288626" d="M66.1735,-143.992C70.1855,-136.632 76.3264,-125.365 82.0544,-114.856"/>
<polygon fill="red" stroke="red" stroke-width="0.288626" points="85.2051,-116.389 86.9178,-105.933 79.0588,-113.039 85.2051,-116.389"/>
</g>
<!-- 375 -->
<g id="node6" class="node"><title>375</title>
<ellipse fill="white" stroke="black" cx="156.741" cy="-86.9117" rx="21.4286" ry="21.4286"/>
<text text-anchor="middle" x="156.741" y="-84.7117" font-family="Times New Roman,serif" font-size="9.00">375</text>
</g>
<!-- x&#45;&gt;375 -->
<g id="edge9" class="edge"><title>x&#45;&gt;375</title>
<path fill="none" stroke="green" stroke-width="0.124288" d="M71.9074,-145.253C85.9374,-135.77 111.706,-118.352 131.175,-105.192"/>
<polygon fill="green" stroke="green" stroke-width="0.124288" points="133.288,-107.989 139.613,-99.4891 129.368,-102.189 133.288,-107.989"/>
</g>
<!-- y -->
<g id="node2" class="node"><title>y</title>
<polygon fill="lightgray" stroke="black" points="137.741,-162.125 115.741,-162.125 115.741,-144.125 137.741,-144.125 137.741,-162.125"/>
<text text-anchor="middle" x="126.741" y="-150.925" font-family="Times New Roman,serif" font-size="9.00">y</text>
</g>
<!-- y&#45;&gt;z -->
<g id="edge6" class="edge"><title>y&#45;&gt;z</title>
<path fill="none" stroke="green" stroke-width="0.160816" d="M138.138,-147.645C152.514,-141.296 176.581,-128.174 186.741,-108.125 195.264,-91.305 196.314,-81.944 186.741,-65.6985 172.636,-41.7619 142.445,-28.5098 120.923,-21.7952"/>
<polygon fill="green" stroke="green" stroke-width="0.160816" points="121.739,-18.3885 111.163,-19.006 119.816,-25.1191 121.739,-18.3885"/>
</g>
<!-- y&#45;&gt;373 -->
<g id="edge5" class="edge"><title>y&#45;&gt;373</title>
<path fill="none" stroke="red" stroke-width="0.300438" d="M115.705,-144.251C102.393,-134.754 79.6022,-118.492 61.9166,-105.874"/>
<polygon fill="red" stroke="red" stroke-width="0.300438" points="63.882,-102.977 53.7087,-100.018 59.8163,-108.675 63.882,-102.977"/>
</g>
<!-- y&#45;&gt;374 -->
<g id="edge11" class="edge"><title>y&#45;&gt;374</title>
<path fill="none" stroke="red" stroke-width="0.234065" d="M122.941,-143.992C119.585,-136.809 114.492,-125.907 109.685,-115.619"/>
<polygon fill="red" stroke="red" stroke-width="0.234065" points="112.814,-114.046 105.41,-106.467 106.472,-117.009 112.814,-114.046"/>
</g>
<!-- y&#45;&gt;375 -->
<g id="edge7" class="edge"><title>y&#45;&gt;375</title>
<path fill="none" stroke="red" stroke-width="0.240194" d="M130.54,-143.992C133.896,-136.809 138.99,-125.907 143.796,-115.619"/>
<polygon fill="red" stroke="red" stroke-width="0.240194" points="147.01,-117.009 148.072,-106.467 140.668,-114.046 147.01,-117.009"/>
</g>
<!-- 373&#45;&gt;z -->
<g id="edge3" class="edge"><title>373&#45;&gt;z</title>
<path fill="none" stroke="green" stroke-width="0.117253" d="M50.0567,-70.3626C59.0805,-59.8254 71.0573,-45.84 80.6204,-34.6731"/>
<polygon fill="green" stroke="green" stroke-width="0.117253" points="83.5278,-36.6589 87.374,-26.7869 78.211,-32.1057 83.5278,-36.6589"/>
</g>
<!-- 374&#45;&gt;z -->
<g id="edge10" class="edge"><title>374&#45;&gt;z</title>
<path fill="none" stroke="red" stroke-width="0.234023" d="M96.7407,-65.6467C96.7407,-57.6662 96.7407,-48.4341 96.7407,-40.1031"/>
<polygon fill="red" stroke="red" stroke-width="0.234023" points="100.241,-39.8511 96.7407,-29.8512 93.2408,-39.8512 100.241,-39.8511"/>
</g>
<!-- 375&#45;&gt;z -->
<g id="edge1" class="edge"><title>375&#45;&gt;z</title>
<path fill="none" stroke="green" stroke-width="0.141152" d="M143.425,-70.3626C134.401,-59.8254 122.424,-45.84 112.861,-34.6731"/>
<polygon fill="green" stroke="green" stroke-width="0.141152" points="115.271,-32.1057 106.107,-26.7869 109.954,-36.6589 115.271,-32.1057"/>
</g>
</g>
</svg>
