<?xml version="1.0" encoding="utf-8" standalone="no"?>
<!DOCTYPE svg PUBLIC "-//W3C//DTD SVG 1.1//EN"
  "http://www.w3.org/Graphics/SVG/1.1/DTD/svg11.dtd">
<!-- Created with matplotlib (http://matplotlib.org/) -->
<svg height="288pt" version="1.1" viewBox="0 0 720 288" width="720pt" xmlns="http://www.w3.org/2000/svg" xmlns:xlink="http://www.w3.org/1999/xlink">
 <defs>
  <style type="text/css">
*{stroke-linecap:butt;stroke-linejoin:round;}
  </style>
 </defs>
 <g id="figure_1">
  <g id="patch_1">
   <path d="M 0 288 
L 720 288 
L 720 0 
L 0 0 
z
" style="fill:#ffffff;"/>
  </g>
  <g id="axes_1">
   <g id="patch_2">
    <path d="M 90 256.32 
L 343.636364 256.32 
L 343.636364 34.56 
L 90 34.56 
z
" style="fill:#ffffff;"/>
   </g>
   <g id="PathCollection_1">
    <path clip-path="url(#p73f12e57e8)" d="M 118.181818 256.32 
L 127.150625 256.32 
L 118.181818 244.652377 
L 90 232.400579 
L 90 256.32 
z
" style="fill:#481b6d;"/>
    <path clip-path="url(#p73f12e57e8)" d="M 343.636364 256.32 
L 343.636364 232.400579 
L 339.271105 256.32 
z
" style="fill:#481b6d;"/>
    <path clip-path="url(#p73f12e57e8)" d="M 315.454545 185.560449 
L 317.706679 182.4 
L 315.454545 180.274942 
L 312.923302 182.4 
z
" style="fill:#481b6d;"/>
    <path clip-path="url(#p73f12e57e8)" d="M 174.545455 161.072874 
L 180.682729 157.76 
L 174.545455 154.881321 
L 164.20888 157.76 
z
" style="fill:#481b6d;"/>
    <path clip-path="url(#p73f12e57e8)" d="M 287.272727 161.937396 
L 291.876516 157.76 
L 287.272727 154.006983 
L 282.275871 157.76 
z
" style="fill:#481b6d;"/>
    <path clip-path="url(#p73f12e57e8)" d="M 174.545455 112.210317 
L 182.726755 108.48 
L 174.545455 104.383199 
L 163.368103 108.48 
z
" style="fill:#481b6d;"/>
    <path clip-path="url(#p73f12e57e8)" d="M 287.272727 111.376914 
L 290.90319 108.48 
L 287.272727 105.36373 
L 283.483652 108.48 
z
" style="fill:#481b6d;"/>
    <path clip-path="url(#p73f12e57e8)" d="M 230.909091 84.846524 
L 232.257648 83.84 
L 230.909091 82.253748 
L 228.704366 83.84 
z
" style="fill:#481b6d;"/>
    <path clip-path="url(#p73f12e57e8)" d="M 315.454545 87.936801 
L 319.819804 83.84 
L 315.454545 78.758705 
L 310.850757 83.84 
z
" style="fill:#481b6d;"/>
    <path clip-path="url(#p73f12e57e8)" d="M 118.181818 38.345009 
L 127.150625 34.56 
L 118.181818 34.56 
L 90 34.56 
L 90 42.21039 
z
" style="fill:#481b6d;"/>
    <path clip-path="url(#p73f12e57e8)" d="M 343.636364 42.21039 
L 343.636364 34.56 
L 339.271105 34.56 
z
" style="fill:#481b6d;"/>
   </g>
   <g id="PathCollection_2">
    <path clip-path="url(#p73f12e57e8)" d="M 118.181818 244.652377 
L 127.150625 256.32 
L 145.704838 256.32 
L 127.143874 231.68 
L 118.181818 227.532154 
L 90 223.284493 
L 90 231.68 
L 90 232.400579 
z
" style="fill:#3f4788;"/>
    <path clip-path="url(#p73f12e57e8)" d="M 259.090909 249.385495 
L 264.746009 231.68 
L 260.391187 207.04 
L 259.090909 205.728261 
L 255.90272 207.04 
L 254.600333 231.68 
z
" style="fill:#3f4788;"/>
    <path clip-path="url(#p73f12e57e8)" d="M 343.636364 232.400579 
L 343.636364 231.68 
L 343.636364 223.284493 
L 338.267843 231.68 
L 334.905846 256.32 
L 339.271105 256.32 
z
" style="fill:#3f4788;"/>
    <path clip-path="url(#p73f12e57e8)" d="M 230.909091 189.809177 
L 235.399667 182.4 
L 230.909091 178.945605 
L 220.497383 182.4 
z
" style="fill:#3f4788;"/>
    <path clip-path="url(#p73f12e57e8)" d="M 315.454545 192.098626 
L 322.365779 182.4 
L 315.454545 175.878729 
L 307.686794 182.4 
z
M 312.923302 182.4 
L 315.454545 180.274942 
L 317.706679 182.4 
L 315.454545 185.560449 
z
" style="fill:#3f4788;"/>
    <path clip-path="url(#p73f12e57e8)" d="M 174.545455 165.540689 
L 188.959593 157.76 
L 174.545455 150.99907 
L 150.268746 157.76 
z
M 164.20888 157.76 
L 174.545455 154.881321 
L 180.682729 157.76 
L 174.545455 161.072874 
z
" style="fill:#3f4788;"/>
    <path clip-path="url(#p73f12e57e8)" d="M 287.272727 166.114791 
L 296.480304 157.76 
L 287.272727 150.253966 
L 277.279014 157.76 
z
M 282.275871 157.76 
L 287.272727 154.006983 
L 291.876516 157.76 
L 287.272727 161.937396 
z
" style="fill:#3f4788;"/>
    <path clip-path="url(#p73f12e57e8)" d="M 174.545455 115.940635 
L 190.908055 108.48 
L 174.545455 100.286399 
L 152.190752 108.48 
z
M 163.368103 108.48 
L 174.545455 104.383199 
L 182.726755 108.48 
L 174.545455 112.210317 
z
" style="fill:#3f4788;"/>
    <path clip-path="url(#p73f12e57e8)" d="M 287.272727 115.283757 
L 295.799311 108.48 
L 287.272727 101.161059 
L 278.373622 108.48 
z
M 283.483652 108.48 
L 287.272727 105.36373 
L 290.90319 108.48 
L 287.272727 111.376914 
z
" style="fill:#3f4788;"/>
    <path clip-path="url(#p73f12e57e8)" d="M 230.909091 89.29924 
L 238.223467 83.84 
L 230.909091 75.2364 
L 218.950983 83.84 
z
M 228.704366 83.84 
L 230.909091 82.253748 
L 232.257648 83.84 
L 230.909091 84.846524 
z
" style="fill:#3f4788;"/>
    <path clip-path="url(#p73f12e57e8)" d="M 315.454545 92.033601 
L 324.185063 83.84 
L 315.454545 73.67741 
L 306.246969 83.84 
z
M 310.850757 83.84 
L 315.454545 78.758705 
L 319.819804 83.84 
L 315.454545 87.936801 
z
" style="fill:#3f4788;"/>
    <path clip-path="url(#p73f12e57e8)" d="M 259.090909 64.548987 
L 264.45943 59.2 
L 259.090909 40.081967 
L 250.694049 59.2 
z
" style="fill:#3f4788;"/>
    <path clip-path="url(#p73f12e57e8)" d="M 118.181818 46.175242 
L 145.704838 34.56 
L 127.150625 34.56 
L 118.181818 38.345009 
L 90 42.21039 
L 90 49.860781 
z
" style="fill:#3f4788;"/>
    <path clip-path="url(#p73f12e57e8)" d="M 343.636364 49.860781 
L 343.636364 42.21039 
L 339.271105 34.56 
L 334.905846 34.56 
z
" style="fill:#3f4788;"/>
   </g>
   <g id="PathCollection_3">
    <path clip-path="url(#p73f12e57e8)" d="M 146.363636 256.32 
L 158.445533 256.32 
L 146.474724 231.68 
L 146.363636 231.596258 
L 118.181818 218.565018 
L 90 214.628214 
L 90 223.284493 
L 118.181818 227.532154 
L 127.143874 231.68 
L 145.704838 256.32 
z
" style="fill:#2e6e8e;"/>
    <path clip-path="url(#p73f12e57e8)" d="M 259.090909 256.32 
L 270.337358 256.32 
L 272.652458 231.68 
L 266.519295 207.04 
L 259.090909 199.546137 
L 240.877031 207.04 
L 248.322017 231.68 
L 253.940704 256.32 
z
M 254.600333 231.68 
L 255.90272 207.04 
L 259.090909 205.728261 
L 260.391187 207.04 
L 264.746009 231.68 
L 259.090909 249.385495 
z
" style="fill:#2e6e8e;"/>
    <path clip-path="url(#p73f12e57e8)" d="M 338.267843 231.68 
L 343.636364 223.284493 
L 343.636364 214.628214 
L 332.73257 231.68 
L 330.540587 256.32 
L 334.905846 256.32 
z
" style="fill:#2e6e8e;"/>
    <path clip-path="url(#p73f12e57e8)" d="M 230.909091 200.168016 
L 241.677983 182.4 
L 230.909091 174.115983 
L 205.940675 182.4 
z
M 220.497383 182.4 
L 230.909091 178.945605 
L 235.399667 182.4 
L 230.909091 189.809177 
z
" style="fill:#2e6e8e;"/>
    <path clip-path="url(#p73f12e57e8)" d="M 315.454545 198.636803 
L 327.024879 182.4 
L 315.454545 171.482517 
L 302.450285 182.4 
z
M 307.686794 182.4 
L 315.454545 175.878729 
L 322.365779 182.4 
L 315.454545 192.098626 
z
" style="fill:#2e6e8e;"/>
    <path clip-path="url(#p73f12e57e8)" d="M 146.363636 161.860963 
L 174.545455 170.008503 
L 197.236457 157.76 
L 174.545455 147.116819 
L 146.363636 152.682525 
L 131.697456 157.76 
z
M 150.268746 157.76 
L 174.545455 150.99907 
L 188.959593 157.76 
L 174.545455 165.540689 
z
" style="fill:#2e6e8e;"/>
    <path clip-path="url(#p73f12e57e8)" d="M 287.272727 170.292187 
L 301.084093 157.76 
L 287.272727 146.50095 
L 272.282158 157.76 
z
M 277.279014 157.76 
L 287.272727 150.253966 
L 296.480304 157.76 
L 287.272727 166.114791 
z
" style="fill:#2e6e8e;"/>
    <path clip-path="url(#p73f12e57e8)" d="M 230.909091 133.178108 
L 259.090909 136.901972 
L 262.426603 133.12 
L 259.090909 129.493385 
L 230.909091 133.060508 
L 230.836999 133.12 
z
" style="fill:#2e6e8e;"/>
    <path clip-path="url(#p73f12e57e8)" d="M 146.363636 112.106615 
L 174.545455 119.670952 
L 199.089355 108.48 
L 174.545455 96.189598 
L 146.363636 105.627022 
L 136.410188 108.48 
z
M 152.190752 108.48 
L 174.545455 100.286399 
L 190.908055 108.48 
L 174.545455 115.940635 
z
" style="fill:#2e6e8e;"/>
    <path clip-path="url(#p73f12e57e8)" d="M 287.272727 119.1906 
L 300.695433 108.48 
L 287.272727 96.958388 
L 273.263592 108.48 
z
M 278.373622 108.48 
L 287.272727 101.161059 
L 295.799311 108.48 
L 287.272727 115.283757 
z
" style="fill:#2e6e8e;"/>
    <path clip-path="url(#p73f12e57e8)" d="M 230.909091 93.751955 
L 244.189287 83.84 
L 259.090909 70.064119 
L 269.994702 59.2 
L 270.337358 34.56 
L 259.090909 34.56 
L 253.940704 34.56 
L 242.036374 59.2 
L 230.909091 68.219052 
L 209.1976 83.84 
z
M 218.950983 83.84 
L 230.909091 75.2364 
L 238.223467 83.84 
L 230.909091 89.29924 
z
M 250.694049 59.2 
L 259.090909 40.081967 
L 264.45943 59.2 
L 259.090909 64.548987 
z
" style="fill:#2e6e8e;"/>
    <path clip-path="url(#p73f12e57e8)" d="M 315.454545 96.130402 
L 328.550322 83.84 
L 315.454545 68.596115 
L 301.64318 83.84 
z
M 306.246969 83.84 
L 315.454545 73.67741 
L 324.185063 83.84 
L 315.454545 92.033601 
z
" style="fill:#2e6e8e;"/>
    <path clip-path="url(#p73f12e57e8)" d="M 118.181818 54.005476 
L 146.363636 43.006363 
L 158.445533 34.56 
L 146.363636 34.56 
L 145.704838 34.56 
L 118.181818 46.175242 
L 90 49.860781 
L 90 57.511171 
z
" style="fill:#2e6e8e;"/>
    <path clip-path="url(#p73f12e57e8)" d="M 343.636364 57.511171 
L 343.636364 49.860781 
L 334.905846 34.56 
L 330.540587 34.56 
z
" style="fill:#2e6e8e;"/>
   </g>
   <g id="PathCollection_4">
    <path clip-path="url(#p73f12e57e8)" d="M 160.351162 231.68 
L 146.363636 221.135604 
L 118.181818 209.597882 
L 98.509381 207.04 
L 90 205.909284 
L 90 207.04 
L 90 214.628214 
L 118.181818 218.565018 
L 146.363636 231.596258 
L 146.474724 231.68 
L 158.445533 256.32 
L 170.972211 256.32 
z
" style="fill:#21918c;"/>
    <path clip-path="url(#p73f12e57e8)" d="M 248.322017 231.68 
L 240.877031 207.04 
L 259.090909 199.546137 
L 266.519295 207.04 
L 272.652458 231.68 
L 270.337358 256.32 
L 285.96034 256.32 
L 280.558906 231.68 
L 272.647404 207.04 
L 259.090909 193.364013 
L 247.956299 182.4 
L 230.909091 169.286361 
L 206.210741 157.76 
L 202.727273 154.385781 
L 174.545455 143.234568 
L 146.363636 145.629161 
L 118.181818 150.765363 
L 95.628427 157.76 
L 118.181818 160.550749 
L 146.363636 167.557807 
L 174.545455 174.476318 
L 194.124532 182.4 
L 202.727273 188.464952 
L 227.425623 207.04 
L 230.909091 210.970598 
L 242.043701 231.68 
L 246.786306 256.32 
L 253.940704 256.32 
z
M 205.940675 182.4 
L 230.909091 174.115983 
L 241.677983 182.4 
L 230.909091 200.168016 
z
M 131.697456 157.76 
L 146.363636 152.682525 
L 174.545455 147.116819 
L 197.236457 157.76 
L 174.545455 170.008503 
L 146.363636 161.860963 
z
" style="fill:#21918c;"/>
    <path clip-path="url(#p73f12e57e8)" d="M 332.73257 231.68 
L 343.636364 214.628214 
L 343.636364 207.04 
L 343.636364 205.909284 
L 331.683979 182.4 
L 315.454545 167.086304 
L 305.687881 157.76 
L 287.272727 142.747933 
L 269.395311 133.12 
L 287.272727 123.097443 
L 305.591555 108.48 
L 315.454545 100.227202 
L 332.91558 83.84 
L 343.636364 65.134968 
L 343.636364 59.2 
L 343.636364 57.511171 
L 330.540587 34.56 
L 326.175329 34.56 
L 330.150384 59.2 
L 315.454545 63.51482 
L 297.039392 83.84 
L 287.272727 92.755717 
L 268.153562 108.48 
L 259.090909 121.916906 
L 230.909091 125.629107 
L 221.83163 133.12 
L 230.909091 140.436691 
L 259.090909 144.803011 
L 267.285301 157.76 
L 287.272727 174.469582 
L 297.213777 182.4 
L 315.454545 205.17498 
L 335.126983 207.04 
L 327.197298 231.68 
L 326.175329 256.32 
L 330.540587 256.32 
z
M 302.450285 182.4 
L 315.454545 171.482517 
L 327.024879 182.4 
L 315.454545 198.636803 
z
M 272.282158 157.76 
L 287.272727 146.50095 
L 301.084093 157.76 
L 287.272727 170.292187 
z
M 230.836999 133.12 
L 230.909091 133.060508 
L 259.090909 129.493385 
L 262.426603 133.12 
L 259.090909 136.901972 
L 230.909091 133.178108 
z
M 273.263592 108.48 
L 287.272727 96.958388 
L 300.695433 108.48 
L 287.272727 119.1906 
z
M 301.64318 83.84 
L 315.454545 68.596115 
L 328.550322 83.84 
L 315.454545 96.130402 
z
" style="fill:#21918c;"/>
    <path clip-path="url(#p73f12e57e8)" d="M 315.454545 136.494219 
L 327.070397 133.12 
L 315.454545 129.592227 
L 312.18569 133.12 
z
" style="fill:#21918c;"/>
    <path clip-path="url(#p73f12e57e8)" d="M 118.181818 111.606066 
L 146.363636 119.683094 
L 174.545455 123.40127 
L 202.727273 113.591935 
L 208.193729 108.48 
L 230.909091 98.204671 
L 250.155106 83.84 
L 259.090909 75.579251 
L 275.529975 59.2 
L 285.96034 34.56 
L 270.337358 34.56 
L 269.994702 59.2 
L 259.090909 70.064119 
L 244.189287 83.84 
L 230.909091 93.751955 
L 209.1976 83.84 
L 230.909091 68.219052 
L 242.036374 59.2 
L 253.940704 34.56 
L 246.786306 34.56 
L 233.378699 59.2 
L 230.909091 61.201704 
L 202.727273 80.981966 
L 198.692409 83.84 
L 174.545455 92.092798 
L 146.363636 99.666773 
L 118.181818 107.349284 
L 109.672437 108.48 
z
M 136.410188 108.48 
L 146.363636 105.627022 
L 174.545455 96.189598 
L 199.089355 108.48 
L 174.545455 119.670952 
L 146.363636 112.106615 
z
" style="fill:#21918c;"/>
    <path clip-path="url(#p73f12e57e8)" d="M 118.181818 62.058034 
L 126.181883 59.2 
L 146.363636 51.763668 
L 170.972211 34.56 
L 158.445533 34.56 
L 146.363636 43.006363 
L 118.181818 54.005476 
L 90 57.511171 
L 90 59.2 
L 90 65.134968 
z
" style="fill:#21918c;"/>
   </g>
   <g id="PathCollection_5">
    <path clip-path="url(#p73f12e57e8)" d="M 174.545455 256.32 
L 184.505352 256.32 
L 174.545455 232.445131 
L 174.227601 231.68 
L 146.363636 210.674951 
L 137.144564 207.04 
L 118.181818 199.546101 
L 90 196.745247 
L 90 205.909284 
L 98.509381 207.04 
L 118.181818 209.597882 
L 146.363636 221.135604 
L 160.351162 231.68 
L 170.972211 256.32 
z
" style="fill:#2db27d;"/>
    <path clip-path="url(#p73f12e57e8)" d="M 242.043701 231.68 
L 230.909091 210.970598 
L 227.425623 207.04 
L 202.727273 188.464952 
L 194.124532 182.4 
L 174.545455 174.476318 
L 146.363636 167.557807 
L 118.181818 160.550749 
L 95.628427 157.76 
L 118.181818 150.765363 
L 146.363636 145.629161 
L 174.545455 143.234568 
L 202.727273 154.385781 
L 206.210741 157.76 
L 230.909091 169.286361 
L 247.956299 182.4 
L 259.090909 193.364013 
L 272.647404 207.04 
L 280.558906 231.68 
L 285.96034 256.32 
L 287.272727 256.32 
L 298.156037 256.32 
L 290.613975 231.68 
L 287.272727 229.262502 
L 278.775512 207.04 
L 259.090909 187.181889 
L 254.234615 182.4 
L 230.909091 164.456738 
L 216.559515 157.76 
L 230.909091 147.695273 
L 259.090909 152.70405 
L 262.288445 157.76 
L 287.272727 178.646978 
L 291.977269 182.4 
L 305.868816 207.04 
L 315.454545 216.631285 
L 321.662025 231.68 
L 321.81007 256.32 
L 326.175329 256.32 
L 327.197298 231.68 
L 335.126983 207.04 
L 315.454545 205.17498 
L 297.213777 182.4 
L 287.272727 174.469582 
L 267.285301 157.76 
L 259.090909 144.803011 
L 230.909091 140.436691 
L 221.83163 133.12 
L 230.909091 125.629107 
L 259.090909 121.916906 
L 268.153562 108.48 
L 287.272727 92.755717 
L 297.039392 83.84 
L 315.454545 63.51482 
L 330.150384 59.2 
L 326.175329 34.56 
L 321.81007 34.56 
L 315.454545 56.886823 
L 312.113298 59.2 
L 292.435603 83.84 
L 287.272727 88.553046 
L 263.043531 108.48 
L 259.090909 114.340427 
L 230.909091 118.197705 
L 218.037215 108.48 
L 230.909091 102.657387 
L 256.120925 83.84 
L 259.090909 81.094383 
L 281.065247 59.2 
L 287.272727 45.637717 
L 298.156037 34.56 
L 287.272727 34.56 
L 285.96034 34.56 
L 275.529975 59.2 
L 259.090909 75.579251 
L 250.155106 83.84 
L 230.909091 98.204671 
L 208.193729 108.48 
L 202.727273 113.591935 
L 174.545455 123.40127 
L 146.363636 119.683094 
L 118.181818 111.606066 
L 109.672437 108.48 
L 118.181818 107.349284 
L 146.363636 99.666773 
L 174.545455 92.092798 
L 198.692409 83.84 
L 202.727273 80.981966 
L 230.909091 61.201704 
L 233.378699 59.2 
L 246.786306 34.56 
L 239.631909 34.56 
L 230.909091 50.093661 
L 222.074991 59.2 
L 202.727273 72.491246 
L 186.705534 83.84 
L 174.545455 87.995997 
L 146.363636 93.706523 
L 118.181818 98.185247 
L 90 100.366689 
L 90 108.48 
L 90 133.12 
L 90 157.76 
L 90 166.855801 
L 118.181818 168.841578 
L 146.363636 173.254651 
L 174.545455 178.944133 
L 183.084753 182.4 
L 202.727273 196.248021 
L 217.076849 207.04 
L 230.909091 222.647717 
L 235.765385 231.68 
L 239.631909 256.32 
L 246.786306 256.32 
z
M 122.780764 133.12 
L 146.363636 127.259573 
L 174.545455 127.131587 
L 202.727273 122.797031 
L 212.82626 133.12 
L 202.727273 144.361564 
L 174.545455 139.352317 
L 146.363636 138.575796 
z
" style="fill:#2db27d;"/>
    <path clip-path="url(#p73f12e57e8)" d="M 343.636364 205.909284 
L 343.636364 196.745247 
L 336.343079 182.4 
L 343.636364 166.855801 
L 343.636364 157.76 
L 343.636364 133.12 
L 343.636364 108.48 
L 343.636364 100.366689 
L 337.280839 83.84 
L 343.636364 72.751231 
L 343.636364 65.134968 
L 332.91558 83.84 
L 315.454545 100.227202 
L 305.591555 108.48 
L 287.272727 123.097443 
L 269.395311 133.12 
L 287.272727 142.747933 
L 305.687881 157.76 
L 315.454545 167.086304 
L 331.683979 182.4 
z
M 310.29167 157.76 
L 315.454545 146.518436 
L 330.966307 157.76 
L 315.454545 162.690092 
z
M 276.364018 133.12 
L 287.272727 127.004286 
L 302.474492 133.12 
L 287.272727 138.994916 
z
M 312.18569 133.12 
L 315.454545 129.592227 
L 327.070397 133.12 
L 315.454545 136.494219 
z
M 310.487677 108.48 
L 315.454545 104.324003 
L 331.987654 108.48 
L 315.454545 119.111832 
z
" style="fill:#2db27d;"/>
    <path clip-path="url(#p73f12e57e8)" d="M 118.181818 70.548754 
L 146.363636 61.257743 
L 149.466413 59.2 
L 174.545455 43.666339 
L 184.505352 34.56 
L 174.545455 34.56 
L 170.972211 34.56 
L 146.363636 51.763668 
L 126.181883 59.2 
L 118.181818 62.058034 
L 90 65.134968 
L 90 72.751231 
z
" style="fill:#2db27d;"/>
   </g>
   <g id="PathCollection_6">
    <path clip-path="url(#p73f12e57e8)" d="M 174.545455 232.445131 
L 184.505352 256.32 
L 198.440166 256.32 
L 192.397422 231.68 
L 174.545455 214.879483 
L 162.95352 207.04 
L 146.363636 194.257934 
L 118.181818 189.061446 
L 90 187.581209 
L 90 196.745247 
L 118.181818 199.546101 
L 137.144564 207.04 
L 146.363636 210.674951 
L 174.227601 231.68 
z
" style="fill:#73d056;"/>
    <path clip-path="url(#p73f12e57e8)" d="M 230.909091 244.201019 
L 232.477512 256.32 
L 239.631909 256.32 
L 235.765385 231.68 
L 230.909091 222.647717 
L 217.076849 207.04 
L 202.727273 196.248021 
L 183.084753 182.4 
L 174.545455 178.944133 
L 146.363636 173.254651 
L 118.181818 168.841578 
L 90 166.855801 
L 90 176.785753 
L 118.181818 177.132406 
L 146.363636 178.951495 
L 166.871915 182.4 
L 174.545455 190.577968 
L 202.727273 204.031091 
L 206.728075 207.04 
L 222.848416 231.68 
z
" style="fill:#73d056;"/>
    <path clip-path="url(#p73f12e57e8)" d="M 312.764562 231.68 
L 315.454545 230.050376 
L 316.126753 231.68 
L 317.444811 256.32 
L 321.81007 256.32 
L 321.662025 231.68 
L 315.454545 216.631285 
L 305.868816 207.04 
L 291.977269 182.4 
L 287.272727 178.646978 
L 262.288445 157.76 
L 259.090909 152.70405 
L 230.909091 147.695273 
L 216.559515 157.76 
L 230.909091 164.456738 
L 254.234615 182.4 
L 259.090909 187.181889 
L 278.775512 207.04 
L 287.272727 229.262502 
L 290.613975 231.68 
L 298.156037 256.32 
L 310.037427 256.32 
z
M 284.90362 207.04 
L 287.272727 187.527421 
L 292.457499 207.04 
L 287.272727 213.235851 
z
M 226.908289 157.76 
L 230.909091 154.953856 
L 245.500206 157.76 
L 230.909091 159.627116 
z
" style="fill:#73d056;"/>
    <path clip-path="url(#p73f12e57e8)" d="M 343.636364 196.745247 
L 343.636364 187.581209 
L 341.002178 182.4 
L 343.636364 176.785753 
L 343.636364 166.855801 
L 336.343079 182.4 
z
" style="fill:#73d056;"/>
    <path clip-path="url(#p73f12e57e8)" d="M 315.454545 162.690092 
L 330.966307 157.76 
L 315.454545 146.518436 
L 310.29167 157.76 
z
M 314.895458 157.76 
L 315.454545 156.542652 
L 317.134313 157.76 
L 315.454545 158.293879 
z
" style="fill:#73d056;"/>
    <path clip-path="url(#p73f12e57e8)" d="M 146.363636 138.575796 
L 174.545455 139.352317 
L 202.727273 144.361564 
L 212.82626 133.12 
L 202.727273 122.797031 
L 174.545455 127.131587 
L 146.363636 127.259573 
L 122.780764 133.12 
z
M 154.037176 133.12 
L 174.545455 130.861904 
L 202.727273 132.002127 
L 203.820891 133.12 
L 202.727273 134.337348 
L 174.545455 135.470066 
z
" style="fill:#73d056;"/>
    <path clip-path="url(#p73f12e57e8)" d="M 287.272727 138.994916 
L 302.474492 133.12 
L 287.272727 127.004286 
L 276.364018 133.12 
z
M 283.332725 133.12 
L 287.272727 130.911129 
L 292.763293 133.12 
L 287.272727 135.241899 
z
" style="fill:#73d056;"/>
    <path clip-path="url(#p73f12e57e8)" d="M 230.909091 118.197705 
L 259.090909 114.340427 
L 263.043531 108.48 
L 287.272727 88.553046 
L 292.435603 83.84 
L 312.113298 59.2 
L 315.454545 56.886823 
L 321.81007 34.56 
L 317.444811 34.56 
L 315.454545 41.551762 
L 310.037427 34.56 
L 298.156037 34.56 
L 287.272727 45.637717 
L 281.065247 59.2 
L 259.090909 81.094383 
L 256.120925 83.84 
L 230.909091 102.657387 
L 218.037215 108.48 
z
M 227.8807 108.48 
L 230.909091 107.110103 
L 247.140922 108.48 
L 230.909091 110.766303 
z
M 281.784626 83.84 
L 286.60052 59.2 
L 287.272727 57.731342 
L 289.96271 59.2 
L 287.831815 83.84 
L 287.272727 84.350375 
z
" style="fill:#73d056;"/>
    <path clip-path="url(#p73f12e57e8)" d="M 315.454545 119.111832 
L 331.987654 108.48 
L 315.454545 104.324003 
L 310.487677 108.48 
z
M 315.383799 108.48 
L 315.454545 108.420803 
L 315.690038 108.48 
L 315.454545 108.631436 
z
" style="fill:#73d056;"/>
    <path clip-path="url(#p73f12e57e8)" d="M 118.181818 98.185247 
L 146.363636 93.706523 
L 174.545455 87.995997 
L 186.705534 83.84 
L 202.727273 72.491246 
L 222.074991 59.2 
L 230.909091 50.093661 
L 239.631909 34.56 
L 232.477512 34.56 
L 230.909091 37.353055 
L 209.715272 59.2 
L 202.727273 64.000526 
L 174.718659 83.84 
L 174.545455 83.899197 
L 146.363636 87.746274 
L 118.181818 89.021209 
L 90 89.015419 
L 90 100.366689 
z
" style="fill:#73d056;"/>
    <path clip-path="url(#p73f12e57e8)" d="M 343.636364 100.366689 
L 343.636364 89.015419 
L 341.646098 83.84 
L 343.636364 80.367494 
L 343.636364 72.751231 
L 337.280839 83.84 
z
" style="fill:#73d056;"/>
    <path clip-path="url(#p73f12e57e8)" d="M 118.181818 79.039474 
L 146.363636 74.899415 
L 170.036076 59.2 
L 174.545455 56.406945 
L 198.440166 34.56 
L 184.505352 34.56 
L 174.545455 43.666339 
L 149.466413 59.2 
L 146.363636 61.257743 
L 118.181818 70.548754 
L 90 72.751231 
L 90 80.367494 
z
" style="fill:#73d056;"/>
   </g>
   <g id="PathCollection_7">
    <path clip-path="url(#p73f12e57e8)" d="M 202.727273 256.32 
L 230.909091 256.32 
L 232.477512 256.32 
L 230.909091 244.201019 
L 222.848416 231.68 
L 206.728075 207.04 
L 202.727273 204.031091 
L 174.545455 190.577968 
L 166.871915 182.4 
L 146.363636 178.951495 
L 118.181818 177.132406 
L 90 176.785753 
L 90 182.4 
L 90 187.581209 
L 118.181818 189.061446 
L 146.363636 194.257934 
L 162.95352 207.04 
L 174.545455 214.879483 
L 192.397422 231.68 
L 198.440166 256.32 
z
" style="fill:#d0e11c;"/>
    <path clip-path="url(#p73f12e57e8)" d="M 315.454545 256.32 
L 317.444811 256.32 
L 316.126753 231.68 
L 315.454545 230.050376 
L 312.764562 231.68 
L 310.037427 256.32 
z
" style="fill:#d0e11c;"/>
    <path clip-path="url(#p73f12e57e8)" d="M 287.272727 213.235851 
L 292.457499 207.04 
L 287.272727 187.527421 
L 284.90362 207.04 
z
" style="fill:#d0e11c;"/>
    <path clip-path="url(#p73f12e57e8)" d="M 343.636364 187.581209 
L 343.636364 182.4 
L 343.636364 176.785753 
L 341.002178 182.4 
z
" style="fill:#d0e11c;"/>
    <path clip-path="url(#p73f12e57e8)" d="M 230.909091 159.627116 
L 245.500206 157.76 
L 230.909091 154.953856 
L 226.908289 157.76 
z
" style="fill:#d0e11c;"/>
    <path clip-path="url(#p73f12e57e8)" d="M 315.454545 158.293879 
L 317.134313 157.76 
L 315.454545 156.542652 
L 314.895458 157.76 
z
" style="fill:#d0e11c;"/>
    <path clip-path="url(#p73f12e57e8)" d="M 174.545455 135.470066 
L 202.727273 134.337348 
L 203.820891 133.12 
L 202.727273 132.002127 
L 174.545455 130.861904 
L 154.037176 133.12 
z
" style="fill:#d0e11c;"/>
    <path clip-path="url(#p73f12e57e8)" d="M 287.272727 135.241899 
L 292.763293 133.12 
L 287.272727 130.911129 
L 283.332725 133.12 
z
" style="fill:#d0e11c;"/>
    <path clip-path="url(#p73f12e57e8)" d="M 230.909091 110.766303 
L 247.140922 108.48 
L 230.909091 107.110103 
L 227.8807 108.48 
z
" style="fill:#d0e11c;"/>
    <path clip-path="url(#p73f12e57e8)" d="M 315.454545 108.631436 
L 315.690038 108.48 
L 315.454545 108.420803 
L 315.383799 108.48 
z
" style="fill:#d0e11c;"/>
    <path clip-path="url(#p73f12e57e8)" d="M 118.181818 89.021209 
L 146.363636 87.746274 
L 174.545455 83.899197 
L 174.718659 83.84 
L 202.727273 64.000526 
L 209.715272 59.2 
L 230.909091 37.353055 
L 232.477512 34.56 
L 230.909091 34.56 
L 202.727273 34.56 
L 198.440166 34.56 
L 174.545455 56.406945 
L 170.036076 59.2 
L 146.363636 74.899415 
L 118.181818 79.039474 
L 90 80.367494 
L 90 83.84 
L 90 89.015419 
z
" style="fill:#d0e11c;"/>
    <path clip-path="url(#p73f12e57e8)" d="M 287.272727 84.350375 
L 287.831815 83.84 
L 289.96271 59.2 
L 287.272727 57.731342 
L 286.60052 59.2 
L 281.784626 83.84 
z
" style="fill:#d0e11c;"/>
    <path clip-path="url(#p73f12e57e8)" d="M 343.636364 89.015419 
L 343.636364 83.84 
L 343.636364 80.367494 
L 341.646098 83.84 
z
" style="fill:#d0e11c;"/>
    <path clip-path="url(#p73f12e57e8)" d="M 315.454545 41.551762 
L 317.444811 34.56 
L 315.454545 34.56 
L 310.037427 34.56 
z
" style="fill:#d0e11c;"/>
   </g>
   <g id="matplotlib.axis_1">
    <g id="xtick_1">
     <g id="line2d_1">
      <defs>
       <path d="M 0 0 
L 0 3.5 
" id="m49a7f6d26a" style="stroke:#000000;stroke-width:0.8;"/>
      </defs>
      <g>
       <use style="stroke:#000000;stroke-width:0.8;" x="90" xlink:href="#m49a7f6d26a" y="256.32"/>
      </g>
     </g>
     <g id="text_1">
      <!-- 0.0 -->
      <defs>
       <path d="M 31.78125 66.40625 
Q 24.171875 66.40625 20.328125 58.90625 
Q 16.5 51.421875 16.5 36.375 
Q 16.5 21.390625 20.328125 13.890625 
Q 24.171875 6.390625 31.78125 6.390625 
Q 39.453125 6.390625 43.28125 13.890625 
Q 47.125 21.390625 47.125 36.375 
Q 47.125 51.421875 43.28125 58.90625 
Q 39.453125 66.40625 31.78125 66.40625 
z
M 31.78125 74.21875 
Q 44.046875 74.21875 50.515625 64.515625 
Q 56.984375 54.828125 56.984375 36.375 
Q 56.984375 17.96875 50.515625 8.265625 
Q 44.046875 -1.421875 31.78125 -1.421875 
Q 19.53125 -1.421875 13.0625 8.265625 
Q 6.59375 17.96875 6.59375 36.375 
Q 6.59375 54.828125 13.0625 64.515625 
Q 19.53125 74.21875 31.78125 74.21875 
z
" id="DejaVuSans-30"/>
       <path d="M 10.6875 12.40625 
L 21 12.40625 
L 21 0 
L 10.6875 0 
z
" id="DejaVuSans-2e"/>
      </defs>
      <g transform="translate(82.048438 270.918437)scale(0.1 -0.1)">
       <use xlink:href="#DejaVuSans-30"/>
       <use x="63.623047" xlink:href="#DejaVuSans-2e"/>
       <use x="95.410156" xlink:href="#DejaVuSans-30"/>
      </g>
     </g>
    </g>
    <g id="xtick_2">
     <g id="line2d_2">
      <g>
       <use style="stroke:#000000;stroke-width:0.8;" x="140.593135" xlink:href="#m49a7f6d26a" y="256.32"/>
      </g>
     </g>
     <g id="text_2">
      <!-- 0.5 -->
      <defs>
       <path d="M 10.796875 72.90625 
L 49.515625 72.90625 
L 49.515625 64.59375 
L 19.828125 64.59375 
L 19.828125 46.734375 
Q 21.96875 47.46875 24.109375 47.828125 
Q 26.265625 48.1875 28.421875 48.1875 
Q 40.625 48.1875 47.75 41.5 
Q 54.890625 34.8125 54.890625 23.390625 
Q 54.890625 11.625 47.5625 5.09375 
Q 40.234375 -1.421875 26.90625 -1.421875 
Q 22.3125 -1.421875 17.546875 -0.640625 
Q 12.796875 0.140625 7.71875 1.703125 
L 7.71875 11.625 
Q 12.109375 9.234375 16.796875 8.0625 
Q 21.484375 6.890625 26.703125 6.890625 
Q 35.15625 6.890625 40.078125 11.328125 
Q 45.015625 15.765625 45.015625 23.390625 
Q 45.015625 31 40.078125 35.4375 
Q 35.15625 39.890625 26.703125 39.890625 
Q 22.75 39.890625 18.8125 39.015625 
Q 14.890625 38.140625 10.796875 36.28125 
z
" id="DejaVuSans-35"/>
      </defs>
      <g transform="translate(132.641572 270.918437)scale(0.1 -0.1)">
       <use xlink:href="#DejaVuSans-30"/>
       <use x="63.623047" xlink:href="#DejaVuSans-2e"/>
       <use x="95.410156" xlink:href="#DejaVuSans-35"/>
      </g>
     </g>
    </g>
    <g id="xtick_3">
     <g id="line2d_3">
      <g>
       <use style="stroke:#000000;stroke-width:0.8;" x="191.186269" xlink:href="#m49a7f6d26a" y="256.32"/>
      </g>
     </g>
     <g id="text_3">
      <!-- 1.0 -->
      <defs>
       <path d="M 12.40625 8.296875 
L 28.515625 8.296875 
L 28.515625 63.921875 
L 10.984375 60.40625 
L 10.984375 69.390625 
L 28.421875 72.90625 
L 38.28125 72.90625 
L 38.28125 8.296875 
L 54.390625 8.296875 
L 54.390625 0 
L 12.40625 0 
z
" id="DejaVuSans-31"/>
      </defs>
      <g transform="translate(183.234707 270.918437)scale(0.1 -0.1)">
       <use xlink:href="#DejaVuSans-31"/>
       <use x="63.623047" xlink:href="#DejaVuSans-2e"/>
       <use x="95.410156" xlink:href="#DejaVuSans-30"/>
      </g>
     </g>
    </g>
    <g id="xtick_4">
     <g id="line2d_4">
      <g>
       <use style="stroke:#000000;stroke-width:0.8;" x="241.779404" xlink:href="#m49a7f6d26a" y="256.32"/>
      </g>
     </g>
     <g id="text_4">
      <!-- 1.5 -->
      <g transform="translate(233.827841 270.918437)scale(0.1 -0.1)">
       <use xlink:href="#DejaVuSans-31"/>
       <use x="63.623047" xlink:href="#DejaVuSans-2e"/>
       <use x="95.410156" xlink:href="#DejaVuSans-35"/>
      </g>
     </g>
    </g>
    <g id="xtick_5">
     <g id="line2d_5">
      <g>
       <use style="stroke:#000000;stroke-width:0.8;" x="292.372539" xlink:href="#m49a7f6d26a" y="256.32"/>
      </g>
     </g>
     <g id="text_5">
      <!-- 2.0 -->
      <defs>
       <path d="M 19.1875 8.296875 
L 53.609375 8.296875 
L 53.609375 0 
L 7.328125 0 
L 7.328125 8.296875 
Q 12.9375 14.109375 22.625 23.890625 
Q 32.328125 33.6875 34.8125 36.53125 
Q 39.546875 41.84375 41.421875 45.53125 
Q 43.3125 49.21875 43.3125 52.78125 
Q 43.3125 58.59375 39.234375 62.25 
Q 35.15625 65.921875 28.609375 65.921875 
Q 23.96875 65.921875 18.8125 64.3125 
Q 13.671875 62.703125 7.8125 59.421875 
L 7.8125 69.390625 
Q 13.765625 71.78125 18.9375 73 
Q 24.125 74.21875 28.421875 74.21875 
Q 39.75 74.21875 46.484375 68.546875 
Q 53.21875 62.890625 53.21875 53.421875 
Q 53.21875 48.921875 51.53125 44.890625 
Q 49.859375 40.875 45.40625 35.40625 
Q 44.1875 33.984375 37.640625 27.21875 
Q 31.109375 20.453125 19.1875 8.296875 
z
" id="DejaVuSans-32"/>
      </defs>
      <g transform="translate(284.420976 270.918437)scale(0.1 -0.1)">
       <use xlink:href="#DejaVuSans-32"/>
       <use x="63.623047" xlink:href="#DejaVuSans-2e"/>
       <use x="95.410156" xlink:href="#DejaVuSans-30"/>
      </g>
     </g>
    </g>
    <g id="xtick_6">
     <g id="line2d_6">
      <g>
       <use style="stroke:#000000;stroke-width:0.8;" x="342.965673" xlink:href="#m49a7f6d26a" y="256.32"/>
      </g>
     </g>
     <g id="text_6">
      <!-- 2.5 -->
      <g transform="translate(335.014111 270.918437)scale(0.1 -0.1)">
       <use xlink:href="#DejaVuSans-32"/>
       <use x="63.623047" xlink:href="#DejaVuSans-2e"/>
       <use x="95.410156" xlink:href="#DejaVuSans-35"/>
      </g>
     </g>
    </g>
   </g>
   <g id="matplotlib.axis_2">
    <g id="ytick_1">
     <g id="line2d_7">
      <defs>
       <path d="M 0 0 
L -3.5 0 
" id="m15b518834a" style="stroke:#000000;stroke-width:0.8;"/>
      </defs>
      <g>
       <use style="stroke:#000000;stroke-width:0.8;" x="90" xlink:href="#m15b518834a" y="256.32"/>
      </g>
     </g>
     <g id="text_7">
      <!-- 0.0 -->
      <g transform="translate(67.096875 260.119219)scale(0.1 -0.1)">
       <use xlink:href="#DejaVuSans-30"/>
       <use x="63.623047" xlink:href="#DejaVuSans-2e"/>
       <use x="95.410156" xlink:href="#DejaVuSans-30"/>
      </g>
     </g>
    </g>
    <g id="ytick_2">
     <g id="line2d_8">
      <g>
       <use style="stroke:#000000;stroke-width:0.8;" x="90" xlink:href="#m15b518834a" y="212.08528"/>
      </g>
     </g>
     <g id="text_8">
      <!-- 0.5 -->
      <g transform="translate(67.096875 215.884499)scale(0.1 -0.1)">
       <use xlink:href="#DejaVuSans-30"/>
       <use x="63.623047" xlink:href="#DejaVuSans-2e"/>
       <use x="95.410156" xlink:href="#DejaVuSans-35"/>
      </g>
     </g>
    </g>
    <g id="ytick_3">
     <g id="line2d_9">
      <g>
       <use style="stroke:#000000;stroke-width:0.8;" x="90" xlink:href="#m15b518834a" y="167.85056"/>
      </g>
     </g>
     <g id="text_9">
      <!-- 1.0 -->
      <g transform="translate(67.096875 171.649779)scale(0.1 -0.1)">
       <use xlink:href="#DejaVuSans-31"/>
       <use x="63.623047" xlink:href="#DejaVuSans-2e"/>
       <use x="95.410156" xlink:href="#DejaVuSans-30"/>
      </g>
     </g>
    </g>
    <g id="ytick_4">
     <g id="line2d_10">
      <g>
       <use style="stroke:#000000;stroke-width:0.8;" x="90" xlink:href="#m15b518834a" y="123.61584"/>
      </g>
     </g>
     <g id="text_10">
      <!-- 1.5 -->
      <g transform="translate(67.096875 127.415059)scale(0.1 -0.1)">
       <use xlink:href="#DejaVuSans-31"/>
       <use x="63.623047" xlink:href="#DejaVuSans-2e"/>
       <use x="95.410156" xlink:href="#DejaVuSans-35"/>
      </g>
     </g>
    </g>
    <g id="ytick_5">
     <g id="line2d_11">
      <g>
       <use style="stroke:#000000;stroke-width:0.8;" x="90" xlink:href="#m15b518834a" y="79.38112"/>
      </g>
     </g>
     <g id="text_11">
      <!-- 2.0 -->
      <g transform="translate(67.096875 83.180339)scale(0.1 -0.1)">
       <use xlink:href="#DejaVuSans-32"/>
       <use x="63.623047" xlink:href="#DejaVuSans-2e"/>
       <use x="95.410156" xlink:href="#DejaVuSans-30"/>
      </g>
     </g>
    </g>
    <g id="ytick_6">
     <g id="line2d_12">
      <g>
       <use style="stroke:#000000;stroke-width:0.8;" x="90" xlink:href="#m15b518834a" y="35.1464"/>
      </g>
     </g>
     <g id="text_12">
      <!-- 2.5 -->
      <g transform="translate(67.096875 38.945618)scale(0.1 -0.1)">
       <use xlink:href="#DejaVuSans-32"/>
       <use x="63.623047" xlink:href="#DejaVuSans-2e"/>
       <use x="95.410156" xlink:href="#DejaVuSans-35"/>
      </g>
     </g>
    </g>
   </g>
   <g id="patch_3">
    <path d="M 90 256.32 
L 90 34.56 
" style="fill:none;stroke:#000000;stroke-linecap:square;stroke-linejoin:miter;stroke-width:0.8;"/>
   </g>
   <g id="patch_4">
    <path d="M 343.636364 256.32 
L 343.636364 34.56 
" style="fill:none;stroke:#000000;stroke-linecap:square;stroke-linejoin:miter;stroke-width:0.8;"/>
   </g>
   <g id="patch_5">
    <path d="M 90 256.32 
L 343.636364 256.32 
" style="fill:none;stroke:#000000;stroke-linecap:square;stroke-linejoin:miter;stroke-width:0.8;"/>
   </g>
   <g id="patch_6">
    <path d="M 90 34.56 
L 343.636364 34.56 
" style="fill:none;stroke:#000000;stroke-linecap:square;stroke-linejoin:miter;stroke-width:0.8;"/>
   </g>
   <g id="text_13">
    <!-- Función objetivo -->
    <defs>
     <path d="M 9.8125 72.90625 
L 51.703125 72.90625 
L 51.703125 64.59375 
L 19.671875 64.59375 
L 19.671875 43.109375 
L 48.578125 43.109375 
L 48.578125 34.8125 
L 19.671875 34.8125 
L 19.671875 0 
L 9.8125 0 
z
" id="DejaVuSans-46"/>
     <path d="M 8.5 21.578125 
L 8.5 54.6875 
L 17.484375 54.6875 
L 17.484375 21.921875 
Q 17.484375 14.15625 20.5 10.265625 
Q 23.53125 6.390625 29.59375 6.390625 
Q 36.859375 6.390625 41.078125 11.03125 
Q 45.3125 15.671875 45.3125 23.6875 
L 45.3125 54.6875 
L 54.296875 54.6875 
L 54.296875 0 
L 45.3125 0 
L 45.3125 8.40625 
Q 42.046875 3.421875 37.71875 1 
Q 33.40625 -1.421875 27.6875 -1.421875 
Q 18.265625 -1.421875 13.375 4.4375 
Q 8.5 10.296875 8.5 21.578125 
z
M 31.109375 56 
z
" id="DejaVuSans-75"/>
     <path d="M 54.890625 33.015625 
L 54.890625 0 
L 45.90625 0 
L 45.90625 32.71875 
Q 45.90625 40.484375 42.875 44.328125 
Q 39.84375 48.1875 33.796875 48.1875 
Q 26.515625 48.1875 22.3125 43.546875 
Q 18.109375 38.921875 18.109375 30.90625 
L 18.109375 0 
L 9.078125 0 
L 9.078125 54.6875 
L 18.109375 54.6875 
L 18.109375 46.1875 
Q 21.34375 51.125 25.703125 53.5625 
Q 30.078125 56 35.796875 56 
Q 45.21875 56 50.046875 50.171875 
Q 54.890625 44.34375 54.890625 33.015625 
z
" id="DejaVuSans-6e"/>
     <path d="M 48.78125 52.59375 
L 48.78125 44.1875 
Q 44.96875 46.296875 41.140625 47.34375 
Q 37.3125 48.390625 33.40625 48.390625 
Q 24.65625 48.390625 19.8125 42.84375 
Q 14.984375 37.3125 14.984375 27.296875 
Q 14.984375 17.28125 19.8125 11.734375 
Q 24.65625 6.203125 33.40625 6.203125 
Q 37.3125 6.203125 41.140625 7.25 
Q 44.96875 8.296875 48.78125 10.40625 
L 48.78125 2.09375 
Q 45.015625 0.34375 40.984375 -0.53125 
Q 36.96875 -1.421875 32.421875 -1.421875 
Q 20.0625 -1.421875 12.78125 6.34375 
Q 5.515625 14.109375 5.515625 27.296875 
Q 5.515625 40.671875 12.859375 48.328125 
Q 20.21875 56 33.015625 56 
Q 37.15625 56 41.109375 55.140625 
Q 45.0625 54.296875 48.78125 52.59375 
z
" id="DejaVuSans-63"/>
     <path d="M 9.421875 54.6875 
L 18.40625 54.6875 
L 18.40625 0 
L 9.421875 0 
z
M 9.421875 75.984375 
L 18.40625 75.984375 
L 18.40625 64.59375 
L 9.421875 64.59375 
z
" id="DejaVuSans-69"/>
     <path d="M 30.609375 48.390625 
Q 23.390625 48.390625 19.1875 42.75 
Q 14.984375 37.109375 14.984375 27.296875 
Q 14.984375 17.484375 19.15625 11.84375 
Q 23.34375 6.203125 30.609375 6.203125 
Q 37.796875 6.203125 41.984375 11.859375 
Q 46.1875 17.53125 46.1875 27.296875 
Q 46.1875 37.015625 41.984375 42.703125 
Q 37.796875 48.390625 30.609375 48.390625 
z
M 30.609375 56 
Q 42.328125 56 49.015625 48.375 
Q 55.71875 40.765625 55.71875 27.296875 
Q 55.71875 13.875 49.015625 6.21875 
Q 42.328125 -1.421875 30.609375 -1.421875 
Q 18.84375 -1.421875 12.171875 6.21875 
Q 5.515625 13.875 5.515625 27.296875 
Q 5.515625 40.765625 12.171875 48.375 
Q 18.84375 56 30.609375 56 
z
M 37.40625 79.984375 
L 47.125 79.984375 
L 31.203125 61.625 
L 23.734375 61.625 
z
" id="DejaVuSans-f3"/>
     <path id="DejaVuSans-20"/>
     <path d="M 30.609375 48.390625 
Q 23.390625 48.390625 19.1875 42.75 
Q 14.984375 37.109375 14.984375 27.296875 
Q 14.984375 17.484375 19.15625 11.84375 
Q 23.34375 6.203125 30.609375 6.203125 
Q 37.796875 6.203125 41.984375 11.859375 
Q 46.1875 17.53125 46.1875 27.296875 
Q 46.1875 37.015625 41.984375 42.703125 
Q 37.796875 48.390625 30.609375 48.390625 
z
M 30.609375 56 
Q 42.328125 56 49.015625 48.375 
Q 55.71875 40.765625 55.71875 27.296875 
Q 55.71875 13.875 49.015625 6.21875 
Q 42.328125 -1.421875 30.609375 -1.421875 
Q 18.84375 -1.421875 12.171875 6.21875 
Q 5.515625 13.875 5.515625 27.296875 
Q 5.515625 40.765625 12.171875 48.375 
Q 18.84375 56 30.609375 56 
z
" id="DejaVuSans-6f"/>
     <path d="M 48.6875 27.296875 
Q 48.6875 37.203125 44.609375 42.84375 
Q 40.53125 48.484375 33.40625 48.484375 
Q 26.265625 48.484375 22.1875 42.84375 
Q 18.109375 37.203125 18.109375 27.296875 
Q 18.109375 17.390625 22.1875 11.75 
Q 26.265625 6.109375 33.40625 6.109375 
Q 40.53125 6.109375 44.609375 11.75 
Q 48.6875 17.390625 48.6875 27.296875 
z
M 18.109375 46.390625 
Q 20.953125 51.265625 25.265625 53.625 
Q 29.59375 56 35.59375 56 
Q 45.5625 56 51.78125 48.09375 
Q 58.015625 40.1875 58.015625 27.296875 
Q 58.015625 14.40625 51.78125 6.484375 
Q 45.5625 -1.421875 35.59375 -1.421875 
Q 29.59375 -1.421875 25.265625 0.953125 
Q 20.953125 3.328125 18.109375 8.203125 
L 18.109375 0 
L 9.078125 0 
L 9.078125 75.984375 
L 18.109375 75.984375 
z
" id="DejaVuSans-62"/>
     <path d="M 9.421875 54.6875 
L 18.40625 54.6875 
L 18.40625 -0.984375 
Q 18.40625 -11.421875 14.421875 -16.109375 
Q 10.453125 -20.796875 1.609375 -20.796875 
L -1.8125 -20.796875 
L -1.8125 -13.1875 
L 0.59375 -13.1875 
Q 5.71875 -13.1875 7.5625 -10.8125 
Q 9.421875 -8.453125 9.421875 -0.984375 
z
M 9.421875 75.984375 
L 18.40625 75.984375 
L 18.40625 64.59375 
L 9.421875 64.59375 
z
" id="DejaVuSans-6a"/>
     <path d="M 56.203125 29.59375 
L 56.203125 25.203125 
L 14.890625 25.203125 
Q 15.484375 15.921875 20.484375 11.0625 
Q 25.484375 6.203125 34.421875 6.203125 
Q 39.59375 6.203125 44.453125 7.46875 
Q 49.3125 8.734375 54.109375 11.28125 
L 54.109375 2.78125 
Q 49.265625 0.734375 44.1875 -0.34375 
Q 39.109375 -1.421875 33.890625 -1.421875 
Q 20.796875 -1.421875 13.15625 6.1875 
Q 5.515625 13.8125 5.515625 26.8125 
Q 5.515625 40.234375 12.765625 48.109375 
Q 20.015625 56 32.328125 56 
Q 43.359375 56 49.78125 48.890625 
Q 56.203125 41.796875 56.203125 29.59375 
z
M 47.21875 32.234375 
Q 47.125 39.59375 43.09375 43.984375 
Q 39.0625 48.390625 32.421875 48.390625 
Q 24.90625 48.390625 20.390625 44.140625 
Q 15.875 39.890625 15.1875 32.171875 
z
" id="DejaVuSans-65"/>
     <path d="M 18.3125 70.21875 
L 18.3125 54.6875 
L 36.8125 54.6875 
L 36.8125 47.703125 
L 18.3125 47.703125 
L 18.3125 18.015625 
Q 18.3125 11.328125 20.140625 9.421875 
Q 21.96875 7.515625 27.59375 7.515625 
L 36.8125 7.515625 
L 36.8125 0 
L 27.59375 0 
Q 17.1875 0 13.234375 3.875 
Q 9.28125 7.765625 9.28125 18.015625 
L 9.28125 47.703125 
L 2.6875 47.703125 
L 2.6875 54.6875 
L 9.28125 54.6875 
L 9.28125 70.21875 
z
" id="DejaVuSans-74"/>
     <path d="M 2.984375 54.6875 
L 12.5 54.6875 
L 29.59375 8.796875 
L 46.6875 54.6875 
L 56.203125 54.6875 
L 35.6875 0 
L 23.484375 0 
z
" id="DejaVuSans-76"/>
    </defs>
    <g transform="translate(167.339744 28.56)scale(0.12 -0.12)">
     <use xlink:href="#DejaVuSans-46"/>
     <use x="57.441406" xlink:href="#DejaVuSans-75"/>
     <use x="120.820312" xlink:href="#DejaVuSans-6e"/>
     <use x="184.199219" xlink:href="#DejaVuSans-63"/>
     <use x="239.179688" xlink:href="#DejaVuSans-69"/>
     <use x="266.962891" xlink:href="#DejaVuSans-f3"/>
     <use x="328.144531" xlink:href="#DejaVuSans-6e"/>
     <use x="391.523438" xlink:href="#DejaVuSans-20"/>
     <use x="423.310547" xlink:href="#DejaVuSans-6f"/>
     <use x="484.492188" xlink:href="#DejaVuSans-62"/>
     <use x="547.96875" xlink:href="#DejaVuSans-6a"/>
     <use x="575.751953" xlink:href="#DejaVuSans-65"/>
     <use x="637.275391" xlink:href="#DejaVuSans-74"/>
     <use x="676.484375" xlink:href="#DejaVuSans-69"/>
     <use x="704.267578" xlink:href="#DejaVuSans-76"/>
     <use x="763.447266" xlink:href="#DejaVuSans-6f"/>
    </g>
   </g>
  </g>
  <g id="axes_2">
   <g id="patch_7">
    <path d="M 394.363636 256.32 
L 597.272727 256.32 
L 597.272727 34.56 
L 394.363636 34.56 
z
" style="fill:#ffffff;"/>
   </g>
   <g id="PathCollection_8">
    <path clip-path="url(#p3d082217e0)" d="M 394.363636 234.736876 
L 394.363636 256.32 
L 407.205972 256.32 
z
" style="fill:#481b6d;"/>
   </g>
   <g id="PathCollection_9">
    <path clip-path="url(#p3d082217e0)" d="M 416.909091 256.32 
L 430.476838 256.32 
L 416.909091 236.88034 
L 413.57006 231.68 
L 398.300816 207.04 
L 394.363636 202.33927 
L 394.363636 207.04 
L 394.363636 231.68 
L 394.363636 234.736876 
L 407.205972 256.32 
z
" style="fill:#3f4788;"/>
   </g>
   <g id="PathCollection_10">
    <path clip-path="url(#p3d082217e0)" d="M 416.909091 236.88034 
L 430.476838 256.32 
L 439.454545 256.32 
L 462 256.32 
L 472.267158 256.32 
L 462 246.011625 
L 451.667375 231.68 
L 439.454545 212.771875 
L 436.785157 207.04 
L 416.909091 187.878683 
L 412.64931 182.4 
L 394.363636 168.296746 
L 394.363636 182.4 
L 394.363636 202.33927 
L 398.300816 207.04 
L 413.57006 231.68 
z
" style="fill:#2e6e8e;"/>
   </g>
   <g id="PathCollection_11">
    <path clip-path="url(#p3d082217e0)" d="M 462 246.011625 
L 472.267158 256.32 
L 484.545455 256.32 
L 507.090909 256.32 
L 529.636364 256.32 
L 538.300283 256.32 
L 529.636364 247.323016 
L 515.483618 231.68 
L 507.090909 218.020109 
L 500.58478 207.04 
L 484.545455 183.617005 
L 483.657469 182.4 
L 462 162.154174 
L 456.743237 157.76 
L 439.454545 145.466721 
L 419.459986 133.12 
L 416.909091 131.542621 
L 394.363636 122.820678 
L 394.363636 133.12 
L 394.363636 157.76 
L 394.363636 168.296746 
L 412.64931 182.4 
L 416.909091 187.878683 
L 436.785157 207.04 
L 439.454545 212.771875 
L 451.667375 231.68 
z
" style="fill:#21918c;"/>
   </g>
   <g id="PathCollection_12">
    <path clip-path="url(#p3d082217e0)" d="M 529.636364 247.323016 
L 538.300283 256.32 
L 552.181818 256.32 
L 574.727273 256.32 
L 597.272727 256.32 
L 597.272727 254.360084 
L 574.727273 233.58492 
L 572.768207 231.68 
L 555.858402 207.04 
L 552.181818 200.961356 
L 541.259562 182.4 
L 529.636364 169.295962 
L 518.687682 157.76 
L 507.090909 148.330988 
L 486.453175 133.12 
L 484.545455 131.774348 
L 462 116.335217 
L 449.541917 108.48 
L 439.454545 101.776951 
L 416.909091 87.85173 
L 409.865497 83.84 
L 394.363636 74.094941 
L 394.363636 83.84 
L 394.363636 108.48 
L 394.363636 122.820678 
L 416.909091 131.542621 
L 419.459986 133.12 
L 439.454545 145.466721 
L 456.743237 157.76 
L 462 162.154174 
L 483.657469 182.4 
L 484.545455 183.617005 
L 500.58478 207.04 
L 507.090909 218.020109 
L 515.483618 231.68 
z
" style="fill:#2db27d;"/>
   </g>
   <g id="PathCollection_13">
    <path clip-path="url(#p3d082217e0)" d="M 574.727273 233.58492 
L 597.272727 254.360084 
L 597.272727 231.68 
L 597.272727 207.04 
L 597.272727 182.4 
L 597.272727 157.76 
L 597.272727 142.868962 
L 586.113193 133.12 
L 574.727273 124.397544 
L 552.181818 109.18233 
L 551.109969 108.48 
L 529.636364 93.603209 
L 513.370822 83.84 
L 507.090909 79.595322 
L 484.545455 65.19042 
L 474.270212 59.2 
L 462 50.990493 
L 439.454545 37.39466 
L 434.556846 34.56 
L 416.909091 34.56 
L 394.363636 34.56 
L 394.363636 59.2 
L 394.363636 74.094941 
L 409.865497 83.84 
L 416.909091 87.85173 
L 439.454545 101.776951 
L 449.541917 108.48 
L 462 116.335217 
L 484.545455 131.774348 
L 486.453175 133.12 
L 507.090909 148.330988 
L 518.687682 157.76 
L 529.636364 169.295962 
L 541.259562 182.4 
L 552.181818 200.961356 
L 555.858402 207.04 
L 572.768207 231.68 
z
" style="fill:#73d056;"/>
   </g>
   <g id="PathCollection_14">
    <path clip-path="url(#p3d082217e0)" d="M 597.272727 142.868962 
L 597.272727 133.12 
L 597.272727 108.48 
L 597.272727 83.84 
L 597.272727 59.2 
L 597.272727 34.56 
L 574.727273 34.56 
L 552.181818 34.56 
L 529.636364 34.56 
L 507.090909 34.56 
L 484.545455 34.56 
L 462 34.56 
L 439.454545 34.56 
L 434.556846 34.56 
L 439.454545 37.39466 
L 462 50.990493 
L 474.270212 59.2 
L 484.545455 65.19042 
L 507.090909 79.595322 
L 513.370822 83.84 
L 529.636364 93.603209 
L 551.109969 108.48 
L 552.181818 109.18233 
L 574.727273 124.397544 
L 586.113193 133.12 
z
" style="fill:#d0e11c;"/>
   </g>
   <g id="matplotlib.axis_3">
    <g id="xtick_7">
     <g id="line2d_13">
      <g>
       <use style="stroke:#000000;stroke-width:0.8;" x="394.363636" xlink:href="#m49a7f6d26a" y="256.32"/>
      </g>
     </g>
     <g id="text_14">
      <!-- 0.0 -->
      <g transform="translate(386.412074 270.918437)scale(0.1 -0.1)">
       <use xlink:href="#DejaVuSans-30"/>
       <use x="63.623047" xlink:href="#DejaVuSans-2e"/>
       <use x="95.410156" xlink:href="#DejaVuSans-30"/>
      </g>
     </g>
    </g>
    <g id="xtick_8">
     <g id="line2d_14">
      <g>
       <use style="stroke:#000000;stroke-width:0.8;" x="434.838144" xlink:href="#m49a7f6d26a" y="256.32"/>
      </g>
     </g>
     <g id="text_15">
      <!-- 0.5 -->
      <g transform="translate(426.886582 270.918437)scale(0.1 -0.1)">
       <use xlink:href="#DejaVuSans-30"/>
       <use x="63.623047" xlink:href="#DejaVuSans-2e"/>
       <use x="95.410156" xlink:href="#DejaVuSans-35"/>
      </g>
     </g>
    </g>
    <g id="xtick_9">
     <g id="line2d_15">
      <g>
       <use style="stroke:#000000;stroke-width:0.8;" x="475.312652" xlink:href="#m49a7f6d26a" y="256.32"/>
      </g>
     </g>
     <g id="text_16">
      <!-- 1.0 -->
      <g transform="translate(467.361089 270.918437)scale(0.1 -0.1)">
       <use xlink:href="#DejaVuSans-31"/>
       <use x="63.623047" xlink:href="#DejaVuSans-2e"/>
       <use x="95.410156" xlink:href="#DejaVuSans-30"/>
      </g>
     </g>
    </g>
    <g id="xtick_10">
     <g id="line2d_16">
      <g>
       <use style="stroke:#000000;stroke-width:0.8;" x="515.78716" xlink:href="#m49a7f6d26a" y="256.32"/>
      </g>
     </g>
     <g id="text_17">
      <!-- 1.5 -->
      <g transform="translate(507.835597 270.918437)scale(0.1 -0.1)">
       <use xlink:href="#DejaVuSans-31"/>
       <use x="63.623047" xlink:href="#DejaVuSans-2e"/>
       <use x="95.410156" xlink:href="#DejaVuSans-35"/>
      </g>
     </g>
    </g>
    <g id="xtick_11">
     <g id="line2d_17">
      <g>
       <use style="stroke:#000000;stroke-width:0.8;" x="556.261667" xlink:href="#m49a7f6d26a" y="256.32"/>
      </g>
     </g>
     <g id="text_18">
      <!-- 2.0 -->
      <g transform="translate(548.310105 270.918437)scale(0.1 -0.1)">
       <use xlink:href="#DejaVuSans-32"/>
       <use x="63.623047" xlink:href="#DejaVuSans-2e"/>
       <use x="95.410156" xlink:href="#DejaVuSans-30"/>
      </g>
     </g>
    </g>
    <g id="xtick_12">
     <g id="line2d_18">
      <g>
       <use style="stroke:#000000;stroke-width:0.8;" x="596.736175" xlink:href="#m49a7f6d26a" y="256.32"/>
      </g>
     </g>
     <g id="text_19">
      <!-- 2.5 -->
      <g transform="translate(588.784612 270.918437)scale(0.1 -0.1)">
       <use xlink:href="#DejaVuSans-32"/>
       <use x="63.623047" xlink:href="#DejaVuSans-2e"/>
       <use x="95.410156" xlink:href="#DejaVuSans-35"/>
      </g>
     </g>
    </g>
   </g>
   <g id="matplotlib.axis_4">
    <g id="ytick_7">
     <g id="line2d_19">
      <g>
       <use style="stroke:#000000;stroke-width:0.8;" x="394.363636" xlink:href="#m15b518834a" y="256.32"/>
      </g>
     </g>
     <g id="text_20">
      <!-- 0.0 -->
      <g transform="translate(371.460511 260.119219)scale(0.1 -0.1)">
       <use xlink:href="#DejaVuSans-30"/>
       <use x="63.623047" xlink:href="#DejaVuSans-2e"/>
       <use x="95.410156" xlink:href="#DejaVuSans-30"/>
      </g>
     </g>
    </g>
    <g id="ytick_8">
     <g id="line2d_20">
      <g>
       <use style="stroke:#000000;stroke-width:0.8;" x="394.363636" xlink:href="#m15b518834a" y="212.08528"/>
      </g>
     </g>
     <g id="text_21">
      <!-- 0.5 -->
      <g transform="translate(371.460511 215.884499)scale(0.1 -0.1)">
       <use xlink:href="#DejaVuSans-30"/>
       <use x="63.623047" xlink:href="#DejaVuSans-2e"/>
       <use x="95.410156" xlink:href="#DejaVuSans-35"/>
      </g>
     </g>
    </g>
    <g id="ytick_9">
     <g id="line2d_21">
      <g>
       <use style="stroke:#000000;stroke-width:0.8;" x="394.363636" xlink:href="#m15b518834a" y="167.85056"/>
      </g>
     </g>
     <g id="text_22">
      <!-- 1.0 -->
      <g transform="translate(371.460511 171.649779)scale(0.1 -0.1)">
       <use xlink:href="#DejaVuSans-31"/>
       <use x="63.623047" xlink:href="#DejaVuSans-2e"/>
       <use x="95.410156" xlink:href="#DejaVuSans-30"/>
      </g>
     </g>
    </g>
    <g id="ytick_10">
     <g id="line2d_22">
      <g>
       <use style="stroke:#000000;stroke-width:0.8;" x="394.363636" xlink:href="#m15b518834a" y="123.61584"/>
      </g>
     </g>
     <g id="text_23">
      <!-- 1.5 -->
      <g transform="translate(371.460511 127.415059)scale(0.1 -0.1)">
       <use xlink:href="#DejaVuSans-31"/>
       <use x="63.623047" xlink:href="#DejaVuSans-2e"/>
       <use x="95.410156" xlink:href="#DejaVuSans-35"/>
      </g>
     </g>
    </g>
    <g id="ytick_11">
     <g id="line2d_23">
      <g>
       <use style="stroke:#000000;stroke-width:0.8;" x="394.363636" xlink:href="#m15b518834a" y="79.38112"/>
      </g>
     </g>
     <g id="text_24">
      <!-- 2.0 -->
      <g transform="translate(371.460511 83.180339)scale(0.1 -0.1)">
       <use xlink:href="#DejaVuSans-32"/>
       <use x="63.623047" xlink:href="#DejaVuSans-2e"/>
       <use x="95.410156" xlink:href="#DejaVuSans-30"/>
      </g>
     </g>
    </g>
    <g id="ytick_12">
     <g id="line2d_24">
      <g>
       <use style="stroke:#000000;stroke-width:0.8;" x="394.363636" xlink:href="#m15b518834a" y="35.1464"/>
      </g>
     </g>
     <g id="text_25">
      <!-- 2.5 -->
      <g transform="translate(371.460511 38.945618)scale(0.1 -0.1)">
       <use xlink:href="#DejaVuSans-32"/>
       <use x="63.623047" xlink:href="#DejaVuSans-2e"/>
       <use x="95.410156" xlink:href="#DejaVuSans-35"/>
      </g>
     </g>
    </g>
   </g>
   <g id="patch_8">
    <path d="M 394.363636 256.32 
L 394.363636 34.56 
" style="fill:none;stroke:#000000;stroke-linecap:square;stroke-linejoin:miter;stroke-width:0.8;"/>
   </g>
   <g id="patch_9">
    <path d="M 597.272727 256.32 
L 597.272727 34.56 
" style="fill:none;stroke:#000000;stroke-linecap:square;stroke-linejoin:miter;stroke-width:0.8;"/>
   </g>
   <g id="patch_10">
    <path d="M 394.363636 256.32 
L 597.272727 256.32 
" style="fill:none;stroke:#000000;stroke-linecap:square;stroke-linejoin:miter;stroke-width:0.8;"/>
   </g>
   <g id="patch_11">
    <path d="M 394.363636 34.56 
L 597.272727 34.56 
" style="fill:none;stroke:#000000;stroke-linecap:square;stroke-linejoin:miter;stroke-width:0.8;"/>
   </g>
   <g id="text_26">
    <!-- Resultado obtenido -->
    <defs>
     <path d="M 44.390625 34.1875 
Q 47.5625 33.109375 50.5625 29.59375 
Q 53.5625 26.078125 56.59375 19.921875 
L 66.609375 0 
L 56 0 
L 46.6875 18.703125 
Q 43.0625 26.03125 39.671875 28.421875 
Q 36.28125 30.8125 30.421875 30.8125 
L 19.671875 30.8125 
L 19.671875 0 
L 9.8125 0 
L 9.8125 72.90625 
L 32.078125 72.90625 
Q 44.578125 72.90625 50.734375 67.671875 
Q 56.890625 62.453125 56.890625 51.90625 
Q 56.890625 45.015625 53.6875 40.46875 
Q 50.484375 35.9375 44.390625 34.1875 
z
M 19.671875 64.796875 
L 19.671875 38.921875 
L 32.078125 38.921875 
Q 39.203125 38.921875 42.84375 42.21875 
Q 46.484375 45.515625 46.484375 51.90625 
Q 46.484375 58.296875 42.84375 61.546875 
Q 39.203125 64.796875 32.078125 64.796875 
z
" id="DejaVuSans-52"/>
     <path d="M 44.28125 53.078125 
L 44.28125 44.578125 
Q 40.484375 46.53125 36.375 47.5 
Q 32.28125 48.484375 27.875 48.484375 
Q 21.1875 48.484375 17.84375 46.4375 
Q 14.5 44.390625 14.5 40.28125 
Q 14.5 37.15625 16.890625 35.375 
Q 19.28125 33.59375 26.515625 31.984375 
L 29.59375 31.296875 
Q 39.15625 29.25 43.1875 25.515625 
Q 47.21875 21.78125 47.21875 15.09375 
Q 47.21875 7.46875 41.1875 3.015625 
Q 35.15625 -1.421875 24.609375 -1.421875 
Q 20.21875 -1.421875 15.453125 -0.5625 
Q 10.6875 0.296875 5.421875 2 
L 5.421875 11.28125 
Q 10.40625 8.6875 15.234375 7.390625 
Q 20.0625 6.109375 24.8125 6.109375 
Q 31.15625 6.109375 34.5625 8.28125 
Q 37.984375 10.453125 37.984375 14.40625 
Q 37.984375 18.0625 35.515625 20.015625 
Q 33.0625 21.96875 24.703125 23.78125 
L 21.578125 24.515625 
Q 13.234375 26.265625 9.515625 29.90625 
Q 5.8125 33.546875 5.8125 39.890625 
Q 5.8125 47.609375 11.28125 51.796875 
Q 16.75 56 26.8125 56 
Q 31.78125 56 36.171875 55.265625 
Q 40.578125 54.546875 44.28125 53.078125 
z
" id="DejaVuSans-73"/>
     <path d="M 9.421875 75.984375 
L 18.40625 75.984375 
L 18.40625 0 
L 9.421875 0 
z
" id="DejaVuSans-6c"/>
     <path d="M 34.28125 27.484375 
Q 23.390625 27.484375 19.1875 25 
Q 14.984375 22.515625 14.984375 16.5 
Q 14.984375 11.71875 18.140625 8.90625 
Q 21.296875 6.109375 26.703125 6.109375 
Q 34.1875 6.109375 38.703125 11.40625 
Q 43.21875 16.703125 43.21875 25.484375 
L 43.21875 27.484375 
z
M 52.203125 31.203125 
L 52.203125 0 
L 43.21875 0 
L 43.21875 8.296875 
Q 40.140625 3.328125 35.546875 0.953125 
Q 30.953125 -1.421875 24.3125 -1.421875 
Q 15.921875 -1.421875 10.953125 3.296875 
Q 6 8.015625 6 15.921875 
Q 6 25.140625 12.171875 29.828125 
Q 18.359375 34.515625 30.609375 34.515625 
L 43.21875 34.515625 
L 43.21875 35.40625 
Q 43.21875 41.609375 39.140625 45 
Q 35.0625 48.390625 27.6875 48.390625 
Q 23 48.390625 18.546875 47.265625 
Q 14.109375 46.140625 10.015625 43.890625 
L 10.015625 52.203125 
Q 14.9375 54.109375 19.578125 55.046875 
Q 24.21875 56 28.609375 56 
Q 40.484375 56 46.34375 49.84375 
Q 52.203125 43.703125 52.203125 31.203125 
z
" id="DejaVuSans-61"/>
     <path d="M 45.40625 46.390625 
L 45.40625 75.984375 
L 54.390625 75.984375 
L 54.390625 0 
L 45.40625 0 
L 45.40625 8.203125 
Q 42.578125 3.328125 38.25 0.953125 
Q 33.9375 -1.421875 27.875 -1.421875 
Q 17.96875 -1.421875 11.734375 6.484375 
Q 5.515625 14.40625 5.515625 27.296875 
Q 5.515625 40.1875 11.734375 48.09375 
Q 17.96875 56 27.875 56 
Q 33.9375 56 38.25 53.625 
Q 42.578125 51.265625 45.40625 46.390625 
z
M 14.796875 27.296875 
Q 14.796875 17.390625 18.875 11.75 
Q 22.953125 6.109375 30.078125 6.109375 
Q 37.203125 6.109375 41.296875 11.75 
Q 45.40625 17.390625 45.40625 27.296875 
Q 45.40625 37.203125 41.296875 42.84375 
Q 37.203125 48.484375 30.078125 48.484375 
Q 22.953125 48.484375 18.875 42.84375 
Q 14.796875 37.203125 14.796875 27.296875 
z
" id="DejaVuSans-64"/>
    </defs>
    <g transform="translate(437.475682 28.56)scale(0.12 -0.12)">
     <use xlink:href="#DejaVuSans-52"/>
     <use x="69.419922" xlink:href="#DejaVuSans-65"/>
     <use x="130.943359" xlink:href="#DejaVuSans-73"/>
     <use x="183.042969" xlink:href="#DejaVuSans-75"/>
     <use x="246.421875" xlink:href="#DejaVuSans-6c"/>
     <use x="274.205078" xlink:href="#DejaVuSans-74"/>
     <use x="313.414062" xlink:href="#DejaVuSans-61"/>
     <use x="374.693359" xlink:href="#DejaVuSans-64"/>
     <use x="438.169922" xlink:href="#DejaVuSans-6f"/>
     <use x="499.351562" xlink:href="#DejaVuSans-20"/>
     <use x="531.138672" xlink:href="#DejaVuSans-6f"/>
     <use x="592.320312" xlink:href="#DejaVuSans-62"/>
     <use x="655.796875" xlink:href="#DejaVuSans-74"/>
     <use x="695.005859" xlink:href="#DejaVuSans-65"/>
     <use x="756.529297" xlink:href="#DejaVuSans-6e"/>
     <use x="819.908203" xlink:href="#DejaVuSans-69"/>
     <use x="847.691406" xlink:href="#DejaVuSans-64"/>
     <use x="911.167969" xlink:href="#DejaVuSans-6f"/>
    </g>
   </g>
  </g>
  <g id="axes_3">
   <g id="patch_12">
    <path clip-path="url(#pf46b99fdde)" d="M 609.954545 256.32 
L 609.954545 224.64 
L 609.954545 66.24 
L 609.954545 34.56 
L 621.042545 34.56 
L 621.042545 66.24 
L 621.042545 224.64 
L 621.042545 256.32 
z
" style="fill:#ffffff;stroke:#ffffff;stroke-linejoin:miter;stroke-width:0.01;"/>
   </g>
   <g id="QuadMesh_1">
    <path clip-path="url(#pf46b99fdde)" d="M 609.954545 256.32 
L 621.042545 256.32 
L 621.042545 224.64 
L 609.954545 224.64 
L 609.954545 256.32 
" style="fill:#481b6d;"/>
    <path clip-path="url(#pf46b99fdde)" d="M 609.954545 224.64 
L 621.042545 224.64 
L 621.042545 192.96 
L 609.954545 192.96 
L 609.954545 224.64 
" style="fill:#3f4788;"/>
    <path clip-path="url(#pf46b99fdde)" d="M 609.954545 192.96 
L 621.042545 192.96 
L 621.042545 161.28 
L 609.954545 161.28 
L 609.954545 192.96 
" style="fill:#2e6e8e;"/>
    <path clip-path="url(#pf46b99fdde)" d="M 609.954545 161.28 
L 621.042545 161.28 
L 621.042545 129.6 
L 609.954545 129.6 
L 609.954545 161.28 
" style="fill:#21918c;"/>
    <path clip-path="url(#pf46b99fdde)" d="M 609.954545 129.6 
L 621.042545 129.6 
L 621.042545 97.92 
L 609.954545 97.92 
L 609.954545 129.6 
" style="fill:#2db27d;"/>
    <path clip-path="url(#pf46b99fdde)" d="M 609.954545 97.92 
L 621.042545 97.92 
L 621.042545 66.24 
L 609.954545 66.24 
L 609.954545 97.92 
" style="fill:#73d056;"/>
    <path clip-path="url(#pf46b99fdde)" d="M 609.954545 66.24 
L 621.042545 66.24 
L 621.042545 34.56 
L 609.954545 34.56 
L 609.954545 66.24 
" style="fill:#d0e11c;"/>
   </g>
   <g id="matplotlib.axis_5"/>
   <g id="matplotlib.axis_6">
    <g id="ytick_13">
     <g id="line2d_25">
      <defs>
       <path d="M 0 0 
L 3.5 0 
" id="mf42b2e1912" style="stroke:#000000;stroke-width:0.8;"/>
      </defs>
      <g>
       <use style="stroke:#000000;stroke-width:0.8;" x="621.042545" xlink:href="#mf42b2e1912" y="256.32"/>
      </g>
     </g>
     <g id="text_27">
      <!-- 0.00 -->
      <g transform="translate(628.042545 260.119219)scale(0.1 -0.1)">
       <use xlink:href="#DejaVuSans-30"/>
       <use x="63.623047" xlink:href="#DejaVuSans-2e"/>
       <use x="95.410156" xlink:href="#DejaVuSans-30"/>
       <use x="159.033203" xlink:href="#DejaVuSans-30"/>
      </g>
     </g>
    </g>
    <g id="ytick_14">
     <g id="line2d_26">
      <g>
       <use style="stroke:#000000;stroke-width:0.8;" x="621.042545" xlink:href="#mf42b2e1912" y="224.64"/>
      </g>
     </g>
     <g id="text_28">
      <!-- 0.15 -->
      <g transform="translate(628.042545 228.439219)scale(0.1 -0.1)">
       <use xlink:href="#DejaVuSans-30"/>
       <use x="63.623047" xlink:href="#DejaVuSans-2e"/>
       <use x="95.410156" xlink:href="#DejaVuSans-31"/>
       <use x="159.033203" xlink:href="#DejaVuSans-35"/>
      </g>
     </g>
    </g>
    <g id="ytick_15">
     <g id="line2d_27">
      <g>
       <use style="stroke:#000000;stroke-width:0.8;" x="621.042545" xlink:href="#mf42b2e1912" y="192.96"/>
      </g>
     </g>
     <g id="text_29">
      <!-- 0.30 -->
      <defs>
       <path d="M 40.578125 39.3125 
Q 47.65625 37.796875 51.625 33 
Q 55.609375 28.21875 55.609375 21.1875 
Q 55.609375 10.40625 48.1875 4.484375 
Q 40.765625 -1.421875 27.09375 -1.421875 
Q 22.515625 -1.421875 17.65625 -0.515625 
Q 12.796875 0.390625 7.625 2.203125 
L 7.625 11.71875 
Q 11.71875 9.328125 16.59375 8.109375 
Q 21.484375 6.890625 26.8125 6.890625 
Q 36.078125 6.890625 40.9375 10.546875 
Q 45.796875 14.203125 45.796875 21.1875 
Q 45.796875 27.640625 41.28125 31.265625 
Q 36.765625 34.90625 28.71875 34.90625 
L 20.21875 34.90625 
L 20.21875 43.015625 
L 29.109375 43.015625 
Q 36.375 43.015625 40.234375 45.921875 
Q 44.09375 48.828125 44.09375 54.296875 
Q 44.09375 59.90625 40.109375 62.90625 
Q 36.140625 65.921875 28.71875 65.921875 
Q 24.65625 65.921875 20.015625 65.03125 
Q 15.375 64.15625 9.8125 62.3125 
L 9.8125 71.09375 
Q 15.4375 72.65625 20.34375 73.4375 
Q 25.25 74.21875 29.59375 74.21875 
Q 40.828125 74.21875 47.359375 69.109375 
Q 53.90625 64.015625 53.90625 55.328125 
Q 53.90625 49.265625 50.4375 45.09375 
Q 46.96875 40.921875 40.578125 39.3125 
z
" id="DejaVuSans-33"/>
      </defs>
      <g transform="translate(628.042545 196.759219)scale(0.1 -0.1)">
       <use xlink:href="#DejaVuSans-30"/>
       <use x="63.623047" xlink:href="#DejaVuSans-2e"/>
       <use x="95.410156" xlink:href="#DejaVuSans-33"/>
       <use x="159.033203" xlink:href="#DejaVuSans-30"/>
      </g>
     </g>
    </g>
    <g id="ytick_16">
     <g id="line2d_28">
      <g>
       <use style="stroke:#000000;stroke-width:0.8;" x="621.042545" xlink:href="#mf42b2e1912" y="161.28"/>
      </g>
     </g>
     <g id="text_30">
      <!-- 0.45 -->
      <defs>
       <path d="M 37.796875 64.3125 
L 12.890625 25.390625 
L 37.796875 25.390625 
z
M 35.203125 72.90625 
L 47.609375 72.90625 
L 47.609375 25.390625 
L 58.015625 25.390625 
L 58.015625 17.1875 
L 47.609375 17.1875 
L 47.609375 0 
L 37.796875 0 
L 37.796875 17.1875 
L 4.890625 17.1875 
L 4.890625 26.703125 
z
" id="DejaVuSans-34"/>
      </defs>
      <g transform="translate(628.042545 165.079219)scale(0.1 -0.1)">
       <use xlink:href="#DejaVuSans-30"/>
       <use x="63.623047" xlink:href="#DejaVuSans-2e"/>
       <use x="95.410156" xlink:href="#DejaVuSans-34"/>
       <use x="159.033203" xlink:href="#DejaVuSans-35"/>
      </g>
     </g>
    </g>
    <g id="ytick_17">
     <g id="line2d_29">
      <g>
       <use style="stroke:#000000;stroke-width:0.8;" x="621.042545" xlink:href="#mf42b2e1912" y="129.6"/>
      </g>
     </g>
     <g id="text_31">
      <!-- 0.60 -->
      <defs>
       <path d="M 33.015625 40.375 
Q 26.375 40.375 22.484375 35.828125 
Q 18.609375 31.296875 18.609375 23.390625 
Q 18.609375 15.53125 22.484375 10.953125 
Q 26.375 6.390625 33.015625 6.390625 
Q 39.65625 6.390625 43.53125 10.953125 
Q 47.40625 15.53125 47.40625 23.390625 
Q 47.40625 31.296875 43.53125 35.828125 
Q 39.65625 40.375 33.015625 40.375 
z
M 52.59375 71.296875 
L 52.59375 62.3125 
Q 48.875 64.0625 45.09375 64.984375 
Q 41.3125 65.921875 37.59375 65.921875 
Q 27.828125 65.921875 22.671875 59.328125 
Q 17.53125 52.734375 16.796875 39.40625 
Q 19.671875 43.65625 24.015625 45.921875 
Q 28.375 48.1875 33.59375 48.1875 
Q 44.578125 48.1875 50.953125 41.515625 
Q 57.328125 34.859375 57.328125 23.390625 
Q 57.328125 12.15625 50.6875 5.359375 
Q 44.046875 -1.421875 33.015625 -1.421875 
Q 20.359375 -1.421875 13.671875 8.265625 
Q 6.984375 17.96875 6.984375 36.375 
Q 6.984375 53.65625 15.1875 63.9375 
Q 23.390625 74.21875 37.203125 74.21875 
Q 40.921875 74.21875 44.703125 73.484375 
Q 48.484375 72.75 52.59375 71.296875 
z
" id="DejaVuSans-36"/>
      </defs>
      <g transform="translate(628.042545 133.399219)scale(0.1 -0.1)">
       <use xlink:href="#DejaVuSans-30"/>
       <use x="63.623047" xlink:href="#DejaVuSans-2e"/>
       <use x="95.410156" xlink:href="#DejaVuSans-36"/>
       <use x="159.033203" xlink:href="#DejaVuSans-30"/>
      </g>
     </g>
    </g>
    <g id="ytick_18">
     <g id="line2d_30">
      <g>
       <use style="stroke:#000000;stroke-width:0.8;" x="621.042545" xlink:href="#mf42b2e1912" y="97.92"/>
      </g>
     </g>
     <g id="text_32">
      <!-- 0.75 -->
      <defs>
       <path d="M 8.203125 72.90625 
L 55.078125 72.90625 
L 55.078125 68.703125 
L 28.609375 0 
L 18.3125 0 
L 43.21875 64.59375 
L 8.203125 64.59375 
z
" id="DejaVuSans-37"/>
      </defs>
      <g transform="translate(628.042545 101.719219)scale(0.1 -0.1)">
       <use xlink:href="#DejaVuSans-30"/>
       <use x="63.623047" xlink:href="#DejaVuSans-2e"/>
       <use x="95.410156" xlink:href="#DejaVuSans-37"/>
       <use x="159.033203" xlink:href="#DejaVuSans-35"/>
      </g>
     </g>
    </g>
    <g id="ytick_19">
     <g id="line2d_31">
      <g>
       <use style="stroke:#000000;stroke-width:0.8;" x="621.042545" xlink:href="#mf42b2e1912" y="66.24"/>
      </g>
     </g>
     <g id="text_33">
      <!-- 0.90 -->
      <defs>
       <path d="M 10.984375 1.515625 
L 10.984375 10.5 
Q 14.703125 8.734375 18.5 7.8125 
Q 22.3125 6.890625 25.984375 6.890625 
Q 35.75 6.890625 40.890625 13.453125 
Q 46.046875 20.015625 46.78125 33.40625 
Q 43.953125 29.203125 39.59375 26.953125 
Q 35.25 24.703125 29.984375 24.703125 
Q 19.046875 24.703125 12.671875 31.3125 
Q 6.296875 37.9375 6.296875 49.421875 
Q 6.296875 60.640625 12.9375 67.421875 
Q 19.578125 74.21875 30.609375 74.21875 
Q 43.265625 74.21875 49.921875 64.515625 
Q 56.59375 54.828125 56.59375 36.375 
Q 56.59375 19.140625 48.40625 8.859375 
Q 40.234375 -1.421875 26.421875 -1.421875 
Q 22.703125 -1.421875 18.890625 -0.6875 
Q 15.09375 0.046875 10.984375 1.515625 
z
M 30.609375 32.421875 
Q 37.25 32.421875 41.125 36.953125 
Q 45.015625 41.5 45.015625 49.421875 
Q 45.015625 57.28125 41.125 61.84375 
Q 37.25 66.40625 30.609375 66.40625 
Q 23.96875 66.40625 20.09375 61.84375 
Q 16.21875 57.28125 16.21875 49.421875 
Q 16.21875 41.5 20.09375 36.953125 
Q 23.96875 32.421875 30.609375 32.421875 
z
" id="DejaVuSans-39"/>
      </defs>
      <g transform="translate(628.042545 70.039219)scale(0.1 -0.1)">
       <use xlink:href="#DejaVuSans-30"/>
       <use x="63.623047" xlink:href="#DejaVuSans-2e"/>
       <use x="95.410156" xlink:href="#DejaVuSans-39"/>
       <use x="159.033203" xlink:href="#DejaVuSans-30"/>
      </g>
     </g>
    </g>
    <g id="ytick_20">
     <g id="line2d_32">
      <g>
       <use style="stroke:#000000;stroke-width:0.8;" x="621.042545" xlink:href="#mf42b2e1912" y="34.56"/>
      </g>
     </g>
     <g id="text_34">
      <!-- 1.05 -->
      <g transform="translate(628.042545 38.359219)scale(0.1 -0.1)">
       <use xlink:href="#DejaVuSans-31"/>
       <use x="63.623047" xlink:href="#DejaVuSans-2e"/>
       <use x="95.410156" xlink:href="#DejaVuSans-30"/>
       <use x="159.033203" xlink:href="#DejaVuSans-35"/>
      </g>
     </g>
    </g>
   </g>
   <g id="patch_13">
    <path d="M 609.954545 256.32 
L 609.954545 224.64 
L 609.954545 66.24 
L 609.954545 34.56 
L 621.042545 34.56 
L 621.042545 66.24 
L 621.042545 224.64 
L 621.042545 256.32 
z
" style="fill:none;stroke:#000000;stroke-linejoin:miter;stroke-width:0.8;"/>
   </g>
  </g>
 </g>
 <defs>
  <clipPath id="p73f12e57e8">
   <rect height="221.76" width="253.636364" x="90" y="34.56"/>
  </clipPath>
  <clipPath id="p3d082217e0">
   <rect height="221.76" width="202.909091" x="394.363636" y="34.56"/>
  </clipPath>
  <clipPath id="pf46b99fdde">
   <rect height="221.76" width="11.088" x="609.954545" y="34.56"/>
  </clipPath>
 </defs>
</svg>
