<?xml version="1.0" encoding="utf-8" standalone="no"?>
<!DOCTYPE svg PUBLIC "-//W3C//DTD SVG 1.1//EN"
  "http://www.w3.org/Graphics/SVG/1.1/DTD/svg11.dtd">
<!-- Created with matplotlib (http://matplotlib.org/) -->
<svg height="345.6pt" version="1.1" viewBox="0 0 460.8 345.6" width="460.8pt" xmlns="http://www.w3.org/2000/svg" xmlns:xlink="http://www.w3.org/1999/xlink">
 <defs>
  <style type="text/css">
*{stroke-linecap:butt;stroke-linejoin:round;}
  </style>
 </defs>
 <g id="figure_1">
  <g id="patch_1">
   <path d="M 0 345.6 
L 460.8 345.6 
L 460.8 0 
L 0 0 
z
" style="fill:#ffffff;"/>
  </g>
  <g id="axes_1">
   <g id="patch_2">
    <path d="M 57.6 307.584 
L 414.72 307.584 
L 414.72 41.472 
L 57.6 41.472 
z
" style="fill:#ffffff;"/>
   </g>
   <g id="PolyCollection_1">
    <path clip-path="url(#p22591a2a97)" d="M 73.832727 306.7392 
L 73.832727 307.584 
L 398.487273 307.584 
L 398.487273 305.8944 
L 398.487273 305.8944 
L 73.832727 306.7392 
z
" style="fill:#1f77b4;"/>
   </g>
   <g id="PolyCollection_2">
    <path clip-path="url(#p22591a2a97)" d="M 73.832727 305.8944 
L 73.832727 306.7392 
L 398.487273 305.8944 
L 398.487273 304.2048 
L 398.487273 304.2048 
L 73.832727 305.8944 
z
" style="fill:#ff7f0e;"/>
   </g>
   <g id="PolyCollection_3">
    <path clip-path="url(#p22591a2a97)" d="M 73.832727 305.0496 
L 73.832727 305.8944 
L 398.487273 304.2048 
L 398.487273 302.5152 
L 398.487273 302.5152 
L 73.832727 305.0496 
z
" style="fill:#2ca02c;"/>
   </g>
   <g id="PolyCollection_4">
    <path clip-path="url(#p22591a2a97)" d="M 73.832727 304.2048 
L 73.832727 305.0496 
L 398.487273 302.5152 
L 398.487273 300.8256 
L 398.487273 300.8256 
L 73.832727 304.2048 
z
" style="fill:#d62728;"/>
   </g>
   <g id="PolyCollection_5">
    <path clip-path="url(#p22591a2a97)" d="M 73.832727 303.36 
L 73.832727 304.2048 
L 398.487273 300.8256 
L 398.487273 299.136 
L 398.487273 299.136 
L 73.832727 303.36 
z
" style="fill:#9467bd;"/>
   </g>
   <g id="PolyCollection_6">
    <path clip-path="url(#p22591a2a97)" d="M 73.832727 302.5152 
L 73.832727 303.36 
L 398.487273 299.136 
L 398.487273 297.4464 
L 398.487273 297.4464 
L 73.832727 302.5152 
z
" style="fill:#8c564b;"/>
   </g>
   <g id="PolyCollection_7">
    <path clip-path="url(#p22591a2a97)" d="M 73.832727 301.6704 
L 73.832727 302.5152 
L 398.487273 297.4464 
L 398.487273 295.7568 
L 398.487273 295.7568 
L 73.832727 301.6704 
z
" style="fill:#e377c2;"/>
   </g>
   <g id="PolyCollection_8">
    <path clip-path="url(#p22591a2a97)" d="M 73.832727 300.8256 
L 73.832727 301.6704 
L 398.487273 295.7568 
L 398.487273 294.0672 
L 398.487273 294.0672 
L 73.832727 300.8256 
z
" style="fill:#7f7f7f;"/>
   </g>
   <g id="PolyCollection_9">
    <path clip-path="url(#p22591a2a97)" d="M 73.832727 299.9808 
L 73.832727 300.8256 
L 398.487273 294.0672 
L 398.487273 292.3776 
L 398.487273 292.3776 
L 73.832727 299.9808 
z
" style="fill:#bcbd22;"/>
   </g>
   <g id="PolyCollection_10">
    <path clip-path="url(#p22591a2a97)" d="M 73.832727 299.136 
L 73.832727 299.9808 
L 398.487273 292.3776 
L 398.487273 290.688 
L 398.487273 290.688 
L 73.832727 299.136 
z
" style="fill:#17becf;"/>
   </g>
   <g id="PolyCollection_11">
    <path clip-path="url(#p22591a2a97)" d="M 73.832727 298.2912 
L 73.832727 299.136 
L 398.487273 290.688 
L 398.487273 288.9984 
L 398.487273 288.9984 
L 73.832727 298.2912 
z
" style="fill:#1f77b4;"/>
   </g>
   <g id="PolyCollection_12">
    <path clip-path="url(#p22591a2a97)" d="M 73.832727 297.4464 
L 73.832727 298.2912 
L 398.487273 288.9984 
L 398.487273 287.3088 
L 398.487273 287.3088 
L 73.832727 297.4464 
z
" style="fill:#ff7f0e;"/>
   </g>
   <g id="PolyCollection_13">
    <path clip-path="url(#p22591a2a97)" d="M 73.832727 296.6016 
L 73.832727 297.4464 
L 398.487273 287.3088 
L 398.487273 285.6192 
L 398.487273 285.6192 
L 73.832727 296.6016 
z
" style="fill:#2ca02c;"/>
   </g>
   <g id="PolyCollection_14">
    <path clip-path="url(#p22591a2a97)" d="M 73.832727 295.7568 
L 73.832727 296.6016 
L 398.487273 285.6192 
L 398.487273 283.9296 
L 398.487273 283.9296 
L 73.832727 295.7568 
z
" style="fill:#d62728;"/>
   </g>
   <g id="PolyCollection_15">
    <path clip-path="url(#p22591a2a97)" d="M 73.832727 294.912 
L 73.832727 295.7568 
L 398.487273 283.9296 
L 398.487273 282.24 
L 398.487273 282.24 
L 73.832727 294.912 
z
" style="fill:#9467bd;"/>
   </g>
   <g id="PolyCollection_16">
    <path clip-path="url(#p22591a2a97)" d="M 73.832727 294.0672 
L 73.832727 294.912 
L 398.487273 282.24 
L 398.487273 280.5504 
L 398.487273 280.5504 
L 73.832727 294.0672 
z
" style="fill:#8c564b;"/>
   </g>
   <g id="PolyCollection_17">
    <path clip-path="url(#p22591a2a97)" d="M 73.832727 293.2224 
L 73.832727 294.0672 
L 398.487273 280.5504 
L 398.487273 278.8608 
L 398.487273 278.8608 
L 73.832727 293.2224 
z
" style="fill:#e377c2;"/>
   </g>
   <g id="PolyCollection_18">
    <path clip-path="url(#p22591a2a97)" d="M 73.832727 292.3776 
L 73.832727 293.2224 
L 398.487273 278.8608 
L 398.487273 277.1712 
L 398.487273 277.1712 
L 73.832727 292.3776 
z
" style="fill:#7f7f7f;"/>
   </g>
   <g id="PolyCollection_19">
    <path clip-path="url(#p22591a2a97)" d="M 73.832727 291.5328 
L 73.832727 292.3776 
L 398.487273 277.1712 
L 398.487273 275.4816 
L 398.487273 275.4816 
L 73.832727 291.5328 
z
" style="fill:#bcbd22;"/>
   </g>
   <g id="PolyCollection_20">
    <path clip-path="url(#p22591a2a97)" d="M 73.832727 290.688 
L 73.832727 291.5328 
L 398.487273 275.4816 
L 398.487273 273.792 
L 398.487273 273.792 
L 73.832727 290.688 
z
" style="fill:#17becf;"/>
   </g>
   <g id="PolyCollection_21">
    <path clip-path="url(#p22591a2a97)" d="M 73.832727 289.8432 
L 73.832727 290.688 
L 398.487273 273.792 
L 398.487273 272.1024 
L 398.487273 272.1024 
L 73.832727 289.8432 
z
" style="fill:#1f77b4;"/>
   </g>
   <g id="PolyCollection_22">
    <path clip-path="url(#p22591a2a97)" d="M 73.832727 288.9984 
L 73.832727 289.8432 
L 398.487273 272.1024 
L 398.487273 270.4128 
L 398.487273 270.4128 
L 73.832727 288.9984 
z
" style="fill:#ff7f0e;"/>
   </g>
   <g id="PolyCollection_23">
    <path clip-path="url(#p22591a2a97)" d="M 73.832727 288.1536 
L 73.832727 288.9984 
L 398.487273 270.4128 
L 398.487273 268.7232 
L 398.487273 268.7232 
L 73.832727 288.1536 
z
" style="fill:#2ca02c;"/>
   </g>
   <g id="PolyCollection_24">
    <path clip-path="url(#p22591a2a97)" d="M 73.832727 287.3088 
L 73.832727 288.1536 
L 398.487273 268.7232 
L 398.487273 267.0336 
L 398.487273 267.0336 
L 73.832727 287.3088 
z
" style="fill:#d62728;"/>
   </g>
   <g id="PolyCollection_25">
    <path clip-path="url(#p22591a2a97)" d="M 73.832727 286.464 
L 73.832727 287.3088 
L 398.487273 267.0336 
L 398.487273 265.344 
L 398.487273 265.344 
L 73.832727 286.464 
z
" style="fill:#9467bd;"/>
   </g>
   <g id="PolyCollection_26">
    <path clip-path="url(#p22591a2a97)" d="M 73.832727 285.6192 
L 73.832727 286.464 
L 398.487273 265.344 
L 398.487273 263.6544 
L 398.487273 263.6544 
L 73.832727 285.6192 
z
" style="fill:#8c564b;"/>
   </g>
   <g id="PolyCollection_27">
    <path clip-path="url(#p22591a2a97)" d="M 73.832727 284.7744 
L 73.832727 285.6192 
L 398.487273 263.6544 
L 398.487273 261.9648 
L 398.487273 261.9648 
L 73.832727 284.7744 
z
" style="fill:#e377c2;"/>
   </g>
   <g id="PolyCollection_28">
    <path clip-path="url(#p22591a2a97)" d="M 73.832727 283.9296 
L 73.832727 284.7744 
L 398.487273 261.9648 
L 398.487273 260.2752 
L 398.487273 260.2752 
L 73.832727 283.9296 
z
" style="fill:#7f7f7f;"/>
   </g>
   <g id="PolyCollection_29">
    <path clip-path="url(#p22591a2a97)" d="M 73.832727 283.0848 
L 73.832727 283.9296 
L 398.487273 260.2752 
L 398.487273 258.5856 
L 398.487273 258.5856 
L 73.832727 283.0848 
z
" style="fill:#bcbd22;"/>
   </g>
   <g id="PolyCollection_30">
    <path clip-path="url(#p22591a2a97)" d="M 73.832727 282.24 
L 73.832727 283.0848 
L 398.487273 258.5856 
L 398.487273 256.896 
L 398.487273 256.896 
L 73.832727 282.24 
z
" style="fill:#17becf;"/>
   </g>
   <g id="PolyCollection_31">
    <path clip-path="url(#p22591a2a97)" d="M 73.832727 281.3952 
L 73.832727 282.24 
L 398.487273 256.896 
L 398.487273 255.2064 
L 398.487273 255.2064 
L 73.832727 281.3952 
z
" style="fill:#1f77b4;"/>
   </g>
   <g id="PolyCollection_32">
    <path clip-path="url(#p22591a2a97)" d="M 73.832727 280.5504 
L 73.832727 281.3952 
L 398.487273 255.2064 
L 398.487273 253.5168 
L 398.487273 253.5168 
L 73.832727 280.5504 
z
" style="fill:#ff7f0e;"/>
   </g>
   <g id="PolyCollection_33">
    <path clip-path="url(#p22591a2a97)" d="M 73.832727 279.7056 
L 73.832727 280.5504 
L 398.487273 253.5168 
L 398.487273 251.8272 
L 398.487273 251.8272 
L 73.832727 279.7056 
z
" style="fill:#2ca02c;"/>
   </g>
   <g id="PolyCollection_34">
    <path clip-path="url(#p22591a2a97)" d="M 73.832727 278.8608 
L 73.832727 279.7056 
L 398.487273 251.8272 
L 398.487273 250.1376 
L 398.487273 250.1376 
L 73.832727 278.8608 
z
" style="fill:#d62728;"/>
   </g>
   <g id="PolyCollection_35">
    <path clip-path="url(#p22591a2a97)" d="M 73.832727 278.016 
L 73.832727 278.8608 
L 398.487273 250.1376 
L 398.487273 248.448 
L 398.487273 248.448 
L 73.832727 278.016 
z
" style="fill:#9467bd;"/>
   </g>
   <g id="PolyCollection_36">
    <path clip-path="url(#p22591a2a97)" d="M 73.832727 277.1712 
L 73.832727 278.016 
L 398.487273 248.448 
L 398.487273 246.7584 
L 398.487273 246.7584 
L 73.832727 277.1712 
z
" style="fill:#8c564b;"/>
   </g>
   <g id="PolyCollection_37">
    <path clip-path="url(#p22591a2a97)" d="M 73.832727 276.3264 
L 73.832727 277.1712 
L 398.487273 246.7584 
L 398.487273 245.0688 
L 398.487273 245.0688 
L 73.832727 276.3264 
z
" style="fill:#e377c2;"/>
   </g>
   <g id="PolyCollection_38">
    <path clip-path="url(#p22591a2a97)" d="M 73.832727 275.4816 
L 73.832727 276.3264 
L 398.487273 245.0688 
L 398.487273 243.3792 
L 398.487273 243.3792 
L 73.832727 275.4816 
z
" style="fill:#7f7f7f;"/>
   </g>
   <g id="PolyCollection_39">
    <path clip-path="url(#p22591a2a97)" d="M 73.832727 274.6368 
L 73.832727 275.4816 
L 398.487273 243.3792 
L 398.487273 241.6896 
L 398.487273 241.6896 
L 73.832727 274.6368 
z
" style="fill:#bcbd22;"/>
   </g>
   <g id="PolyCollection_40">
    <path clip-path="url(#p22591a2a97)" d="M 73.832727 273.792 
L 73.832727 274.6368 
L 398.487273 241.6896 
L 398.487273 240 
L 398.487273 240 
L 73.832727 273.792 
z
" style="fill:#17becf;"/>
   </g>
   <g id="PolyCollection_41">
    <path clip-path="url(#p22591a2a97)" d="M 73.832727 272.9472 
L 73.832727 273.792 
L 398.487273 240 
L 398.487273 238.3104 
L 398.487273 238.3104 
L 73.832727 272.9472 
z
" style="fill:#1f77b4;"/>
   </g>
   <g id="PolyCollection_42">
    <path clip-path="url(#p22591a2a97)" d="M 73.832727 272.1024 
L 73.832727 272.9472 
L 398.487273 238.3104 
L 398.487273 236.6208 
L 398.487273 236.6208 
L 73.832727 272.1024 
z
" style="fill:#ff7f0e;"/>
   </g>
   <g id="PolyCollection_43">
    <path clip-path="url(#p22591a2a97)" d="M 73.832727 271.2576 
L 73.832727 272.1024 
L 398.487273 236.6208 
L 398.487273 234.9312 
L 398.487273 234.9312 
L 73.832727 271.2576 
z
" style="fill:#2ca02c;"/>
   </g>
   <g id="PolyCollection_44">
    <path clip-path="url(#p22591a2a97)" d="M 73.832727 270.4128 
L 73.832727 271.2576 
L 398.487273 234.9312 
L 398.487273 233.2416 
L 398.487273 233.2416 
L 73.832727 270.4128 
z
" style="fill:#d62728;"/>
   </g>
   <g id="PolyCollection_45">
    <path clip-path="url(#p22591a2a97)" d="M 73.832727 269.568 
L 73.832727 270.4128 
L 398.487273 233.2416 
L 398.487273 231.552 
L 398.487273 231.552 
L 73.832727 269.568 
z
" style="fill:#9467bd;"/>
   </g>
   <g id="PolyCollection_46">
    <path clip-path="url(#p22591a2a97)" d="M 73.832727 268.7232 
L 73.832727 269.568 
L 398.487273 231.552 
L 398.487273 229.8624 
L 398.487273 229.8624 
L 73.832727 268.7232 
z
" style="fill:#8c564b;"/>
   </g>
   <g id="PolyCollection_47">
    <path clip-path="url(#p22591a2a97)" d="M 73.832727 267.8784 
L 73.832727 268.7232 
L 398.487273 229.8624 
L 398.487273 228.1728 
L 398.487273 228.1728 
L 73.832727 267.8784 
z
" style="fill:#e377c2;"/>
   </g>
   <g id="PolyCollection_48">
    <path clip-path="url(#p22591a2a97)" d="M 73.832727 267.0336 
L 73.832727 267.8784 
L 398.487273 228.1728 
L 398.487273 226.4832 
L 398.487273 226.4832 
L 73.832727 267.0336 
z
" style="fill:#7f7f7f;"/>
   </g>
   <g id="PolyCollection_49">
    <path clip-path="url(#p22591a2a97)" d="M 73.832727 266.1888 
L 73.832727 267.0336 
L 398.487273 226.4832 
L 398.487273 224.7936 
L 398.487273 224.7936 
L 73.832727 266.1888 
z
" style="fill:#bcbd22;"/>
   </g>
   <g id="PolyCollection_50">
    <path clip-path="url(#p22591a2a97)" d="M 73.832727 265.344 
L 73.832727 266.1888 
L 398.487273 224.7936 
L 398.487273 223.104 
L 398.487273 223.104 
L 73.832727 265.344 
z
" style="fill:#17becf;"/>
   </g>
   <g id="PolyCollection_51">
    <path clip-path="url(#p22591a2a97)" d="M 73.832727 264.4992 
L 73.832727 265.344 
L 398.487273 223.104 
L 398.487273 221.4144 
L 398.487273 221.4144 
L 73.832727 264.4992 
z
" style="fill:#1f77b4;"/>
   </g>
   <g id="PolyCollection_52">
    <path clip-path="url(#p22591a2a97)" d="M 73.832727 263.6544 
L 73.832727 264.4992 
L 398.487273 221.4144 
L 398.487273 219.7248 
L 398.487273 219.7248 
L 73.832727 263.6544 
z
" style="fill:#ff7f0e;"/>
   </g>
   <g id="PolyCollection_53">
    <path clip-path="url(#p22591a2a97)" d="M 73.832727 262.8096 
L 73.832727 263.6544 
L 398.487273 219.7248 
L 398.487273 218.0352 
L 398.487273 218.0352 
L 73.832727 262.8096 
z
" style="fill:#2ca02c;"/>
   </g>
   <g id="PolyCollection_54">
    <path clip-path="url(#p22591a2a97)" d="M 73.832727 261.9648 
L 73.832727 262.8096 
L 398.487273 218.0352 
L 398.487273 216.3456 
L 398.487273 216.3456 
L 73.832727 261.9648 
z
" style="fill:#d62728;"/>
   </g>
   <g id="PolyCollection_55">
    <path clip-path="url(#p22591a2a97)" d="M 73.832727 261.12 
L 73.832727 261.9648 
L 398.487273 216.3456 
L 398.487273 214.656 
L 398.487273 214.656 
L 73.832727 261.12 
z
" style="fill:#9467bd;"/>
   </g>
   <g id="PolyCollection_56">
    <path clip-path="url(#p22591a2a97)" d="M 73.832727 260.2752 
L 73.832727 261.12 
L 398.487273 214.656 
L 398.487273 212.9664 
L 398.487273 212.9664 
L 73.832727 260.2752 
z
" style="fill:#8c564b;"/>
   </g>
   <g id="PolyCollection_57">
    <path clip-path="url(#p22591a2a97)" d="M 73.832727 259.4304 
L 73.832727 260.2752 
L 398.487273 212.9664 
L 398.487273 211.2768 
L 398.487273 211.2768 
L 73.832727 259.4304 
z
" style="fill:#e377c2;"/>
   </g>
   <g id="PolyCollection_58">
    <path clip-path="url(#p22591a2a97)" d="M 73.832727 258.5856 
L 73.832727 259.4304 
L 398.487273 211.2768 
L 398.487273 209.5872 
L 398.487273 209.5872 
L 73.832727 258.5856 
z
" style="fill:#7f7f7f;"/>
   </g>
   <g id="PolyCollection_59">
    <path clip-path="url(#p22591a2a97)" d="M 73.832727 257.7408 
L 73.832727 258.5856 
L 398.487273 209.5872 
L 398.487273 207.8976 
L 398.487273 207.8976 
L 73.832727 257.7408 
z
" style="fill:#bcbd22;"/>
   </g>
   <g id="PolyCollection_60">
    <path clip-path="url(#p22591a2a97)" d="M 73.832727 256.896 
L 73.832727 257.7408 
L 398.487273 207.8976 
L 398.487273 206.208 
L 398.487273 206.208 
L 73.832727 256.896 
z
" style="fill:#17becf;"/>
   </g>
   <g id="PolyCollection_61">
    <path clip-path="url(#p22591a2a97)" d="M 73.832727 256.0512 
L 73.832727 256.896 
L 398.487273 206.208 
L 398.487273 204.5184 
L 398.487273 204.5184 
L 73.832727 256.0512 
z
" style="fill:#1f77b4;"/>
   </g>
   <g id="PolyCollection_62">
    <path clip-path="url(#p22591a2a97)" d="M 73.832727 255.2064 
L 73.832727 256.0512 
L 398.487273 204.5184 
L 398.487273 202.8288 
L 398.487273 202.8288 
L 73.832727 255.2064 
z
" style="fill:#ff7f0e;"/>
   </g>
   <g id="PolyCollection_63">
    <path clip-path="url(#p22591a2a97)" d="M 73.832727 254.3616 
L 73.832727 255.2064 
L 398.487273 202.8288 
L 398.487273 201.1392 
L 398.487273 201.1392 
L 73.832727 254.3616 
z
" style="fill:#2ca02c;"/>
   </g>
   <g id="PolyCollection_64">
    <path clip-path="url(#p22591a2a97)" d="M 73.832727 253.5168 
L 73.832727 254.3616 
L 398.487273 201.1392 
L 398.487273 199.4496 
L 398.487273 199.4496 
L 73.832727 253.5168 
z
" style="fill:#d62728;"/>
   </g>
   <g id="PolyCollection_65">
    <path clip-path="url(#p22591a2a97)" d="M 73.832727 252.672 
L 73.832727 253.5168 
L 398.487273 199.4496 
L 398.487273 197.76 
L 398.487273 197.76 
L 73.832727 252.672 
z
" style="fill:#9467bd;"/>
   </g>
   <g id="PolyCollection_66">
    <path clip-path="url(#p22591a2a97)" d="M 73.832727 251.8272 
L 73.832727 252.672 
L 398.487273 197.76 
L 398.487273 196.0704 
L 398.487273 196.0704 
L 73.832727 251.8272 
z
" style="fill:#8c564b;"/>
   </g>
   <g id="PolyCollection_67">
    <path clip-path="url(#p22591a2a97)" d="M 73.832727 250.9824 
L 73.832727 251.8272 
L 398.487273 196.0704 
L 398.487273 194.3808 
L 398.487273 194.3808 
L 73.832727 250.9824 
z
" style="fill:#e377c2;"/>
   </g>
   <g id="PolyCollection_68">
    <path clip-path="url(#p22591a2a97)" d="M 73.832727 250.1376 
L 73.832727 250.9824 
L 398.487273 194.3808 
L 398.487273 192.6912 
L 398.487273 192.6912 
L 73.832727 250.1376 
z
" style="fill:#7f7f7f;"/>
   </g>
   <g id="PolyCollection_69">
    <path clip-path="url(#p22591a2a97)" d="M 73.832727 249.2928 
L 73.832727 250.1376 
L 398.487273 192.6912 
L 398.487273 191.0016 
L 398.487273 191.0016 
L 73.832727 249.2928 
z
" style="fill:#bcbd22;"/>
   </g>
   <g id="PolyCollection_70">
    <path clip-path="url(#p22591a2a97)" d="M 73.832727 248.448 
L 73.832727 249.2928 
L 398.487273 191.0016 
L 398.487273 189.312 
L 398.487273 189.312 
L 73.832727 248.448 
z
" style="fill:#17becf;"/>
   </g>
   <g id="PolyCollection_71">
    <path clip-path="url(#p22591a2a97)" d="M 73.832727 247.6032 
L 73.832727 248.448 
L 398.487273 189.312 
L 398.487273 187.6224 
L 398.487273 187.6224 
L 73.832727 247.6032 
z
" style="fill:#1f77b4;"/>
   </g>
   <g id="PolyCollection_72">
    <path clip-path="url(#p22591a2a97)" d="M 73.832727 246.7584 
L 73.832727 247.6032 
L 398.487273 187.6224 
L 398.487273 185.9328 
L 398.487273 185.9328 
L 73.832727 246.7584 
z
" style="fill:#ff7f0e;"/>
   </g>
   <g id="PolyCollection_73">
    <path clip-path="url(#p22591a2a97)" d="M 73.832727 245.9136 
L 73.832727 246.7584 
L 398.487273 185.9328 
L 398.487273 184.2432 
L 398.487273 184.2432 
L 73.832727 245.9136 
z
" style="fill:#2ca02c;"/>
   </g>
   <g id="PolyCollection_74">
    <path clip-path="url(#p22591a2a97)" d="M 73.832727 245.0688 
L 73.832727 245.9136 
L 398.487273 184.2432 
L 398.487273 182.5536 
L 398.487273 182.5536 
L 73.832727 245.0688 
z
" style="fill:#d62728;"/>
   </g>
   <g id="PolyCollection_75">
    <path clip-path="url(#p22591a2a97)" d="M 73.832727 244.224 
L 73.832727 245.0688 
L 398.487273 182.5536 
L 398.487273 180.864 
L 398.487273 180.864 
L 73.832727 244.224 
z
" style="fill:#9467bd;"/>
   </g>
   <g id="PolyCollection_76">
    <path clip-path="url(#p22591a2a97)" d="M 73.832727 243.3792 
L 73.832727 244.224 
L 398.487273 180.864 
L 398.487273 179.1744 
L 398.487273 179.1744 
L 73.832727 243.3792 
z
" style="fill:#8c564b;"/>
   </g>
   <g id="PolyCollection_77">
    <path clip-path="url(#p22591a2a97)" d="M 73.832727 242.5344 
L 73.832727 243.3792 
L 398.487273 179.1744 
L 398.487273 177.4848 
L 398.487273 177.4848 
L 73.832727 242.5344 
z
" style="fill:#e377c2;"/>
   </g>
   <g id="PolyCollection_78">
    <path clip-path="url(#p22591a2a97)" d="M 73.832727 241.6896 
L 73.832727 242.5344 
L 398.487273 177.4848 
L 398.487273 175.7952 
L 398.487273 175.7952 
L 73.832727 241.6896 
z
" style="fill:#7f7f7f;"/>
   </g>
   <g id="PolyCollection_79">
    <path clip-path="url(#p22591a2a97)" d="M 73.832727 240.8448 
L 73.832727 241.6896 
L 398.487273 175.7952 
L 398.487273 174.1056 
L 398.487273 174.1056 
L 73.832727 240.8448 
z
" style="fill:#bcbd22;"/>
   </g>
   <g id="PolyCollection_80">
    <path clip-path="url(#p22591a2a97)" d="M 73.832727 240 
L 73.832727 240.8448 
L 398.487273 174.1056 
L 398.487273 172.416 
L 398.487273 172.416 
L 73.832727 240 
z
" style="fill:#17becf;"/>
   </g>
   <g id="PolyCollection_81">
    <path clip-path="url(#p22591a2a97)" d="M 73.832727 239.1552 
L 73.832727 240 
L 398.487273 172.416 
L 398.487273 170.7264 
L 398.487273 170.7264 
L 73.832727 239.1552 
z
" style="fill:#1f77b4;"/>
   </g>
   <g id="PolyCollection_82">
    <path clip-path="url(#p22591a2a97)" d="M 73.832727 238.3104 
L 73.832727 239.1552 
L 398.487273 170.7264 
L 398.487273 169.0368 
L 398.487273 169.0368 
L 73.832727 238.3104 
z
" style="fill:#ff7f0e;"/>
   </g>
   <g id="PolyCollection_83">
    <path clip-path="url(#p22591a2a97)" d="M 73.832727 237.4656 
L 73.832727 238.3104 
L 398.487273 169.0368 
L 398.487273 167.3472 
L 398.487273 167.3472 
L 73.832727 237.4656 
z
" style="fill:#2ca02c;"/>
   </g>
   <g id="PolyCollection_84">
    <path clip-path="url(#p22591a2a97)" d="M 73.832727 236.6208 
L 73.832727 237.4656 
L 398.487273 167.3472 
L 398.487273 165.6576 
L 398.487273 165.6576 
L 73.832727 236.6208 
z
" style="fill:#d62728;"/>
   </g>
   <g id="PolyCollection_85">
    <path clip-path="url(#p22591a2a97)" d="M 73.832727 235.776 
L 73.832727 236.6208 
L 398.487273 165.6576 
L 398.487273 163.968 
L 398.487273 163.968 
L 73.832727 235.776 
z
" style="fill:#9467bd;"/>
   </g>
   <g id="PolyCollection_86">
    <path clip-path="url(#p22591a2a97)" d="M 73.832727 234.9312 
L 73.832727 235.776 
L 398.487273 163.968 
L 398.487273 162.2784 
L 398.487273 162.2784 
L 73.832727 234.9312 
z
" style="fill:#8c564b;"/>
   </g>
   <g id="PolyCollection_87">
    <path clip-path="url(#p22591a2a97)" d="M 73.832727 234.0864 
L 73.832727 234.9312 
L 398.487273 162.2784 
L 398.487273 160.5888 
L 398.487273 160.5888 
L 73.832727 234.0864 
z
" style="fill:#e377c2;"/>
   </g>
   <g id="PolyCollection_88">
    <path clip-path="url(#p22591a2a97)" d="M 73.832727 233.2416 
L 73.832727 234.0864 
L 398.487273 160.5888 
L 398.487273 158.8992 
L 398.487273 158.8992 
L 73.832727 233.2416 
z
" style="fill:#7f7f7f;"/>
   </g>
   <g id="PolyCollection_89">
    <path clip-path="url(#p22591a2a97)" d="M 73.832727 232.3968 
L 73.832727 233.2416 
L 398.487273 158.8992 
L 398.487273 157.2096 
L 398.487273 157.2096 
L 73.832727 232.3968 
z
" style="fill:#bcbd22;"/>
   </g>
   <g id="PolyCollection_90">
    <path clip-path="url(#p22591a2a97)" d="M 73.832727 231.552 
L 73.832727 232.3968 
L 398.487273 157.2096 
L 398.487273 155.52 
L 398.487273 155.52 
L 73.832727 231.552 
z
" style="fill:#17becf;"/>
   </g>
   <g id="PolyCollection_91">
    <path clip-path="url(#p22591a2a97)" d="M 73.832727 230.7072 
L 73.832727 231.552 
L 398.487273 155.52 
L 398.487273 153.8304 
L 398.487273 153.8304 
L 73.832727 230.7072 
z
" style="fill:#1f77b4;"/>
   </g>
   <g id="PolyCollection_92">
    <path clip-path="url(#p22591a2a97)" d="M 73.832727 229.8624 
L 73.832727 230.7072 
L 398.487273 153.8304 
L 398.487273 152.1408 
L 398.487273 152.1408 
L 73.832727 229.8624 
z
" style="fill:#ff7f0e;"/>
   </g>
   <g id="PolyCollection_93">
    <path clip-path="url(#p22591a2a97)" d="M 73.832727 229.0176 
L 73.832727 229.8624 
L 398.487273 152.1408 
L 398.487273 150.4512 
L 398.487273 150.4512 
L 73.832727 229.0176 
z
" style="fill:#2ca02c;"/>
   </g>
   <g id="PolyCollection_94">
    <path clip-path="url(#p22591a2a97)" d="M 73.832727 228.1728 
L 73.832727 229.0176 
L 398.487273 150.4512 
L 398.487273 148.7616 
L 398.487273 148.7616 
L 73.832727 228.1728 
z
" style="fill:#d62728;"/>
   </g>
   <g id="PolyCollection_95">
    <path clip-path="url(#p22591a2a97)" d="M 73.832727 227.328 
L 73.832727 228.1728 
L 398.487273 148.7616 
L 398.487273 147.072 
L 398.487273 147.072 
L 73.832727 227.328 
z
" style="fill:#9467bd;"/>
   </g>
   <g id="PolyCollection_96">
    <path clip-path="url(#p22591a2a97)" d="M 73.832727 226.4832 
L 73.832727 227.328 
L 398.487273 147.072 
L 398.487273 145.3824 
L 398.487273 145.3824 
L 73.832727 226.4832 
z
" style="fill:#8c564b;"/>
   </g>
   <g id="PolyCollection_97">
    <path clip-path="url(#p22591a2a97)" d="M 73.832727 225.6384 
L 73.832727 226.4832 
L 398.487273 145.3824 
L 398.487273 143.6928 
L 398.487273 143.6928 
L 73.832727 225.6384 
z
" style="fill:#e377c2;"/>
   </g>
   <g id="PolyCollection_98">
    <path clip-path="url(#p22591a2a97)" d="M 73.832727 224.7936 
L 73.832727 225.6384 
L 398.487273 143.6928 
L 398.487273 142.0032 
L 398.487273 142.0032 
L 73.832727 224.7936 
z
" style="fill:#7f7f7f;"/>
   </g>
   <g id="PolyCollection_99">
    <path clip-path="url(#p22591a2a97)" d="M 73.832727 223.9488 
L 73.832727 224.7936 
L 398.487273 142.0032 
L 398.487273 140.3136 
L 398.487273 140.3136 
L 73.832727 223.9488 
z
" style="fill:#bcbd22;"/>
   </g>
   <g id="PolyCollection_100">
    <path clip-path="url(#p22591a2a97)" d="M 73.832727 223.104 
L 73.832727 223.9488 
L 398.487273 140.3136 
L 398.487273 138.624 
L 398.487273 138.624 
L 73.832727 223.104 
z
" style="fill:#17becf;"/>
   </g>
   <g id="PolyCollection_101">
    <path clip-path="url(#p22591a2a97)" d="M 73.832727 222.2592 
L 73.832727 223.104 
L 398.487273 138.624 
L 398.487273 136.9344 
L 398.487273 136.9344 
L 73.832727 222.2592 
z
" style="fill:#1f77b4;"/>
   </g>
   <g id="PolyCollection_102">
    <path clip-path="url(#p22591a2a97)" d="M 73.832727 221.4144 
L 73.832727 222.2592 
L 398.487273 136.9344 
L 398.487273 135.2448 
L 398.487273 135.2448 
L 73.832727 221.4144 
z
" style="fill:#ff7f0e;"/>
   </g>
   <g id="PolyCollection_103">
    <path clip-path="url(#p22591a2a97)" d="M 73.832727 220.5696 
L 73.832727 221.4144 
L 398.487273 135.2448 
L 398.487273 133.5552 
L 398.487273 133.5552 
L 73.832727 220.5696 
z
" style="fill:#2ca02c;"/>
   </g>
   <g id="PolyCollection_104">
    <path clip-path="url(#p22591a2a97)" d="M 73.832727 219.7248 
L 73.832727 220.5696 
L 398.487273 133.5552 
L 398.487273 131.8656 
L 398.487273 131.8656 
L 73.832727 219.7248 
z
" style="fill:#d62728;"/>
   </g>
   <g id="PolyCollection_105">
    <path clip-path="url(#p22591a2a97)" d="M 73.832727 218.88 
L 73.832727 219.7248 
L 398.487273 131.8656 
L 398.487273 130.176 
L 398.487273 130.176 
L 73.832727 218.88 
z
" style="fill:#9467bd;"/>
   </g>
   <g id="PolyCollection_106">
    <path clip-path="url(#p22591a2a97)" d="M 73.832727 218.0352 
L 73.832727 218.88 
L 398.487273 130.176 
L 398.487273 128.4864 
L 398.487273 128.4864 
L 73.832727 218.0352 
z
" style="fill:#8c564b;"/>
   </g>
   <g id="PolyCollection_107">
    <path clip-path="url(#p22591a2a97)" d="M 73.832727 217.1904 
L 73.832727 218.0352 
L 398.487273 128.4864 
L 398.487273 126.7968 
L 398.487273 126.7968 
L 73.832727 217.1904 
z
" style="fill:#e377c2;"/>
   </g>
   <g id="PolyCollection_108">
    <path clip-path="url(#p22591a2a97)" d="M 73.832727 216.3456 
L 73.832727 217.1904 
L 398.487273 126.7968 
L 398.487273 125.1072 
L 398.487273 125.1072 
L 73.832727 216.3456 
z
" style="fill:#7f7f7f;"/>
   </g>
   <g id="PolyCollection_109">
    <path clip-path="url(#p22591a2a97)" d="M 73.832727 215.5008 
L 73.832727 216.3456 
L 398.487273 125.1072 
L 398.487273 123.4176 
L 398.487273 123.4176 
L 73.832727 215.5008 
z
" style="fill:#bcbd22;"/>
   </g>
   <g id="PolyCollection_110">
    <path clip-path="url(#p22591a2a97)" d="M 73.832727 214.656 
L 73.832727 215.5008 
L 398.487273 123.4176 
L 398.487273 121.728 
L 398.487273 121.728 
L 73.832727 214.656 
z
" style="fill:#17becf;"/>
   </g>
   <g id="PolyCollection_111">
    <path clip-path="url(#p22591a2a97)" d="M 73.832727 213.8112 
L 73.832727 214.656 
L 398.487273 121.728 
L 398.487273 120.0384 
L 398.487273 120.0384 
L 73.832727 213.8112 
z
" style="fill:#1f77b4;"/>
   </g>
   <g id="PolyCollection_112">
    <path clip-path="url(#p22591a2a97)" d="M 73.832727 212.9664 
L 73.832727 213.8112 
L 398.487273 120.0384 
L 398.487273 118.3488 
L 398.487273 118.3488 
L 73.832727 212.9664 
z
" style="fill:#ff7f0e;"/>
   </g>
   <g id="PolyCollection_113">
    <path clip-path="url(#p22591a2a97)" d="M 73.832727 212.1216 
L 73.832727 212.9664 
L 398.487273 118.3488 
L 398.487273 116.6592 
L 398.487273 116.6592 
L 73.832727 212.1216 
z
" style="fill:#2ca02c;"/>
   </g>
   <g id="PolyCollection_114">
    <path clip-path="url(#p22591a2a97)" d="M 73.832727 211.2768 
L 73.832727 212.1216 
L 398.487273 116.6592 
L 398.487273 114.9696 
L 398.487273 114.9696 
L 73.832727 211.2768 
z
" style="fill:#d62728;"/>
   </g>
   <g id="PolyCollection_115">
    <path clip-path="url(#p22591a2a97)" d="M 73.832727 210.432 
L 73.832727 211.2768 
L 398.487273 114.9696 
L 398.487273 113.28 
L 398.487273 113.28 
L 73.832727 210.432 
z
" style="fill:#9467bd;"/>
   </g>
   <g id="PolyCollection_116">
    <path clip-path="url(#p22591a2a97)" d="M 73.832727 209.5872 
L 73.832727 210.432 
L 398.487273 113.28 
L 398.487273 111.5904 
L 398.487273 111.5904 
L 73.832727 209.5872 
z
" style="fill:#8c564b;"/>
   </g>
   <g id="PolyCollection_117">
    <path clip-path="url(#p22591a2a97)" d="M 73.832727 208.7424 
L 73.832727 209.5872 
L 398.487273 111.5904 
L 398.487273 109.9008 
L 398.487273 109.9008 
L 73.832727 208.7424 
z
" style="fill:#e377c2;"/>
   </g>
   <g id="PolyCollection_118">
    <path clip-path="url(#p22591a2a97)" d="M 73.832727 207.8976 
L 73.832727 208.7424 
L 398.487273 109.9008 
L 398.487273 108.2112 
L 398.487273 108.2112 
L 73.832727 207.8976 
z
" style="fill:#7f7f7f;"/>
   </g>
   <g id="PolyCollection_119">
    <path clip-path="url(#p22591a2a97)" d="M 73.832727 207.0528 
L 73.832727 207.8976 
L 398.487273 108.2112 
L 398.487273 106.5216 
L 398.487273 106.5216 
L 73.832727 207.0528 
z
" style="fill:#bcbd22;"/>
   </g>
   <g id="PolyCollection_120">
    <path clip-path="url(#p22591a2a97)" d="M 73.832727 206.208 
L 73.832727 207.0528 
L 398.487273 106.5216 
L 398.487273 104.832 
L 398.487273 104.832 
L 73.832727 206.208 
z
" style="fill:#17becf;"/>
   </g>
   <g id="PolyCollection_121">
    <path clip-path="url(#p22591a2a97)" d="M 73.832727 205.3632 
L 73.832727 206.208 
L 398.487273 104.832 
L 398.487273 103.1424 
L 398.487273 103.1424 
L 73.832727 205.3632 
z
" style="fill:#1f77b4;"/>
   </g>
   <g id="PolyCollection_122">
    <path clip-path="url(#p22591a2a97)" d="M 73.832727 204.5184 
L 73.832727 205.3632 
L 398.487273 103.1424 
L 398.487273 101.4528 
L 398.487273 101.4528 
L 73.832727 204.5184 
z
" style="fill:#ff7f0e;"/>
   </g>
   <g id="PolyCollection_123">
    <path clip-path="url(#p22591a2a97)" d="M 73.832727 203.6736 
L 73.832727 204.5184 
L 398.487273 101.4528 
L 398.487273 99.7632 
L 398.487273 99.7632 
L 73.832727 203.6736 
z
" style="fill:#2ca02c;"/>
   </g>
   <g id="PolyCollection_124">
    <path clip-path="url(#p22591a2a97)" d="M 73.832727 202.8288 
L 73.832727 203.6736 
L 398.487273 99.7632 
L 398.487273 98.0736 
L 398.487273 98.0736 
L 73.832727 202.8288 
z
" style="fill:#d62728;"/>
   </g>
   <g id="PolyCollection_125">
    <path clip-path="url(#p22591a2a97)" d="M 73.832727 201.984 
L 73.832727 202.8288 
L 398.487273 98.0736 
L 398.487273 96.384 
L 398.487273 96.384 
L 73.832727 201.984 
z
" style="fill:#9467bd;"/>
   </g>
   <g id="PolyCollection_126">
    <path clip-path="url(#p22591a2a97)" d="M 73.832727 201.1392 
L 73.832727 201.984 
L 398.487273 96.384 
L 398.487273 94.6944 
L 398.487273 94.6944 
L 73.832727 201.1392 
z
" style="fill:#8c564b;"/>
   </g>
   <g id="PolyCollection_127">
    <path clip-path="url(#p22591a2a97)" d="M 73.832727 200.2944 
L 73.832727 201.1392 
L 398.487273 94.6944 
L 398.487273 93.0048 
L 398.487273 93.0048 
L 73.832727 200.2944 
z
" style="fill:#e377c2;"/>
   </g>
   <g id="PolyCollection_128">
    <path clip-path="url(#p22591a2a97)" d="M 73.832727 199.4496 
L 73.832727 200.2944 
L 398.487273 93.0048 
L 398.487273 91.3152 
L 398.487273 91.3152 
L 73.832727 199.4496 
z
" style="fill:#7f7f7f;"/>
   </g>
   <g id="PolyCollection_129">
    <path clip-path="url(#p22591a2a97)" d="M 73.832727 198.6048 
L 73.832727 199.4496 
L 398.487273 91.3152 
L 398.487273 89.6256 
L 398.487273 89.6256 
L 73.832727 198.6048 
z
" style="fill:#bcbd22;"/>
   </g>
   <g id="PolyCollection_130">
    <path clip-path="url(#p22591a2a97)" d="M 73.832727 197.76 
L 73.832727 198.6048 
L 398.487273 89.6256 
L 398.487273 87.936 
L 398.487273 87.936 
L 73.832727 197.76 
z
" style="fill:#17becf;"/>
   </g>
   <g id="PolyCollection_131">
    <path clip-path="url(#p22591a2a97)" d="M 73.832727 196.9152 
L 73.832727 197.76 
L 398.487273 87.936 
L 398.487273 86.2464 
L 398.487273 86.2464 
L 73.832727 196.9152 
z
" style="fill:#1f77b4;"/>
   </g>
   <g id="PolyCollection_132">
    <path clip-path="url(#p22591a2a97)" d="M 73.832727 196.0704 
L 73.832727 196.9152 
L 398.487273 86.2464 
L 398.487273 84.5568 
L 398.487273 84.5568 
L 73.832727 196.0704 
z
" style="fill:#ff7f0e;"/>
   </g>
   <g id="PolyCollection_133">
    <path clip-path="url(#p22591a2a97)" d="M 73.832727 195.2256 
L 73.832727 196.0704 
L 398.487273 84.5568 
L 398.487273 82.8672 
L 398.487273 82.8672 
L 73.832727 195.2256 
z
" style="fill:#2ca02c;"/>
   </g>
   <g id="PolyCollection_134">
    <path clip-path="url(#p22591a2a97)" d="M 73.832727 194.3808 
L 73.832727 195.2256 
L 398.487273 82.8672 
L 398.487273 81.1776 
L 398.487273 81.1776 
L 73.832727 194.3808 
z
" style="fill:#d62728;"/>
   </g>
   <g id="PolyCollection_135">
    <path clip-path="url(#p22591a2a97)" d="M 73.832727 193.536 
L 73.832727 194.3808 
L 398.487273 81.1776 
L 398.487273 79.488 
L 398.487273 79.488 
L 73.832727 193.536 
z
" style="fill:#9467bd;"/>
   </g>
   <g id="PolyCollection_136">
    <path clip-path="url(#p22591a2a97)" d="M 73.832727 192.6912 
L 73.832727 193.536 
L 398.487273 79.488 
L 398.487273 77.7984 
L 398.487273 77.7984 
L 73.832727 192.6912 
z
" style="fill:#8c564b;"/>
   </g>
   <g id="PolyCollection_137">
    <path clip-path="url(#p22591a2a97)" d="M 73.832727 191.8464 
L 73.832727 192.6912 
L 398.487273 77.7984 
L 398.487273 76.1088 
L 398.487273 76.1088 
L 73.832727 191.8464 
z
" style="fill:#e377c2;"/>
   </g>
   <g id="PolyCollection_138">
    <path clip-path="url(#p22591a2a97)" d="M 73.832727 191.0016 
L 73.832727 191.8464 
L 398.487273 76.1088 
L 398.487273 74.4192 
L 398.487273 74.4192 
L 73.832727 191.0016 
z
" style="fill:#7f7f7f;"/>
   </g>
   <g id="PolyCollection_139">
    <path clip-path="url(#p22591a2a97)" d="M 73.832727 190.1568 
L 73.832727 191.0016 
L 398.487273 74.4192 
L 398.487273 72.7296 
L 398.487273 72.7296 
L 73.832727 190.1568 
z
" style="fill:#bcbd22;"/>
   </g>
   <g id="PolyCollection_140">
    <path clip-path="url(#p22591a2a97)" d="M 73.832727 189.312 
L 73.832727 190.1568 
L 398.487273 72.7296 
L 398.487273 71.04 
L 398.487273 71.04 
L 73.832727 189.312 
z
" style="fill:#17becf;"/>
   </g>
   <g id="PolyCollection_141">
    <path clip-path="url(#p22591a2a97)" d="M 73.832727 188.4672 
L 73.832727 189.312 
L 398.487273 71.04 
L 398.487273 69.3504 
L 398.487273 69.3504 
L 73.832727 188.4672 
z
" style="fill:#1f77b4;"/>
   </g>
   <g id="PolyCollection_142">
    <path clip-path="url(#p22591a2a97)" d="M 73.832727 187.6224 
L 73.832727 188.4672 
L 398.487273 69.3504 
L 398.487273 67.6608 
L 398.487273 67.6608 
L 73.832727 187.6224 
z
" style="fill:#ff7f0e;"/>
   </g>
   <g id="PolyCollection_143">
    <path clip-path="url(#p22591a2a97)" d="M 73.832727 186.7776 
L 73.832727 187.6224 
L 398.487273 67.6608 
L 398.487273 65.9712 
L 398.487273 65.9712 
L 73.832727 186.7776 
z
" style="fill:#2ca02c;"/>
   </g>
   <g id="PolyCollection_144">
    <path clip-path="url(#p22591a2a97)" d="M 73.832727 185.9328 
L 73.832727 186.7776 
L 398.487273 65.9712 
L 398.487273 64.2816 
L 398.487273 64.2816 
L 73.832727 185.9328 
z
" style="fill:#d62728;"/>
   </g>
   <g id="PolyCollection_145">
    <path clip-path="url(#p22591a2a97)" d="M 73.832727 185.088 
L 73.832727 185.9328 
L 398.487273 64.2816 
L 398.487273 62.592 
L 398.487273 62.592 
L 73.832727 185.088 
z
" style="fill:#9467bd;"/>
   </g>
   <g id="PolyCollection_146">
    <path clip-path="url(#p22591a2a97)" d="M 73.832727 184.2432 
L 73.832727 185.088 
L 398.487273 62.592 
L 398.487273 60.9024 
L 398.487273 60.9024 
L 73.832727 184.2432 
z
" style="fill:#8c564b;"/>
   </g>
   <g id="PolyCollection_147">
    <path clip-path="url(#p22591a2a97)" d="M 73.832727 183.3984 
L 73.832727 184.2432 
L 398.487273 60.9024 
L 398.487273 59.2128 
L 398.487273 59.2128 
L 73.832727 183.3984 
z
" style="fill:#e377c2;"/>
   </g>
   <g id="PolyCollection_148">
    <path clip-path="url(#p22591a2a97)" d="M 73.832727 182.5536 
L 73.832727 183.3984 
L 398.487273 59.2128 
L 398.487273 57.5232 
L 398.487273 57.5232 
L 73.832727 182.5536 
z
" style="fill:#7f7f7f;"/>
   </g>
   <g id="PolyCollection_149">
    <path clip-path="url(#p22591a2a97)" d="M 73.832727 181.7088 
L 73.832727 182.5536 
L 398.487273 57.5232 
L 398.487273 55.8336 
L 398.487273 55.8336 
L 73.832727 181.7088 
z
" style="fill:#bcbd22;"/>
   </g>
   <g id="PolyCollection_150">
    <path clip-path="url(#p22591a2a97)" d="M 73.832727 180.864 
L 73.832727 181.7088 
L 398.487273 55.8336 
L 398.487273 54.144 
L 398.487273 54.144 
L 73.832727 180.864 
z
" style="fill:#17becf;"/>
   </g>
   <g id="matplotlib.axis_1">
    <g id="xtick_1">
     <g id="line2d_1">
      <defs>
       <path d="M 0 0 
L 0 3.5 
" id="m1cda56db7d" style="stroke:#000000;stroke-width:0.8;"/>
      </defs>
      <g>
       <use style="stroke:#000000;stroke-width:0.8;" x="73.832727" xlink:href="#m1cda56db7d" y="307.584"/>
      </g>
     </g>
     <g id="text_1">
      <!-- 0.0 -->
      <defs>
       <path d="M 31.78125 66.40625 
Q 24.171875 66.40625 20.328125 58.90625 
Q 16.5 51.421875 16.5 36.375 
Q 16.5 21.390625 20.328125 13.890625 
Q 24.171875 6.390625 31.78125 6.390625 
Q 39.453125 6.390625 43.28125 13.890625 
Q 47.125 21.390625 47.125 36.375 
Q 47.125 51.421875 43.28125 58.90625 
Q 39.453125 66.40625 31.78125 66.40625 
z
M 31.78125 74.21875 
Q 44.046875 74.21875 50.515625 64.515625 
Q 56.984375 54.828125 56.984375 36.375 
Q 56.984375 17.96875 50.515625 8.265625 
Q 44.046875 -1.421875 31.78125 -1.421875 
Q 19.53125 -1.421875 13.0625 8.265625 
Q 6.59375 17.96875 6.59375 36.375 
Q 6.59375 54.828125 13.0625 64.515625 
Q 19.53125 74.21875 31.78125 74.21875 
z
" id="DejaVuSans-30"/>
       <path d="M 10.6875 12.40625 
L 21 12.40625 
L 21 0 
L 10.6875 0 
z
" id="DejaVuSans-2e"/>
      </defs>
      <g transform="translate(65.881165 322.182437)scale(0.1 -0.1)">
       <use xlink:href="#DejaVuSans-30"/>
       <use x="63.623047" xlink:href="#DejaVuSans-2e"/>
       <use x="95.410156" xlink:href="#DejaVuSans-30"/>
      </g>
     </g>
    </g>
    <g id="xtick_2">
     <g id="line2d_2">
      <g>
       <use style="stroke:#000000;stroke-width:0.8;" x="138.763636" xlink:href="#m1cda56db7d" y="307.584"/>
      </g>
     </g>
     <g id="text_2">
      <!-- 0.2 -->
      <defs>
       <path d="M 19.1875 8.296875 
L 53.609375 8.296875 
L 53.609375 0 
L 7.328125 0 
L 7.328125 8.296875 
Q 12.9375 14.109375 22.625 23.890625 
Q 32.328125 33.6875 34.8125 36.53125 
Q 39.546875 41.84375 41.421875 45.53125 
Q 43.3125 49.21875 43.3125 52.78125 
Q 43.3125 58.59375 39.234375 62.25 
Q 35.15625 65.921875 28.609375 65.921875 
Q 23.96875 65.921875 18.8125 64.3125 
Q 13.671875 62.703125 7.8125 59.421875 
L 7.8125 69.390625 
Q 13.765625 71.78125 18.9375 73 
Q 24.125 74.21875 28.421875 74.21875 
Q 39.75 74.21875 46.484375 68.546875 
Q 53.21875 62.890625 53.21875 53.421875 
Q 53.21875 48.921875 51.53125 44.890625 
Q 49.859375 40.875 45.40625 35.40625 
Q 44.1875 33.984375 37.640625 27.21875 
Q 31.109375 20.453125 19.1875 8.296875 
z
" id="DejaVuSans-32"/>
      </defs>
      <g transform="translate(130.812074 322.182437)scale(0.1 -0.1)">
       <use xlink:href="#DejaVuSans-30"/>
       <use x="63.623047" xlink:href="#DejaVuSans-2e"/>
       <use x="95.410156" xlink:href="#DejaVuSans-32"/>
      </g>
     </g>
    </g>
    <g id="xtick_3">
     <g id="line2d_3">
      <g>
       <use style="stroke:#000000;stroke-width:0.8;" x="203.694545" xlink:href="#m1cda56db7d" y="307.584"/>
      </g>
     </g>
     <g id="text_3">
      <!-- 0.4 -->
      <defs>
       <path d="M 37.796875 64.3125 
L 12.890625 25.390625 
L 37.796875 25.390625 
z
M 35.203125 72.90625 
L 47.609375 72.90625 
L 47.609375 25.390625 
L 58.015625 25.390625 
L 58.015625 17.1875 
L 47.609375 17.1875 
L 47.609375 0 
L 37.796875 0 
L 37.796875 17.1875 
L 4.890625 17.1875 
L 4.890625 26.703125 
z
" id="DejaVuSans-34"/>
      </defs>
      <g transform="translate(195.742983 322.182437)scale(0.1 -0.1)">
       <use xlink:href="#DejaVuSans-30"/>
       <use x="63.623047" xlink:href="#DejaVuSans-2e"/>
       <use x="95.410156" xlink:href="#DejaVuSans-34"/>
      </g>
     </g>
    </g>
    <g id="xtick_4">
     <g id="line2d_4">
      <g>
       <use style="stroke:#000000;stroke-width:0.8;" x="268.625455" xlink:href="#m1cda56db7d" y="307.584"/>
      </g>
     </g>
     <g id="text_4">
      <!-- 0.6 -->
      <defs>
       <path d="M 33.015625 40.375 
Q 26.375 40.375 22.484375 35.828125 
Q 18.609375 31.296875 18.609375 23.390625 
Q 18.609375 15.53125 22.484375 10.953125 
Q 26.375 6.390625 33.015625 6.390625 
Q 39.65625 6.390625 43.53125 10.953125 
Q 47.40625 15.53125 47.40625 23.390625 
Q 47.40625 31.296875 43.53125 35.828125 
Q 39.65625 40.375 33.015625 40.375 
z
M 52.59375 71.296875 
L 52.59375 62.3125 
Q 48.875 64.0625 45.09375 64.984375 
Q 41.3125 65.921875 37.59375 65.921875 
Q 27.828125 65.921875 22.671875 59.328125 
Q 17.53125 52.734375 16.796875 39.40625 
Q 19.671875 43.65625 24.015625 45.921875 
Q 28.375 48.1875 33.59375 48.1875 
Q 44.578125 48.1875 50.953125 41.515625 
Q 57.328125 34.859375 57.328125 23.390625 
Q 57.328125 12.15625 50.6875 5.359375 
Q 44.046875 -1.421875 33.015625 -1.421875 
Q 20.359375 -1.421875 13.671875 8.265625 
Q 6.984375 17.96875 6.984375 36.375 
Q 6.984375 53.65625 15.1875 63.9375 
Q 23.390625 74.21875 37.203125 74.21875 
Q 40.921875 74.21875 44.703125 73.484375 
Q 48.484375 72.75 52.59375 71.296875 
z
" id="DejaVuSans-36"/>
      </defs>
      <g transform="translate(260.673892 322.182437)scale(0.1 -0.1)">
       <use xlink:href="#DejaVuSans-30"/>
       <use x="63.623047" xlink:href="#DejaVuSans-2e"/>
       <use x="95.410156" xlink:href="#DejaVuSans-36"/>
      </g>
     </g>
    </g>
    <g id="xtick_5">
     <g id="line2d_5">
      <g>
       <use style="stroke:#000000;stroke-width:0.8;" x="333.556364" xlink:href="#m1cda56db7d" y="307.584"/>
      </g>
     </g>
     <g id="text_5">
      <!-- 0.8 -->
      <defs>
       <path d="M 31.78125 34.625 
Q 24.75 34.625 20.71875 30.859375 
Q 16.703125 27.09375 16.703125 20.515625 
Q 16.703125 13.921875 20.71875 10.15625 
Q 24.75 6.390625 31.78125 6.390625 
Q 38.8125 6.390625 42.859375 10.171875 
Q 46.921875 13.96875 46.921875 20.515625 
Q 46.921875 27.09375 42.890625 30.859375 
Q 38.875 34.625 31.78125 34.625 
z
M 21.921875 38.8125 
Q 15.578125 40.375 12.03125 44.71875 
Q 8.5 49.078125 8.5 55.328125 
Q 8.5 64.0625 14.71875 69.140625 
Q 20.953125 74.21875 31.78125 74.21875 
Q 42.671875 74.21875 48.875 69.140625 
Q 55.078125 64.0625 55.078125 55.328125 
Q 55.078125 49.078125 51.53125 44.71875 
Q 48 40.375 41.703125 38.8125 
Q 48.828125 37.15625 52.796875 32.3125 
Q 56.78125 27.484375 56.78125 20.515625 
Q 56.78125 9.90625 50.3125 4.234375 
Q 43.84375 -1.421875 31.78125 -1.421875 
Q 19.734375 -1.421875 13.25 4.234375 
Q 6.78125 9.90625 6.78125 20.515625 
Q 6.78125 27.484375 10.78125 32.3125 
Q 14.796875 37.15625 21.921875 38.8125 
z
M 18.3125 54.390625 
Q 18.3125 48.734375 21.84375 45.5625 
Q 25.390625 42.390625 31.78125 42.390625 
Q 38.140625 42.390625 41.71875 45.5625 
Q 45.3125 48.734375 45.3125 54.390625 
Q 45.3125 60.0625 41.71875 63.234375 
Q 38.140625 66.40625 31.78125 66.40625 
Q 25.390625 66.40625 21.84375 63.234375 
Q 18.3125 60.0625 18.3125 54.390625 
z
" id="DejaVuSans-38"/>
      </defs>
      <g transform="translate(325.604801 322.182437)scale(0.1 -0.1)">
       <use xlink:href="#DejaVuSans-30"/>
       <use x="63.623047" xlink:href="#DejaVuSans-2e"/>
       <use x="95.410156" xlink:href="#DejaVuSans-38"/>
      </g>
     </g>
    </g>
    <g id="xtick_6">
     <g id="line2d_6">
      <g>
       <use style="stroke:#000000;stroke-width:0.8;" x="398.487273" xlink:href="#m1cda56db7d" y="307.584"/>
      </g>
     </g>
     <g id="text_6">
      <!-- 1.0 -->
      <defs>
       <path d="M 12.40625 8.296875 
L 28.515625 8.296875 
L 28.515625 63.921875 
L 10.984375 60.40625 
L 10.984375 69.390625 
L 28.421875 72.90625 
L 38.28125 72.90625 
L 38.28125 8.296875 
L 54.390625 8.296875 
L 54.390625 0 
L 12.40625 0 
z
" id="DejaVuSans-31"/>
      </defs>
      <g transform="translate(390.53571 322.182437)scale(0.1 -0.1)">
       <use xlink:href="#DejaVuSans-31"/>
       <use x="63.623047" xlink:href="#DejaVuSans-2e"/>
       <use x="95.410156" xlink:href="#DejaVuSans-30"/>
      </g>
     </g>
    </g>
    <g id="text_7">
     <!-- Generación -->
     <defs>
      <path d="M 59.515625 10.40625 
L 59.515625 29.984375 
L 43.40625 29.984375 
L 43.40625 38.09375 
L 69.28125 38.09375 
L 69.28125 6.78125 
Q 63.578125 2.734375 56.6875 0.65625 
Q 49.8125 -1.421875 42 -1.421875 
Q 24.90625 -1.421875 15.25 8.5625 
Q 5.609375 18.5625 5.609375 36.375 
Q 5.609375 54.25 15.25 64.234375 
Q 24.90625 74.21875 42 74.21875 
Q 49.125 74.21875 55.546875 72.453125 
Q 61.96875 70.703125 67.390625 67.28125 
L 67.390625 56.78125 
Q 61.921875 61.421875 55.765625 63.765625 
Q 49.609375 66.109375 42.828125 66.109375 
Q 29.4375 66.109375 22.71875 58.640625 
Q 16.015625 51.171875 16.015625 36.375 
Q 16.015625 21.625 22.71875 14.15625 
Q 29.4375 6.6875 42.828125 6.6875 
Q 48.046875 6.6875 52.140625 7.59375 
Q 56.25 8.5 59.515625 10.40625 
z
" id="DejaVuSans-47"/>
      <path d="M 56.203125 29.59375 
L 56.203125 25.203125 
L 14.890625 25.203125 
Q 15.484375 15.921875 20.484375 11.0625 
Q 25.484375 6.203125 34.421875 6.203125 
Q 39.59375 6.203125 44.453125 7.46875 
Q 49.3125 8.734375 54.109375 11.28125 
L 54.109375 2.78125 
Q 49.265625 0.734375 44.1875 -0.34375 
Q 39.109375 -1.421875 33.890625 -1.421875 
Q 20.796875 -1.421875 13.15625 6.1875 
Q 5.515625 13.8125 5.515625 26.8125 
Q 5.515625 40.234375 12.765625 48.109375 
Q 20.015625 56 32.328125 56 
Q 43.359375 56 49.78125 48.890625 
Q 56.203125 41.796875 56.203125 29.59375 
z
M 47.21875 32.234375 
Q 47.125 39.59375 43.09375 43.984375 
Q 39.0625 48.390625 32.421875 48.390625 
Q 24.90625 48.390625 20.390625 44.140625 
Q 15.875 39.890625 15.1875 32.171875 
z
" id="DejaVuSans-65"/>
      <path d="M 54.890625 33.015625 
L 54.890625 0 
L 45.90625 0 
L 45.90625 32.71875 
Q 45.90625 40.484375 42.875 44.328125 
Q 39.84375 48.1875 33.796875 48.1875 
Q 26.515625 48.1875 22.3125 43.546875 
Q 18.109375 38.921875 18.109375 30.90625 
L 18.109375 0 
L 9.078125 0 
L 9.078125 54.6875 
L 18.109375 54.6875 
L 18.109375 46.1875 
Q 21.34375 51.125 25.703125 53.5625 
Q 30.078125 56 35.796875 56 
Q 45.21875 56 50.046875 50.171875 
Q 54.890625 44.34375 54.890625 33.015625 
z
" id="DejaVuSans-6e"/>
      <path d="M 41.109375 46.296875 
Q 39.59375 47.171875 37.8125 47.578125 
Q 36.03125 48 33.890625 48 
Q 26.265625 48 22.1875 43.046875 
Q 18.109375 38.09375 18.109375 28.8125 
L 18.109375 0 
L 9.078125 0 
L 9.078125 54.6875 
L 18.109375 54.6875 
L 18.109375 46.1875 
Q 20.953125 51.171875 25.484375 53.578125 
Q 30.03125 56 36.53125 56 
Q 37.453125 56 38.578125 55.875 
Q 39.703125 55.765625 41.0625 55.515625 
z
" id="DejaVuSans-72"/>
      <path d="M 34.28125 27.484375 
Q 23.390625 27.484375 19.1875 25 
Q 14.984375 22.515625 14.984375 16.5 
Q 14.984375 11.71875 18.140625 8.90625 
Q 21.296875 6.109375 26.703125 6.109375 
Q 34.1875 6.109375 38.703125 11.40625 
Q 43.21875 16.703125 43.21875 25.484375 
L 43.21875 27.484375 
z
M 52.203125 31.203125 
L 52.203125 0 
L 43.21875 0 
L 43.21875 8.296875 
Q 40.140625 3.328125 35.546875 0.953125 
Q 30.953125 -1.421875 24.3125 -1.421875 
Q 15.921875 -1.421875 10.953125 3.296875 
Q 6 8.015625 6 15.921875 
Q 6 25.140625 12.171875 29.828125 
Q 18.359375 34.515625 30.609375 34.515625 
L 43.21875 34.515625 
L 43.21875 35.40625 
Q 43.21875 41.609375 39.140625 45 
Q 35.0625 48.390625 27.6875 48.390625 
Q 23 48.390625 18.546875 47.265625 
Q 14.109375 46.140625 10.015625 43.890625 
L 10.015625 52.203125 
Q 14.9375 54.109375 19.578125 55.046875 
Q 24.21875 56 28.609375 56 
Q 40.484375 56 46.34375 49.84375 
Q 52.203125 43.703125 52.203125 31.203125 
z
" id="DejaVuSans-61"/>
      <path d="M 48.78125 52.59375 
L 48.78125 44.1875 
Q 44.96875 46.296875 41.140625 47.34375 
Q 37.3125 48.390625 33.40625 48.390625 
Q 24.65625 48.390625 19.8125 42.84375 
Q 14.984375 37.3125 14.984375 27.296875 
Q 14.984375 17.28125 19.8125 11.734375 
Q 24.65625 6.203125 33.40625 6.203125 
Q 37.3125 6.203125 41.140625 7.25 
Q 44.96875 8.296875 48.78125 10.40625 
L 48.78125 2.09375 
Q 45.015625 0.34375 40.984375 -0.53125 
Q 36.96875 -1.421875 32.421875 -1.421875 
Q 20.0625 -1.421875 12.78125 6.34375 
Q 5.515625 14.109375 5.515625 27.296875 
Q 5.515625 40.671875 12.859375 48.328125 
Q 20.21875 56 33.015625 56 
Q 37.15625 56 41.109375 55.140625 
Q 45.0625 54.296875 48.78125 52.59375 
z
" id="DejaVuSans-63"/>
      <path d="M 9.421875 54.6875 
L 18.40625 54.6875 
L 18.40625 0 
L 9.421875 0 
z
M 9.421875 75.984375 
L 18.40625 75.984375 
L 18.40625 64.59375 
L 9.421875 64.59375 
z
" id="DejaVuSans-69"/>
      <path d="M 30.609375 48.390625 
Q 23.390625 48.390625 19.1875 42.75 
Q 14.984375 37.109375 14.984375 27.296875 
Q 14.984375 17.484375 19.15625 11.84375 
Q 23.34375 6.203125 30.609375 6.203125 
Q 37.796875 6.203125 41.984375 11.859375 
Q 46.1875 17.53125 46.1875 27.296875 
Q 46.1875 37.015625 41.984375 42.703125 
Q 37.796875 48.390625 30.609375 48.390625 
z
M 30.609375 56 
Q 42.328125 56 49.015625 48.375 
Q 55.71875 40.765625 55.71875 27.296875 
Q 55.71875 13.875 49.015625 6.21875 
Q 42.328125 -1.421875 30.609375 -1.421875 
Q 18.84375 -1.421875 12.171875 6.21875 
Q 5.515625 13.875 5.515625 27.296875 
Q 5.515625 40.765625 12.171875 48.375 
Q 18.84375 56 30.609375 56 
z
M 37.40625 79.984375 
L 47.125 79.984375 
L 31.203125 61.625 
L 23.734375 61.625 
z
" id="DejaVuSans-f3"/>
     </defs>
     <g transform="translate(207.477969 335.860562)scale(0.1 -0.1)">
      <use xlink:href="#DejaVuSans-47"/>
      <use x="77.490234" xlink:href="#DejaVuSans-65"/>
      <use x="139.013672" xlink:href="#DejaVuSans-6e"/>
      <use x="202.392578" xlink:href="#DejaVuSans-65"/>
      <use x="263.916016" xlink:href="#DejaVuSans-72"/>
      <use x="305.029297" xlink:href="#DejaVuSans-61"/>
      <use x="366.308594" xlink:href="#DejaVuSans-63"/>
      <use x="421.289062" xlink:href="#DejaVuSans-69"/>
      <use x="449.072266" xlink:href="#DejaVuSans-f3"/>
      <use x="510.253906" xlink:href="#DejaVuSans-6e"/>
     </g>
    </g>
   </g>
   <g id="matplotlib.axis_2">
    <g id="ytick_1">
     <g id="line2d_7">
      <defs>
       <path d="M 0 0 
L -3.5 0 
" id="m263548ea78" style="stroke:#000000;stroke-width:0.8;"/>
      </defs>
      <g>
       <use style="stroke:#000000;stroke-width:0.8;" x="57.6" xlink:href="#m263548ea78" y="307.584"/>
      </g>
     </g>
     <g id="text_8">
      <!-- 0 -->
      <g transform="translate(44.2375 311.383219)scale(0.1 -0.1)">
       <use xlink:href="#DejaVuSans-30"/>
      </g>
     </g>
    </g>
    <g id="ytick_2">
     <g id="line2d_8">
      <g>
       <use style="stroke:#000000;stroke-width:0.8;" x="57.6" xlink:href="#m263548ea78" y="265.344"/>
      </g>
     </g>
     <g id="text_9">
      <!-- 50 -->
      <defs>
       <path d="M 10.796875 72.90625 
L 49.515625 72.90625 
L 49.515625 64.59375 
L 19.828125 64.59375 
L 19.828125 46.734375 
Q 21.96875 47.46875 24.109375 47.828125 
Q 26.265625 48.1875 28.421875 48.1875 
Q 40.625 48.1875 47.75 41.5 
Q 54.890625 34.8125 54.890625 23.390625 
Q 54.890625 11.625 47.5625 5.09375 
Q 40.234375 -1.421875 26.90625 -1.421875 
Q 22.3125 -1.421875 17.546875 -0.640625 
Q 12.796875 0.140625 7.71875 1.703125 
L 7.71875 11.625 
Q 12.109375 9.234375 16.796875 8.0625 
Q 21.484375 6.890625 26.703125 6.890625 
Q 35.15625 6.890625 40.078125 11.328125 
Q 45.015625 15.765625 45.015625 23.390625 
Q 45.015625 31 40.078125 35.4375 
Q 35.15625 39.890625 26.703125 39.890625 
Q 22.75 39.890625 18.8125 39.015625 
Q 14.890625 38.140625 10.796875 36.28125 
z
" id="DejaVuSans-35"/>
      </defs>
      <g transform="translate(37.875 269.143219)scale(0.1 -0.1)">
       <use xlink:href="#DejaVuSans-35"/>
       <use x="63.623047" xlink:href="#DejaVuSans-30"/>
      </g>
     </g>
    </g>
    <g id="ytick_3">
     <g id="line2d_9">
      <g>
       <use style="stroke:#000000;stroke-width:0.8;" x="57.6" xlink:href="#m263548ea78" y="223.104"/>
      </g>
     </g>
     <g id="text_10">
      <!-- 100 -->
      <g transform="translate(31.5125 226.903219)scale(0.1 -0.1)">
       <use xlink:href="#DejaVuSans-31"/>
       <use x="63.623047" xlink:href="#DejaVuSans-30"/>
       <use x="127.246094" xlink:href="#DejaVuSans-30"/>
      </g>
     </g>
    </g>
    <g id="ytick_4">
     <g id="line2d_10">
      <g>
       <use style="stroke:#000000;stroke-width:0.8;" x="57.6" xlink:href="#m263548ea78" y="180.864"/>
      </g>
     </g>
     <g id="text_11">
      <!-- 150 -->
      <g transform="translate(31.5125 184.663219)scale(0.1 -0.1)">
       <use xlink:href="#DejaVuSans-31"/>
       <use x="63.623047" xlink:href="#DejaVuSans-35"/>
       <use x="127.246094" xlink:href="#DejaVuSans-30"/>
      </g>
     </g>
    </g>
    <g id="ytick_5">
     <g id="line2d_11">
      <g>
       <use style="stroke:#000000;stroke-width:0.8;" x="57.6" xlink:href="#m263548ea78" y="138.624"/>
      </g>
     </g>
     <g id="text_12">
      <!-- 200 -->
      <g transform="translate(31.5125 142.423219)scale(0.1 -0.1)">
       <use xlink:href="#DejaVuSans-32"/>
       <use x="63.623047" xlink:href="#DejaVuSans-30"/>
       <use x="127.246094" xlink:href="#DejaVuSans-30"/>
      </g>
     </g>
    </g>
    <g id="ytick_6">
     <g id="line2d_12">
      <g>
       <use style="stroke:#000000;stroke-width:0.8;" x="57.6" xlink:href="#m263548ea78" y="96.384"/>
      </g>
     </g>
     <g id="text_13">
      <!-- 250 -->
      <g transform="translate(31.5125 100.183219)scale(0.1 -0.1)">
       <use xlink:href="#DejaVuSans-32"/>
       <use x="63.623047" xlink:href="#DejaVuSans-35"/>
       <use x="127.246094" xlink:href="#DejaVuSans-30"/>
      </g>
     </g>
    </g>
    <g id="ytick_7">
     <g id="line2d_13">
      <g>
       <use style="stroke:#000000;stroke-width:0.8;" x="57.6" xlink:href="#m263548ea78" y="54.144"/>
      </g>
     </g>
     <g id="text_14">
      <!-- 300 -->
      <defs>
       <path d="M 40.578125 39.3125 
Q 47.65625 37.796875 51.625 33 
Q 55.609375 28.21875 55.609375 21.1875 
Q 55.609375 10.40625 48.1875 4.484375 
Q 40.765625 -1.421875 27.09375 -1.421875 
Q 22.515625 -1.421875 17.65625 -0.515625 
Q 12.796875 0.390625 7.625 2.203125 
L 7.625 11.71875 
Q 11.71875 9.328125 16.59375 8.109375 
Q 21.484375 6.890625 26.8125 6.890625 
Q 36.078125 6.890625 40.9375 10.546875 
Q 45.796875 14.203125 45.796875 21.1875 
Q 45.796875 27.640625 41.28125 31.265625 
Q 36.765625 34.90625 28.71875 34.90625 
L 20.21875 34.90625 
L 20.21875 43.015625 
L 29.109375 43.015625 
Q 36.375 43.015625 40.234375 45.921875 
Q 44.09375 48.828125 44.09375 54.296875 
Q 44.09375 59.90625 40.109375 62.90625 
Q 36.140625 65.921875 28.71875 65.921875 
Q 24.65625 65.921875 20.015625 65.03125 
Q 15.375 64.15625 9.8125 62.3125 
L 9.8125 71.09375 
Q 15.4375 72.65625 20.34375 73.4375 
Q 25.25 74.21875 29.59375 74.21875 
Q 40.828125 74.21875 47.359375 69.109375 
Q 53.90625 64.015625 53.90625 55.328125 
Q 53.90625 49.265625 50.4375 45.09375 
Q 46.96875 40.921875 40.578125 39.3125 
z
" id="DejaVuSans-33"/>
      </defs>
      <g transform="translate(31.5125 57.943219)scale(0.1 -0.1)">
       <use xlink:href="#DejaVuSans-33"/>
       <use x="63.623047" xlink:href="#DejaVuSans-30"/>
       <use x="127.246094" xlink:href="#DejaVuSans-30"/>
      </g>
     </g>
    </g>
    <g id="text_15">
     <!-- Individuos por especie -->
     <defs>
      <path d="M 9.8125 72.90625 
L 19.671875 72.90625 
L 19.671875 0 
L 9.8125 0 
z
" id="DejaVuSans-49"/>
      <path d="M 45.40625 46.390625 
L 45.40625 75.984375 
L 54.390625 75.984375 
L 54.390625 0 
L 45.40625 0 
L 45.40625 8.203125 
Q 42.578125 3.328125 38.25 0.953125 
Q 33.9375 -1.421875 27.875 -1.421875 
Q 17.96875 -1.421875 11.734375 6.484375 
Q 5.515625 14.40625 5.515625 27.296875 
Q 5.515625 40.1875 11.734375 48.09375 
Q 17.96875 56 27.875 56 
Q 33.9375 56 38.25 53.625 
Q 42.578125 51.265625 45.40625 46.390625 
z
M 14.796875 27.296875 
Q 14.796875 17.390625 18.875 11.75 
Q 22.953125 6.109375 30.078125 6.109375 
Q 37.203125 6.109375 41.296875 11.75 
Q 45.40625 17.390625 45.40625 27.296875 
Q 45.40625 37.203125 41.296875 42.84375 
Q 37.203125 48.484375 30.078125 48.484375 
Q 22.953125 48.484375 18.875 42.84375 
Q 14.796875 37.203125 14.796875 27.296875 
z
" id="DejaVuSans-64"/>
      <path d="M 2.984375 54.6875 
L 12.5 54.6875 
L 29.59375 8.796875 
L 46.6875 54.6875 
L 56.203125 54.6875 
L 35.6875 0 
L 23.484375 0 
z
" id="DejaVuSans-76"/>
      <path d="M 8.5 21.578125 
L 8.5 54.6875 
L 17.484375 54.6875 
L 17.484375 21.921875 
Q 17.484375 14.15625 20.5 10.265625 
Q 23.53125 6.390625 29.59375 6.390625 
Q 36.859375 6.390625 41.078125 11.03125 
Q 45.3125 15.671875 45.3125 23.6875 
L 45.3125 54.6875 
L 54.296875 54.6875 
L 54.296875 0 
L 45.3125 0 
L 45.3125 8.40625 
Q 42.046875 3.421875 37.71875 1 
Q 33.40625 -1.421875 27.6875 -1.421875 
Q 18.265625 -1.421875 13.375 4.4375 
Q 8.5 10.296875 8.5 21.578125 
z
M 31.109375 56 
z
" id="DejaVuSans-75"/>
      <path d="M 30.609375 48.390625 
Q 23.390625 48.390625 19.1875 42.75 
Q 14.984375 37.109375 14.984375 27.296875 
Q 14.984375 17.484375 19.15625 11.84375 
Q 23.34375 6.203125 30.609375 6.203125 
Q 37.796875 6.203125 41.984375 11.859375 
Q 46.1875 17.53125 46.1875 27.296875 
Q 46.1875 37.015625 41.984375 42.703125 
Q 37.796875 48.390625 30.609375 48.390625 
z
M 30.609375 56 
Q 42.328125 56 49.015625 48.375 
Q 55.71875 40.765625 55.71875 27.296875 
Q 55.71875 13.875 49.015625 6.21875 
Q 42.328125 -1.421875 30.609375 -1.421875 
Q 18.84375 -1.421875 12.171875 6.21875 
Q 5.515625 13.875 5.515625 27.296875 
Q 5.515625 40.765625 12.171875 48.375 
Q 18.84375 56 30.609375 56 
z
" id="DejaVuSans-6f"/>
      <path d="M 44.28125 53.078125 
L 44.28125 44.578125 
Q 40.484375 46.53125 36.375 47.5 
Q 32.28125 48.484375 27.875 48.484375 
Q 21.1875 48.484375 17.84375 46.4375 
Q 14.5 44.390625 14.5 40.28125 
Q 14.5 37.15625 16.890625 35.375 
Q 19.28125 33.59375 26.515625 31.984375 
L 29.59375 31.296875 
Q 39.15625 29.25 43.1875 25.515625 
Q 47.21875 21.78125 47.21875 15.09375 
Q 47.21875 7.46875 41.1875 3.015625 
Q 35.15625 -1.421875 24.609375 -1.421875 
Q 20.21875 -1.421875 15.453125 -0.5625 
Q 10.6875 0.296875 5.421875 2 
L 5.421875 11.28125 
Q 10.40625 8.6875 15.234375 7.390625 
Q 20.0625 6.109375 24.8125 6.109375 
Q 31.15625 6.109375 34.5625 8.28125 
Q 37.984375 10.453125 37.984375 14.40625 
Q 37.984375 18.0625 35.515625 20.015625 
Q 33.0625 21.96875 24.703125 23.78125 
L 21.578125 24.515625 
Q 13.234375 26.265625 9.515625 29.90625 
Q 5.8125 33.546875 5.8125 39.890625 
Q 5.8125 47.609375 11.28125 51.796875 
Q 16.75 56 26.8125 56 
Q 31.78125 56 36.171875 55.265625 
Q 40.578125 54.546875 44.28125 53.078125 
z
" id="DejaVuSans-73"/>
      <path id="DejaVuSans-20"/>
      <path d="M 18.109375 8.203125 
L 18.109375 -20.796875 
L 9.078125 -20.796875 
L 9.078125 54.6875 
L 18.109375 54.6875 
L 18.109375 46.390625 
Q 20.953125 51.265625 25.265625 53.625 
Q 29.59375 56 35.59375 56 
Q 45.5625 56 51.78125 48.09375 
Q 58.015625 40.1875 58.015625 27.296875 
Q 58.015625 14.40625 51.78125 6.484375 
Q 45.5625 -1.421875 35.59375 -1.421875 
Q 29.59375 -1.421875 25.265625 0.953125 
Q 20.953125 3.328125 18.109375 8.203125 
z
M 48.6875 27.296875 
Q 48.6875 37.203125 44.609375 42.84375 
Q 40.53125 48.484375 33.40625 48.484375 
Q 26.265625 48.484375 22.1875 42.84375 
Q 18.109375 37.203125 18.109375 27.296875 
Q 18.109375 17.390625 22.1875 11.75 
Q 26.265625 6.109375 33.40625 6.109375 
Q 40.53125 6.109375 44.609375 11.75 
Q 48.6875 17.390625 48.6875 27.296875 
z
" id="DejaVuSans-70"/>
     </defs>
     <g transform="translate(25.432812 230.704563)rotate(-90)scale(0.1 -0.1)">
      <use xlink:href="#DejaVuSans-49"/>
      <use x="29.492188" xlink:href="#DejaVuSans-6e"/>
      <use x="92.871094" xlink:href="#DejaVuSans-64"/>
      <use x="156.347656" xlink:href="#DejaVuSans-69"/>
      <use x="184.130859" xlink:href="#DejaVuSans-76"/>
      <use x="243.310547" xlink:href="#DejaVuSans-69"/>
      <use x="271.09375" xlink:href="#DejaVuSans-64"/>
      <use x="334.570312" xlink:href="#DejaVuSans-75"/>
      <use x="397.949219" xlink:href="#DejaVuSans-6f"/>
      <use x="459.130859" xlink:href="#DejaVuSans-73"/>
      <use x="511.230469" xlink:href="#DejaVuSans-20"/>
      <use x="543.017578" xlink:href="#DejaVuSans-70"/>
      <use x="606.494141" xlink:href="#DejaVuSans-6f"/>
      <use x="667.675781" xlink:href="#DejaVuSans-72"/>
      <use x="708.789062" xlink:href="#DejaVuSans-20"/>
      <use x="740.576172" xlink:href="#DejaVuSans-65"/>
      <use x="802.099609" xlink:href="#DejaVuSans-73"/>
      <use x="854.199219" xlink:href="#DejaVuSans-70"/>
      <use x="917.675781" xlink:href="#DejaVuSans-65"/>
      <use x="979.199219" xlink:href="#DejaVuSans-63"/>
      <use x="1034.179688" xlink:href="#DejaVuSans-69"/>
      <use x="1061.962891" xlink:href="#DejaVuSans-65"/>
     </g>
    </g>
   </g>
   <g id="patch_3">
    <path d="M 57.6 307.584 
L 57.6 41.472 
" style="fill:none;stroke:#000000;stroke-linecap:square;stroke-linejoin:miter;stroke-width:0.8;"/>
   </g>
   <g id="patch_4">
    <path d="M 414.72 307.584 
L 414.72 41.472 
" style="fill:none;stroke:#000000;stroke-linecap:square;stroke-linejoin:miter;stroke-width:0.8;"/>
   </g>
   <g id="patch_5">
    <path d="M 57.6 307.584 
L 414.72 307.584 
" style="fill:none;stroke:#000000;stroke-linecap:square;stroke-linejoin:miter;stroke-width:0.8;"/>
   </g>
   <g id="patch_6">
    <path d="M 57.6 41.472 
L 414.72 41.472 
" style="fill:none;stroke:#000000;stroke-linecap:square;stroke-linejoin:miter;stroke-width:0.8;"/>
   </g>
   <g id="text_16">
    <!-- Especiación -->
    <defs>
     <path d="M 9.8125 72.90625 
L 55.90625 72.90625 
L 55.90625 64.59375 
L 19.671875 64.59375 
L 19.671875 43.015625 
L 54.390625 43.015625 
L 54.390625 34.71875 
L 19.671875 34.71875 
L 19.671875 8.296875 
L 56.78125 8.296875 
L 56.78125 0 
L 9.8125 0 
z
" id="DejaVuSans-45"/>
    </defs>
    <g transform="translate(200.659687 35.472)scale(0.12 -0.12)">
     <use xlink:href="#DejaVuSans-45"/>
     <use x="63.183594" xlink:href="#DejaVuSans-73"/>
     <use x="115.283203" xlink:href="#DejaVuSans-70"/>
     <use x="178.759766" xlink:href="#DejaVuSans-65"/>
     <use x="240.283203" xlink:href="#DejaVuSans-63"/>
     <use x="295.263672" xlink:href="#DejaVuSans-69"/>
     <use x="323.046875" xlink:href="#DejaVuSans-61"/>
     <use x="384.326172" xlink:href="#DejaVuSans-63"/>
     <use x="439.306641" xlink:href="#DejaVuSans-69"/>
     <use x="467.089844" xlink:href="#DejaVuSans-f3"/>
     <use x="528.271484" xlink:href="#DejaVuSans-6e"/>
    </g>
   </g>
  </g>
 </g>
 <defs>
  <clipPath id="p22591a2a97">
   <rect height="266.112" width="357.12" x="57.6" y="41.472"/>
  </clipPath>
 </defs>
</svg>
